<svg xmlns="http://www.w3.org/2000/svg" width="263.99127197265625" height="275.54608154296875" viewBox="-50.87311935424805 -37.188297271728516 263.99127197265625 275.54608154296875"><title>Neo4j Graph Visualization</title><desc>Created using Neo4j (http://www.neo4j.com/)</desc><g class="layer relationships"><g class="relationship" transform="translate(86.79575267245221 201.85779714458934) rotate(312.7560633183438)"><path class="outline" fill="#FFD86E" stroke="none" d="M 32.5 0.5 L 45.87570835760357 0.5 L 45.87570835760357 -0.5 L 32.5 -0.5 Z M 79.43430210760357 0.5 L 92.81001046520714 0.5 L 92.81001046520714 3.5 L 99.81001046520714 0 L 92.81001046520714 -3.5 L 92.81001046520714 -0.5 L 79.43430210760357 -0.5 Z"/><text text-anchor="middle" pointer-events="none" font-size="8px" fill="#000000" x="62.65500523260357" y="3" font-family="sans-serif">MEETS</text></g><g class="relationship" transform="translate(84.17245649339353 -0.6882981827066672) rotate(495.2581467546785)"><path class="outline" fill="#FFD86E" stroke="none" d="M 32.5 0.5 L 49.091103957521824 0.5 L 49.091103957521824 -0.5 L 32.5 -0.5 Z M 82.64969770752182 0.5 L 99.24080166504365 0.5 L 99.24080166504365 3.5 L 106.24080166504365 0 L 99.24080166504365 -3.5 L 99.24080166504365 -0.5 L 82.64969770752182 -0.5 Z"/><text text-anchor="middle" pointer-events="none" font-size="8px" fill="#000000" x="65.87040083252182" y="3" transform="rotate(180 65.87040083252182 0)" font-family="sans-serif">MEETS</text></g><g class="relationship" transform="translate(86.79575267245221 201.85779714458934) rotate(226.03307671658143)"><path class="outline" fill="#FFD86E" stroke="none" d="M 32.5 0.5 L 52.58342876692306 0.5 L 52.58342876692306 -0.5 L 32.5 -0.5 Z M 86.14202251692306 0.5 L 106.22545128384613 0.5 L 106.22545128384613 3.5 L 113.22545128384613 0 L 106.22545128384613 -3.5 L 106.22545128384613 -0.5 L 86.14202251692306 -0.5 Z"/><text text-anchor="middle" pointer-events="none" font-size="8px" fill="#000000" x="69.36272564192306" y="3" transform="rotate(180 69.36272564192306 0)" font-family="sans-serif">MEETS</text></g><g class="relationship" transform="translate(176.61816767054697 104.70908313759247) rotate(182.3194146360429)"><path class="outline" fill="#FFD86E" stroke="none" d="M 32.5 0.5 L 75.29464651256907 0.5 L 75.29464651256907 -0.5 L 32.5 -0.5 Z M 108.85324026256907 0.5 L 151.64788677513815 0.5 L 151.64788677513815 3.5 L 158.64788677513815 0 L 151.64788677513815 -3.5 L 151.64788677513815 -0.5 L 108.85324026256907 -0.5 Z"/><text text-anchor="middle" pointer-events="none" font-size="8px" fill="#000000" x="92.07394338756907" y="3" transform="rotate(180 92.07394338756907 0)" font-family="sans-serif">MEETS</text></g><g class="relationship" transform="translate(86.79575267245221 201.85779714458934) rotate(269.25796942226566)"><path class="outline" fill="#FFD86E" stroke="none" d="M 32.5 0.5 L 81.00224440372604 0.5 L 81.00224440372604 -0.5 L 32.5 -0.5 Z M 114.56083815372604 0.5 L 163.06308255745208 0.5 L 163.06308255745208 3.5 L 170.06308255745208 0 L 163.06308255745208 -3.5 L 163.06308255745208 -0.5 L 114.56083815372604 -0.5 Z"/><text text-anchor="middle" pointer-events="none" font-size="8px" fill="#000000" x="97.78154127872604" y="3" transform="rotate(180 97.78154127872604 0)" font-family="sans-serif">MEETS</text></g><g class="relationship" transform="translate(176.61816767054697 104.70908313759247) rotate(228.74548673498975)"><path class="outline" fill="#FFD86E" stroke="none" d="M 32.5 0.5 L 49.81852317709972 0.5 L 49.81852317709972 -0.5 L 32.5 -0.5 Z M 83.37711692709972 0.5 L 100.69564010419944 0.5 L 100.69564010419944 3.5 L 107.69564010419944 0 L 100.69564010419944 -3.5 L 100.69564010419944 -0.5 L 83.37711692709972 -0.5 Z"/><text text-anchor="middle" pointer-events="none" font-size="8px" fill="#000000" x="66.59782005209972" y="3" transform="rotate(180 66.59782005209972 0)" font-family="sans-serif">MEETS</text></g></g><g class="layer nodes"><g class="node" transform="translate(86.79575267245221,201.85779714458934)"><circle class="outline" cx="0" cy="0" r="32.5" fill="#FF756E" stroke="#E06760" stroke-width="2px"/><text text-anchor="middle" pointer-events="none" font-family="sans-serif" dy="2.03125" font-size="32.5" fill="#FFFFFF"/><text text-anchor="middle" pointer-events="none" y="5" font-size="10px" fill="#FFFFFF" font-family="sans-serif"> Richard Fox</text></g><g class="node" transform="translate(176.61816767054697,104.70908313759247)"><circle class="outline" cx="0" cy="0" r="32.5" fill="#FF756E" stroke="#E06760" stroke-width="2px"/><text text-anchor="middle" pointer-events="none" font-family="sans-serif" dy="2.03125" font-size="32.5" fill="#FFFFFF"/><text text-anchor="middle" pointer-events="none" font-family="sans-serif" dy="2.03125" font-size="32.5" fill="#FFFFFF"/><text text-anchor="middle" pointer-events="none" y="0" font-size="10px" fill="#FFFFFF" font-family="sans-serif"> Madeline</text><text text-anchor="middle" pointer-events="none" y="10" font-size="10px" fill="#FFFFFF" font-family="sans-serif"> Nindorf</text></g><g class="node" transform="translate(84.17245649339353,-0.6882981827066672)"><circle class="outline" cx="0" cy="0" r="32.5" fill="#FF756E" stroke="#E06760" stroke-width="2px"/><text text-anchor="middle" pointer-events="none" font-family="sans-serif" dy="2.03125" font-size="32.5" fill="#FFFFFF"/><text text-anchor="middle" pointer-events="none" y="5" font-size="10px" fill="#FFFFFF" font-family="sans-serif"> Julie Tierno</text></g><g class="node" transform="translate(-14.373119118820902,96.97325809158328)"><circle class="outline" cx="0" cy="0" r="32.5" fill="#FF756E" stroke="#E06760" stroke-width="2px"/><text text-anchor="middle" pointer-events="none" font-family="sans-serif" dy="2.03125" font-size="32.5" fill="#FFFFFF"/><text text-anchor="middle" pointer-events="none" font-family="sans-serif" dy="2.03125" font-size="32.5" fill="#FFFFFF"/><text text-anchor="middle" pointer-events="none" y="0" font-size="10px" fill="#FFFFFF" font-family="sans-serif"> Sherrell</text><text text-anchor="middle" pointer-events="none" y="10" font-size="10px" fill="#FFFFFF" font-family="sans-serif"> Biebel</text></g></g></svg>