<svg xmlns="http://www.w3.org/2000/svg" width="758.51806640625" height="558.535888671875" viewBox="-301.8437805175781 -153.46051025390625 758.51806640625 558.535888671875"><title>Neo4j Graph Visualization</title><desc>Created using Neo4j (http://www.neo4j.com/)</desc><g class="layer relationships"><g class="relationship" transform="translate(-191.8355573636315 168.26247059193255) rotate(415.70723127150154)"><path class="outline" fill="#6DCE9E" stroke="none" d="M 32.5 0.5 L 45.37750413106734 0.5 L 45.37750413106734 -0.5 L 32.5 -0.5 Z M 76.72516038106734 0.5 L 89.60266451213468 0.5 L 89.60266451213468 3.5 L 96.60266451213468 0 L 89.60266451213468 -3.5 L 89.60266451213468 -0.5 L 76.72516038106734 -0.5 Z"/><text text-anchor="middle" pointer-events="none" font-size="8px" fill="#000000" x="61.05133225606734" y="3" font-family="sans-serif">CALLS</text></g><g class="relationship" transform="translate(-191.8355573636315 168.26247059193255) rotate(447.99716226954195)"><path class="outline" fill="#6DCE9E" stroke="none" d="M 32.5 0.5 L 68.26079125940616 0.5 L 68.26079125940616 -0.5 L 32.5 -0.5 Z M 99.60844750940616 0.5 L 135.36923876881232 0.5 L 135.36923876881232 3.5 L 142.36923876881232 0 L 135.36923876881232 -3.5 L 135.36923876881232 -0.5 L 99.60844750940616 -0.5 Z"/><text text-anchor="middle" pointer-events="none" font-size="8px" fill="#000000" x="83.93461938440616" y="3" font-family="sans-serif">CALLS</text></g><g class="relationship" transform="translate(416.2375734749758 160.06789897201563) rotate(495.246809780994)"><path class="outline" fill="#6DCE9E" stroke="none" d="M 32.5 0.5 L 62.06859594397339 0.5 L 62.06859594397339 -0.5 L 32.5 -0.5 Z M 93.41625219397339 0.5 L 122.98484813794678 0.5 L 122.98484813794678 3.5 L 129.98484813794678 0 L 122.98484813794678 -3.5 L 122.98484813794678 -0.5 L 93.41625219397339 -0.5 Z"/><text text-anchor="middle" pointer-events="none" font-size="8px" fill="#000000" x="77.74242406897339" y="3" transform="rotate(180 77.74242406897339 0)" font-family="sans-serif">CALLS</text></g><g class="relationship" transform="translate(416.2375734749758 160.06789897201563) rotate(536.4529891087454)"><path class="outline" fill="#6DCE9E" stroke="none" d="M 32.5 0.5 L 33.09978810805024 0.5 L 33.09978810805024 -0.5 L 32.5 -0.5 Z M 62.66228810805024 0.5 L 63.26207621610048 0.5 L 63.26207621610048 3.5 L 70.26207621610048 0 L 63.26207621610048 -3.5 L 63.26207621610048 -0.5 L 62.66228810805024 -0.5 Z"/><text text-anchor="middle" pointer-events="none" font-size="8px" fill="#000000" x="47.88103810805024" y="3" transform="rotate(180 47.88103810805024 0)" font-family="sans-serif">CAL…</text></g><g class="relationship" transform="translate(37.605546235437224 258.21772979023507) rotate(298.74441851514007)"><path class="outline" fill="#6DCE9E" stroke="none" d="M 32.5 0.5 L 82.41910324951257 0.5 L 82.41910324951257 -0.5 L 32.5 -0.5 Z M 113.76675949951257 0.5 L 163.68586274902515 0.5 L 163.68586274902515 3.5 L 170.68586274902515 0 L 163.68586274902515 -3.5 L 163.68586274902515 -0.5 L 113.76675949951257 -0.5 Z"/><text text-anchor="middle" pointer-events="none" font-size="8px" fill="#000000" x="98.09293137451257" y="3" font-family="sans-serif">CALLS</text></g><g class="relationship" transform="translate(37.605546235437224 258.21772979023507) rotate(213.2380605798386)"><path class="outline" fill="#FFD86E" stroke="none" d="M 32.5 0.5 L 58.68599664474462 0.5 L 58.68599664474462 -0.5 L 32.5 -0.5 Z M 92.24459039474462 0.5 L 118.43058703948924 0.5 L 118.43058703948924 3.5 L 125.43058703948924 0 L 118.43058703948924 -3.5 L 118.43058703948924 -0.5 L 92.24459039474462 -0.5 Z"/><text text-anchor="middle" pointer-events="none" font-size="8px" fill="#000000" x="75.46529351974462" y="3" transform="rotate(180 75.46529351974462 0)" font-family="sans-serif">MEETS</text></g><g class="relationship" transform="translate(37.605546235437224 258.21772979023507) rotate(354.1272146871627)"><path class="outline" fill="#6DCE9E" stroke="none" d="M 31.26317983184346,-8.894581878976458 L 31.52199887694598,-7.92865605268739 A 174.52845344462736 174.52845344462736 0 0 1 59.158426595538,-12.99247170193965 L 59.05795667445015,-13.987411798104546 A 175.52845344462736 175.52845344462736 0 0 0 31.26317983184346,-8.894581878976458 Z M 90.45123245017591,-14.335563332699365 L 90.37285230359863,-13.33863978867879 A 174.52845344462736 174.52845344462736 0 0 1 118.1147846041286,-8.888970339451607 L 117.40278325570837,-5.974685850962578 L 125.03344863533971,-7.713347941219226 L 119.06411973535559,-12.774682990770314 L 118.35211838693536,-9.860398502281285 A 175.52845344462736 175.52845344462736 0 0 0 90.45123245017591,-14.335563332699365"/><text text-anchor="middle" pointer-events="none" font-size="8px" fill="#000000" x="74.75233975274905" y="-11.364806670532715" font-family="sans-serif">CALLS</text></g><g class="relationship" transform="translate(37.605546235437224 258.21772979023507) rotate(533.9148886199403)"><path class="outline" fill="#FFD86E" stroke="none" d="M 32.5 0.5 L 58.515596154663555 0.5 L 58.515596154663555 -0.5 L 32.5 -0.5 Z M 92.07418990466356 0.5 L 118.08978605932711 0.5 L 118.08978605932711 3.5 L 125.08978605932711 0 L 118.08978605932711 -3.5 L 118.08978605932711 -0.5 L 92.07418990466356 -0.5 Z"/><text text-anchor="middle" pointer-events="none" font-size="8px" fill="#000000" x="75.29489302966356" y="3" transform="rotate(180 75.29489302966356 0)" font-family="sans-serif">MEETS</text></g><g class="relationship" transform="translate(37.605546235437224 258.21772979023507) rotate(519.206234203288)"><path class="outline" fill="#6DCE9E" stroke="none" d="M 32.5 0.5 L 100.27109955293325 0.5 L 100.27109955293325 -0.5 L 32.5 -0.5 Z M 131.61875580293326 0.5 L 199.3898553558665 0.5 L 199.3898553558665 3.5 L 206.3898553558665 0 L 199.3898553558665 -3.5 L 199.3898553558665 -0.5 L 131.61875580293326 -0.5 Z"/><text text-anchor="middle" pointer-events="none" font-size="8px" fill="#000000" x="115.94492767793325" y="3" transform="rotate(180 115.94492767793325 0)" font-family="sans-serif">CALLS</text></g><g class="relationship" transform="translate(420.17427807732514 254.9411179837999) rotate(267.6239107128194)"><path class="outline" fill="#6DCE9E" stroke="none" d="M 32.5 0.5 L 34.08875783845475 0.5 L 34.08875783845475 -0.5 L 32.5 -0.5 Z M 53.86610158845475 0.5 L 55.45485942690949 0.5 L 55.45485942690949 3.5 L 62.45485942690949 0 L 55.45485942690949 -3.5 L 55.45485942690949 -0.5 L 53.86610158845475 -0.5 Z"/><text text-anchor="middle" pointer-events="none" font-size="8px" fill="#000000" x="43.97742971345475" y="3" transform="rotate(180 43.97742971345475 0)" font-family="sans-serif">C…</text></g><g class="relationship" transform="translate(216.4459301056503 10.917233604375923) rotate(208.49379220208567)"><path class="outline" fill="#6DCE9E" stroke="none" d="M 32.5 0.5 L 58.403102807362984 0.5 L 58.403102807362984 -0.5 L 32.5 -0.5 Z M 89.75075905736298 0.5 L 115.65386186472597 0.5 L 115.65386186472597 3.5 L 122.65386186472597 0 L 115.65386186472597 -3.5 L 115.65386186472597 -0.5 L 89.75075905736298 -0.5 Z"/><text text-anchor="middle" pointer-events="none" font-size="8px" fill="#000000" x="74.07693093236298" y="3" transform="rotate(180 74.07693093236298 0)" font-family="sans-serif">CALLS</text></g><g class="relationship" transform="translate(-110.94652936255181 5.434586702857473) rotate(476.4170955912283)"><path class="outline" fill="#6DCE9E" stroke="none" d="M 32.5 0.5 L 71.73265489842574 0.5 L 71.73265489842574 -0.5 L 32.5 -0.5 Z M 103.08031114842574 0.5 L 142.31296604685147 0.5 L 142.31296604685147 3.5 L 149.31296604685147 0 L 142.31296604685147 -3.5 L 142.31296604685147 -0.5 L 103.08031114842574 -0.5 Z"/><text text-anchor="middle" pointer-events="none" font-size="8px" fill="#000000" x="87.40648302342574" y="3" transform="rotate(180 87.40648302342574 0)" font-family="sans-serif">CALLS</text></g><g class="relationship" transform="translate(-110.94652936255181 5.434586702857473) rotate(444.34503172084817)"><path class="outline" fill="#6DCE9E" stroke="none" d="M 32.5 0.5 L 64.34181324875601 0.5 L 64.34181324875601 -0.5 L 32.5 -0.5 Z M 95.68946949875601 0.5 L 127.53128274751202 0.5 L 127.53128274751202 3.5 L 134.53128274751202 0 L 127.53128274751202 -3.5 L 127.53128274751202 -0.5 L 95.68946949875601 -0.5 Z"/><text text-anchor="middle" pointer-events="none" font-size="8px" fill="#000000" x="80.01564137375601" y="3" font-family="sans-serif">CALLS</text></g><g class="relationship" transform="translate(1.3600468362259754 168.11719815097322) rotate(282.03501167334474)"><path class="outline" fill="#6DCE9E" stroke="none" d="M 32.5 0.5 L 46.95936316471918 0.5 L 46.95936316471918 -0.5 L 32.5 -0.5 Z M 78.30701941471918 0.5 L 92.76638257943836 0.5 L 92.76638257943836 3.5 L 99.76638257943836 0 L 92.76638257943836 -3.5 L 92.76638257943836 -0.5 L 78.30701941471918 -0.5 Z"/><text text-anchor="middle" pointer-events="none" font-size="8px" fill="#000000" x="62.63319128971918" y="3" font-family="sans-serif">CALLS</text></g><g class="relationship" transform="translate(1.3600468362259754 168.11719815097322) rotate(235.38106668198105)"><path class="outline" fill="#6DCE9E" stroke="none" d="M 32.5 0.5 L 79.66745768850822 0.5 L 79.66745768850822 -0.5 L 32.5 -0.5 Z M 111.01511393850822 0.5 L 158.18257162701644 0.5 L 158.18257162701644 3.5 L 165.18257162701644 0 L 158.18257162701644 -3.5 L 158.18257162701644 -0.5 L 111.01511393850822 -0.5 Z"/><text text-anchor="middle" pointer-events="none" font-size="8px" fill="#000000" x="95.34128581350822" y="3" transform="rotate(180 95.34128581350822 0)" font-family="sans-serif">CALLS</text></g><g class="relationship" transform="translate(1.3600468362259754 168.11719815097322) rotate(404.5735128046921)"><path class="outline" fill="#68BDF6" stroke="none" d="M 32.5 0.5 L 66.04055444848792 0.5 L 66.04055444848792 -0.5 L 32.5 -0.5 Z M 101.38430444848792 0.5 L 134.92485889697585 0.5 L 134.92485889697585 3.5 L 141.92485889697585 0 L 134.92485889697585 -3.5 L 134.92485889697585 -0.5 L 101.38430444848792 -0.5 Z"/><text text-anchor="middle" pointer-events="none" font-size="8px" fill="#000000" x="83.71242944848792" y="3" font-family="sans-serif">EMAILS</text></g><g class="relationship" transform="translate(300.8495800572288 274.46604952278983) rotate(276.76847809113275)"><path class="outline" fill="#68BDF6" stroke="none" d="M 32.5 0.5 L 33.22752139904931 0.5 L 33.22752139904931 -0.5 L 32.5 -0.5 Z M 68.57127139904931 0.5 L 69.29879279809862 0.5 L 69.29879279809862 3.5 L 76.29879279809862 0 L 69.29879279809862 -3.5 L 69.29879279809862 -0.5 L 68.57127139904931 -0.5 Z"/><text text-anchor="middle" pointer-events="none" font-size="8px" fill="#000000" x="50.89939639904931" y="3" font-family="sans-serif">EMAILS</text></g><g class="relationship" transform="translate(300.8495800572288 274.46604952278983) rotate(196.71577927569086)"><path class="outline" fill="#6DCE9E" stroke="none" d="M 32.5 0.5 L 36.92737543746681 0.5 L 36.92737543746681 -0.5 L 32.5 -0.5 Z M 68.27503168746681 0.5 L 72.70240712493361 0.5 L 72.70240712493361 3.5 L 79.70240712493361 0 L 72.70240712493361 -3.5 L 72.70240712493361 -0.5 L 68.27503168746681 -0.5 Z"/><text text-anchor="middle" pointer-events="none" font-size="8px" fill="#000000" x="52.60120356246681" y="3" transform="rotate(180 52.60120356246681 0)" font-family="sans-serif">CALLS</text></g><g class="relationship" transform="translate(-20.164316647416204 330.23292627250856) rotate(308.7362337165614)"><path class="outline" fill="#FFD86E" stroke="none" d="M 32.5 0.5 L 42.66152505573268 0.5 L 42.66152505573268 -0.5 L 32.5 -0.5 Z M 42.66152505573268 0.5 L 52.82305011146536 0.5 L 52.82305011146536 3.5 L 59.82305011146536 0 L 52.82305011146536 -3.5 L 52.82305011146536 -0.5 L 42.66152505573268 -0.5 Z"/><text text-anchor="middle" pointer-events="none" font-size="8px" fill="#000000" x="42.66152505573268" y="3" font-family="sans-serif"/></g><g class="relationship" transform="translate(-20.164316647416204 330.23292627250856) rotate(277.56301788739034)"><path class="outline" fill="#6DCE9E" stroke="none" d="M 32.5 0.5 L 62.59537073335912 0.5 L 62.59537073335912 -0.5 L 32.5 -0.5 Z M 93.94302698335912 0.5 L 124.03839771671824 0.5 L 124.03839771671824 3.5 L 131.03839771671824 0 L 124.03839771671824 -3.5 L 124.03839771671824 -0.5 L 93.94302698335912 -0.5 Z"/><text text-anchor="middle" pointer-events="none" font-size="8px" fill="#000000" x="78.26919885835912" y="3" font-family="sans-serif">CALLS</text></g><g class="relationship" transform="translate(-20.164316647416204 330.23292627250856) rotate(244.88842559662163)"><path class="outline" fill="#FFD86E" stroke="none" d="M 32.5 0.5 L 67.28718907362233 0.5 L 67.28718907362233 -0.5 L 32.5 -0.5 Z M 100.84578282362233 0.5 L 135.63297189724466 0.5 L 135.63297189724466 3.5 L 142.63297189724466 0 L 135.63297189724466 -3.5 L 135.63297189724466 -0.5 L 100.84578282362233 -0.5 Z"/><text text-anchor="middle" pointer-events="none" font-size="8px" fill="#000000" x="84.06648594862233" y="3" transform="rotate(180 84.06648594862233 0)" font-family="sans-serif">MEETS</text></g><g class="relationship" transform="translate(-20.164316647416204 330.23292627250856) rotate(209.20819197986816)"><path class="outline" fill="#FFD86E" stroke="none" d="M 32.5 0.5 L 36.3923676870155 0.5 L 36.3923676870155 -0.5 L 32.5 -0.5 Z M 69.95096143701551 0.5 L 73.843329124031 0.5 L 73.843329124031 3.5 L 80.843329124031 0 L 73.843329124031 -3.5 L 73.843329124031 -0.5 L 69.95096143701551 -0.5 Z"/><text text-anchor="middle" pointer-events="none" font-size="8px" fill="#000000" x="53.1716645620155" y="3" transform="rotate(180 53.1716645620155 0)" font-family="sans-serif">MEETS</text></g><g class="relationship" transform="translate(-20.164316647416204 330.23292627250856) rotate(535.5818258577301)"><path class="outline" fill="#6DCE9E" stroke="none" d="M 32.5 0.5 L 63.852764796730554 0.5 L 63.852764796730554 -0.5 L 32.5 -0.5 Z M 95.20042104673055 0.5 L 126.55318584346111 0.5 L 126.55318584346111 3.5 L 133.5531858434611 0 L 126.55318584346111 -3.5 L 126.55318584346111 -0.5 L 95.20042104673055 -0.5 Z"/><text text-anchor="middle" pointer-events="none" font-size="8px" fill="#000000" x="79.52659292173055" y="3" transform="rotate(180 79.52659292173055 0)" font-family="sans-serif">CALLS</text></g><g class="relationship" transform="translate(-265.3437906537805 260.43122787909294) rotate(308.5737471839936)"><path class="outline" fill="#68BDF6" stroke="none" d="M 32.5 0.5 L 37.774160026323976 0.5 L 37.774160026323976 -0.5 L 32.5 -0.5 Z M 73.11791002632398 0.5 L 78.39207005264795 0.5 L 78.39207005264795 3.5 L 85.39207005264795 0 L 78.39207005264795 -3.5 L 78.39207005264795 -0.5 L 73.11791002632398 -0.5 Z"/><text text-anchor="middle" pointer-events="none" font-size="8px" fill="#000000" x="55.446035026323976" y="3" font-family="sans-serif">EMAILS</text></g><g class="relationship" transform="translate(-265.3437906537805 260.43122787909294) rotate(332.5432420045745)"><path class="outline" fill="#6DCE9E" stroke="none" d="M 31.26317983184346,-8.894581878976458 L 31.52199887694598,-7.92865605268739 A 245.11904150319648 245.11904150319648 0 0 1 77.10925723238348,-15.629778691819325 L 77.03641826486235,-16.627122406298156 A 246.11904150319648 246.11904150319648 0 0 0 31.26317983184346,-8.894581878976458 Z M 108.42527677515702,-16.912453698841006 L 108.37058047227168,-15.913950662065105 A 245.11904150319648 245.11904150319648 0 0 1 154.0903035907093,-9.042827592161894 L 153.36665321953214,-6.131413822136215 L 161.0042107826321,-7.839545687752754 L 155.05517075227888,-12.924712618862797 L 154.3315203811017,-10.013298848837119 A 246.11904150319648 246.11904150319648 0 0 0 108.42527677515702,-16.912453698841006"/><text text-anchor="middle" pointer-events="none" font-size="8px" fill="#000000" x="92.73083888936115" y="-13.770737496996674" font-family="sans-serif">CALLS</text></g><g class="relationship" transform="translate(-204.88904749245506 58.06887522178641) rotate(466.6332530251311)"><path class="outline" fill="#68BDF6" stroke="none" d="M 32.5 0.5 L 84.42795660936139 0.5 L 84.42795660936139 -0.5 L 32.5 -0.5 Z M 119.77170660936139 0.5 L 171.69966321872278 0.5 L 171.69966321872278 3.5 L 178.69966321872278 0 L 171.69966321872278 -3.5 L 171.69966321872278 -0.5 L 119.77170660936139 -0.5 Z"/><text text-anchor="middle" pointer-events="none" font-size="8px" fill="#000000" x="102.09983160936139" y="3" transform="rotate(180 102.09983160936139 0)" font-family="sans-serif">EMAILS</text></g><g class="relationship" transform="translate(-204.88904749245506 58.06887522178641) rotate(405.8140886367843)"><path class="outline" fill="#68BDF6" stroke="none" d="M 32.5 0.5 L 58.026950744521514 0.5 L 58.026950744521514 -0.5 L 32.5 -0.5 Z M 93.37070074452151 0.5 L 118.89765148904303 0.5 L 118.89765148904303 3.5 L 125.89765148904303 0 L 118.89765148904303 -3.5 L 118.89765148904303 -0.5 L 93.37070074452151 -0.5 Z"/><text text-anchor="middle" pointer-events="none" font-size="8px" fill="#000000" x="75.69882574452151" y="3" font-family="sans-serif">EMAILS</text></g><g class="relationship" transform="translate(-94.48765871032708 171.6529821743956) rotate(312.8844559540159)"><path class="outline" fill="#6DCE9E" stroke="none" d="M 32.5 0.5 L 71.51131180717174 0.5 L 71.51131180717174 -0.5 L 32.5 -0.5 Z M 102.85896805717174 0.5 L 141.87027986434347 0.5 L 141.87027986434347 3.5 L 148.87027986434347 0 L 141.87027986434347 -3.5 L 141.87027986434347 -0.5 L 102.85896805717174 -0.5 Z"/><text text-anchor="middle" pointer-events="none" font-size="8px" fill="#000000" x="87.18513993217174" y="3" font-family="sans-serif">CALLS</text></g><g class="relationship" transform="translate(-94.48765871032708 171.6529821743956) rotate(512.5432420045745)"><path class="outline" fill="#6DCE9E" stroke="none" d="M 31.26317983184346,-8.894581878976458 L 31.52199887694598,-7.92865605268739 A 245.11904150319648 245.11904150319648 0 0 1 77.10925723238348,-15.629778691819325 L 77.03641826486235,-16.627122406298156 A 246.11904150319648 246.11904150319648 0 0 0 31.26317983184346,-8.894581878976458 Z M 108.42527677515702,-16.912453698841006 L 108.37058047227168,-15.913950662065105 A 245.11904150319648 245.11904150319648 0 0 1 154.0903035907093,-9.042827592161894 L 153.36665321953214,-6.131413822136215 L 161.0042107826321,-7.839545687752754 L 155.05517075227888,-12.924712618862797 L 154.3315203811017,-10.013298848837119 A 246.11904150319648 246.11904150319648 0 0 0 108.42527677515702,-16.912453698841006"/><text text-anchor="middle" pointer-events="none" font-size="8px" fill="#000000" x="92.73083888936115" y="-13.770737496996674" transform="rotate(180 92.73083888936115 -16.770737496996674)" font-family="sans-serif">CALLS</text></g><g class="relationship" transform="translate(294.29589646212224 -34.884342209572935) rotate(213.1177004842213)"><path class="outline" fill="#68BDF6" stroke="none" d="M 32.5 0.5 L 53.93981713624616 0.5 L 53.93981713624616 -0.5 L 32.5 -0.5 Z M 89.28356713624616 0.5 L 110.72338427249232 0.5 L 110.72338427249232 3.5 L 117.72338427249232 0 L 110.72338427249232 -3.5 L 110.72338427249232 -0.5 L 89.28356713624616 -0.5 Z"/><text text-anchor="middle" pointer-events="none" font-size="8px" fill="#000000" x="71.61169213624616" y="3" transform="rotate(180 71.61169213624616 0)" font-family="sans-serif">EMAILS</text></g><g class="relationship" transform="translate(313.67235112440534 166.42553001051436) rotate(399.7305547356399)"><path class="outline" fill="#6DCE9E" stroke="none" d="M 32.5 0.5 L 50.06790379828004 0.5 L 50.06790379828004 -0.5 L 32.5 -0.5 Z M 81.41556004828004 0.5 L 98.98346384656008 0.5 L 98.98346384656008 3.5 L 105.98346384656008 0 L 98.98346384656008 -3.5 L 98.98346384656008 -0.5 L 81.41556004828004 -0.5 Z"/><text text-anchor="middle" pointer-events="none" font-size="8px" fill="#000000" x="65.74173192328004" y="3" font-family="sans-serif">CALLS</text></g><g class="relationship" transform="translate(313.67235112440534 166.42553001051436) rotate(507.79263958856694)"><path class="outline" fill="#68BDF6" stroke="none" d="M 32.5 0.5 L 49.907409372193754 0.5 L 49.907409372193754 -0.5 L 32.5 -0.5 Z M 85.25115937219375 0.5 L 102.65856874438751 0.5 L 102.65856874438751 3.5 L 109.65856874438751 0 L 102.65856874438751 -3.5 L 102.65856874438751 -0.5 L 85.25115937219375 -0.5 Z"/><text text-anchor="middle" pointer-events="none" font-size="8px" fill="#000000" x="67.57928437219375" y="3" transform="rotate(180 67.57928437219375 0)" font-family="sans-serif">EMAILS</text></g><g class="relationship" transform="translate(125.61169403408277 290.5327182856737) rotate(354.7614877179169)"><path class="outline" fill="#6DCE9E" stroke="none" d="M 32.5 0.5 L 68.81261194248619 0.5 L 68.81261194248619 -0.5 L 32.5 -0.5 Z M 100.16026819248619 0.5 L 136.47288013497237 0.5 L 136.47288013497237 3.5 L 143.47288013497237 0 L 136.47288013497237 -3.5 L 136.47288013497237 -0.5 L 100.16026819248619 -0.5 Z"/><text text-anchor="middle" pointer-events="none" font-size="8px" fill="#000000" x="84.48644006748619" y="3" font-family="sans-serif">CALLS</text></g><g class="relationship" transform="translate(125.61169403408277 290.5327182856737) rotate(397.1809694087579)"><path class="outline" fill="#68BDF6" stroke="none" d="M 31.26317983184346,-8.894581878976458 L 31.52199887694598,-7.92865605268739 A 120.14442286074267 120.14442286074267 0 0 1 43.49905041615437,-10.49154918029896 L 43.3399201560493,-11.478806776025067 A 121.14442286074267 121.14442286074267 0 0 0 31.26317983184346,-8.894581878976458 Z M 78.70022950916334,-11.950209544524057 L 78.56747419568518,-10.959060702652494 A 120.14442286074267 120.14442286074267 0 0 1 90.60859102653531,-8.71636361605557 L 89.90965902410298,-5.7989171202349645 L 97.53245485052211,-7.57176335968357 L 91.54050036311176,-12.606292277149713 L 90.84156836067943,-9.688845781329107 A 121.14442286074267 121.14442286074267 0 0 0 78.70022950916334,-11.950209544524057"/><text text-anchor="middle" pointer-events="none" font-size="8px" fill="#000000" x="61.009446360926106" y="-9.51175856200554" font-family="sans-serif">EMAILS</text></g><g class="relationship" transform="translate(193.38847421882582 242.19391143717638) rotate(534.1272146871627)"><path class="outline" fill="#6DCE9E" stroke="none" d="M 31.26317983184346,-8.894581878976458 L 31.52199887694598,-7.92865605268739 A 174.52845344462736 174.52845344462736 0 0 1 59.158426595538,-12.99247170193965 L 59.05795667445015,-13.987411798104546 A 175.52845344462736 175.52845344462736 0 0 0 31.26317983184346,-8.894581878976458 Z M 90.45123245017591,-14.335563332699365 L 90.37285230359863,-13.33863978867879 A 174.52845344462736 174.52845344462736 0 0 1 118.1147846041286,-8.888970339451607 L 117.40278325570837,-5.974685850962578 L 125.03344863533971,-7.713347941219226 L 119.06411973535559,-12.774682990770314 L 118.35211838693536,-9.860398502281285 A 175.52845344462736 175.52845344462736 0 0 0 90.45123245017591,-14.335563332699365"/><text text-anchor="middle" pointer-events="none" font-size="8px" fill="#000000" x="74.75233975274905" y="-11.364806670532715" transform="rotate(180 74.75233975274905 -14.364806670532715)" font-family="sans-serif">CALLS</text></g><g class="relationship" transform="translate(193.38847421882582 242.19391143717638) rotate(434.47354318582074)"><path class="outline" fill="#6DCE9E" stroke="none" d="M 32.5 0.5 L 46.410251602445754 0.5 L 46.410251602445754 -0.5 L 32.5 -0.5 Z M 77.75790785244575 0.5 L 91.66815945489151 0.5 L 91.66815945489151 3.5 L 98.66815945489151 0 L 91.66815945489151 -3.5 L 91.66815945489151 -0.5 L 77.75790785244575 -0.5 Z"/><text text-anchor="middle" pointer-events="none" font-size="8px" fill="#000000" x="62.084079727445754" y="3" font-family="sans-serif">CALLS</text></g><g class="relationship" transform="translate(228.50000158915824 368.5753448065849) rotate(307.5524522101587)"><path class="outline" fill="#68BDF6" stroke="none" d="M 32.5 0.5 L 38.18092814214324 0.5 L 38.18092814214324 -0.5 L 32.5 -0.5 Z M 73.52467814214324 0.5 L 79.20560628428647 0.5 L 79.20560628428647 3.5 L 86.20560628428647 0 L 79.20560628428647 -3.5 L 79.20560628428647 -0.5 L 73.52467814214324 -0.5 Z"/><text text-anchor="middle" pointer-events="none" font-size="8px" fill="#000000" x="55.85280314214324" y="3" font-family="sans-serif">EMAILS</text></g><g class="relationship" transform="translate(228.50000158915824 368.5753448065849) rotate(217.1809694087579)"><path class="outline" fill="#68BDF6" stroke="none" d="M 31.26317983184346,-8.894581878976458 L 31.52199887694598,-7.92865605268739 A 120.14442286074267 120.14442286074267 0 0 1 43.49905041615437,-10.49154918029896 L 43.3399201560493,-11.478806776025067 A 121.14442286074267 121.14442286074267 0 0 0 31.26317983184346,-8.894581878976458 Z M 78.70022950916334,-11.950209544524057 L 78.56747419568518,-10.959060702652494 A 120.14442286074267 120.14442286074267 0 0 1 90.60859102653531,-8.71636361605557 L 89.90965902410298,-5.7989171202349645 L 97.53245485052211,-7.57176335968357 L 91.54050036311176,-12.606292277149713 L 90.84156836067943,-9.688845781329107 A 121.14442286074267 121.14442286074267 0 0 0 78.70022950916334,-11.950209544524057"/><text text-anchor="middle" pointer-events="none" font-size="8px" fill="#000000" x="61.009446360926106" y="-9.51175856200554" transform="rotate(180 61.009446360926106 -12.51175856200554)" font-family="sans-serif">EMAILS</text></g><g class="relationship" transform="translate(-119.0963039342016 274.92314279430514) rotate(185.65906312559594)"><path class="outline" fill="#6DCE9E" stroke="none" d="M 32.5 0.5 L 54.3080454386605 0.5 L 54.3080454386605 -0.5 L 32.5 -0.5 Z M 85.6557016886605 0.5 L 107.463747127321 0.5 L 107.463747127321 3.5 L 114.463747127321 0 L 107.463747127321 -3.5 L 107.463747127321 -0.5 L 85.6557016886605 -0.5 Z"/><text text-anchor="middle" pointer-events="none" font-size="8px" fill="#000000" x="69.9818735636605" y="3" transform="rotate(180 69.9818735636605 0)" font-family="sans-serif">CALLS</text></g><g class="relationship" transform="translate(-119.0963039342016 274.92314279430514) rotate(283.4032669570821)"><path class="outline" fill="#FFD86E" stroke="none" d="M 32.5 0.5 L 32.801564775449016 0.5 L 32.801564775449016 -0.5 L 32.5 -0.5 Z M 66.36015852544901 0.5 L 66.66172330089803 0.5 L 66.66172330089803 3.5 L 73.66172330089803 0 L 66.66172330089803 -3.5 L 66.66172330089803 -0.5 L 66.36015852544901 -0.5 Z"/><text text-anchor="middle" pointer-events="none" font-size="8px" fill="#000000" x="49.580861650449016" y="3" font-family="sans-serif">MEETS</text></g></g><g class="layer nodes"><g class="node" transform="translate(-191.8355573636315,168.26247059193255)"><circle class="outline" cx="0" cy="0" r="32.5" fill="#FF756E" stroke="#E06760" stroke-width="2px"/><text text-anchor="middle" pointer-events="none" font-family="sans-serif" dy="2.03125" font-size="32.5" fill="#FFFFFF"/><text text-anchor="middle" pointer-events="none" font-family="sans-serif" dy="2.03125" font-size="32.5" fill="#FFFFFF"/><text text-anchor="middle" pointer-events="none" y="0" font-size="10px" fill="#FFFFFF" font-family="sans-serif"> Refugio</text><text text-anchor="middle" pointer-events="none" y="10" font-size="10px" fill="#FFFFFF" font-family="sans-serif"> Orrantia</text></g><g class="node" transform="translate(-119.0963039342016,274.92314279430514)"><circle class="outline" cx="0" cy="0" r="32.5" fill="#FF756E" stroke="#E06760" stroke-width="2px"/><text text-anchor="middle" pointer-events="none" font-family="sans-serif" dy="2.03125" font-size="32.5" fill="#FFFFFF"/><text text-anchor="middle" pointer-events="none" y="5" font-size="10px" fill="#FFFFFF" font-family="sans-serif"> Julie Tierno</text></g><g class="node" transform="translate(-185.72405334715933,343.024881270661)"><circle class="outline" cx="0" cy="0" r="32.5" fill="#FF756E" stroke="#E06760" stroke-width="2px"/><text text-anchor="middle" pointer-events="none" font-family="sans-serif" dy="2.03125" font-size="32.5" fill="#FFFFFF"/><text text-anchor="middle" pointer-events="none" y="5" font-size="10px" fill="#FFFFFF" font-family="sans-serif"> Martha Harris</text></g><g class="node" transform="translate(416.2375734749758,160.06789897201563)"><circle class="outline" cx="0" cy="0" r="32.5" fill="#FF756E" stroke="#E06760" stroke-width="2px"/><text text-anchor="middle" pointer-events="none" font-family="sans-serif" dy="2.03125" font-size="32.5" fill="#FFFFFF"/><text text-anchor="middle" pointer-events="none" font-family="sans-serif" dy="2.03125" font-size="32.5" fill="#FFFFFF"/><text text-anchor="middle" pointer-events="none" y="0" font-size="10px" fill="#FFFFFF" font-family="sans-serif"> Melita</text><text text-anchor="middle" pointer-events="none" y="10" font-size="10px" fill="#FFFFFF" font-family="sans-serif"> Scarpaci</text></g><g class="node" transform="translate(300.8495800572288,274.46604952278983)"><circle class="outline" cx="0" cy="0" r="32.5" fill="#FF756E" stroke="#E06760" stroke-width="2px"/><text text-anchor="middle" pointer-events="none" font-family="sans-serif" dy="2.03125" font-size="32.5" fill="#FFFFFF"/><text text-anchor="middle" pointer-events="none" font-family="sans-serif" dy="2.03125" font-size="32.5" fill="#FFFFFF"/><text text-anchor="middle" pointer-events="none" y="0" font-size="10px" fill="#FFFFFF" font-family="sans-serif"> Sheilah</text><text text-anchor="middle" pointer-events="none" y="10" font-size="10px" fill="#FFFFFF" font-family="sans-serif"> Stachniw</text></g><g class="node" transform="translate(313.67235112440534,166.42553001051436)"><circle class="outline" cx="0" cy="0" r="32.5" fill="#FF756E" stroke="#E06760" stroke-width="2px"/><text text-anchor="middle" pointer-events="none" font-family="sans-serif" dy="2.03125" font-size="32.5" fill="#FFFFFF"/><text text-anchor="middle" pointer-events="none" y="5" font-size="10px" fill="#FFFFFF" font-family="sans-serif"> Dylan Ballard</text></g><g class="node" transform="translate(37.605546235437224,258.21772979023507)"><circle class="outline" cx="0" cy="0" r="32.5" fill="#FF756E" stroke="#E06760" stroke-width="2px"/><text text-anchor="middle" pointer-events="none" font-family="sans-serif" dy="2.03125" font-size="32.5" fill="#FFFFFF"/><text text-anchor="middle" pointer-events="none" font-family="sans-serif" dy="2.03125" font-size="32.5" fill="#FFFFFF"/><text text-anchor="middle" pointer-events="none" y="0" font-size="10px" fill="#FFFFFF" font-family="sans-serif"> Madeline</text><text text-anchor="middle" pointer-events="none" y="10" font-size="10px" fill="#FFFFFF" font-family="sans-serif"> Nindorf</text></g><g class="node" transform="translate(135.31831034568046,80.06972797432459)"><circle class="outline" cx="0" cy="0" r="32.5" fill="#FF756E" stroke="#E06760" stroke-width="2px"/><text text-anchor="middle" pointer-events="none" font-family="sans-serif" dy="2.03125" font-size="32.5" fill="#FFFFFF"/><text text-anchor="middle" pointer-events="none" font-family="sans-serif" dy="2.03125" font-size="32.5" fill="#FFFFFF"/><text text-anchor="middle" pointer-events="none" y="0" font-size="10px" fill="#FFFFFF" font-family="sans-serif"> Lizbeth</text><text text-anchor="middle" pointer-events="none" y="10" font-size="10px" fill="#FFFFFF" font-family="sans-serif"> Jindra</text></g><g class="node" transform="translate(-94.48765871032708,171.6529821743956)"><circle class="outline" cx="0" cy="0" r="32.5" fill="#FF756E" stroke="#E06760" stroke-width="2px"/><text text-anchor="middle" pointer-events="none" font-family="sans-serif" dy="2.03125" font-size="32.5" fill="#FFFFFF"/><text text-anchor="middle" pointer-events="none" font-family="sans-serif" dy="2.03125" font-size="32.5" fill="#FFFFFF"/><text text-anchor="middle" pointer-events="none" y="0" font-size="10px" fill="#FFFFFF" font-family="sans-serif"> Sherrell</text><text text-anchor="middle" pointer-events="none" y="10" font-size="10px" fill="#FFFFFF" font-family="sans-serif"> Biebel</text></g><g class="node" transform="translate(193.38847421882582,242.19391143717638)"><circle class="outline" cx="0" cy="0" r="32.5" fill="#FF756E" stroke="#E06760" stroke-width="2px"/><text text-anchor="middle" pointer-events="none" font-family="sans-serif" dy="2.03125" font-size="32.5" fill="#FFFFFF"/><text text-anchor="middle" pointer-events="none" font-family="sans-serif" dy="2.03125" font-size="32.5" fill="#FFFFFF"/><text text-anchor="middle" pointer-events="none" y="0" font-size="10px" fill="#FFFFFF" font-family="sans-serif"> Meryl</text><text text-anchor="middle" pointer-events="none" y="10" font-size="10px" fill="#FFFFFF" font-family="sans-serif"> Pastuch</text></g><g class="node" transform="translate(420.17427807732514,254.9411179837999)"><circle class="outline" cx="0" cy="0" r="32.5" fill="#FF756E" stroke="#E06760" stroke-width="2px"/><text text-anchor="middle" pointer-events="none" font-family="sans-serif" dy="2.03125" font-size="32.5" fill="#FFFFFF"/><text text-anchor="middle" pointer-events="none" font-family="sans-serif" dy="2.03125" font-size="32.5" fill="#FFFFFF"/><text text-anchor="middle" pointer-events="none" y="0" font-size="10px" fill="#FFFFFF" font-family="sans-serif"> Augusta</text><text text-anchor="middle" pointer-events="none" y="10" font-size="10px" fill="#FFFFFF" font-family="sans-serif"> Sharp</text></g><g class="node" transform="translate(216.4459301056503,10.917233604375923)"><circle class="outline" cx="0" cy="0" r="32.5" fill="#FF756E" stroke="#E06760" stroke-width="2px"/><text text-anchor="middle" pointer-events="none" font-family="sans-serif" dy="2.03125" font-size="32.5" fill="#FFFFFF"/><text text-anchor="middle" pointer-events="none" y="5" font-size="10px" fill="#FFFFFF" font-family="sans-serif"> Alex Hall</text></g><g class="node" transform="translate(80.08604078363817,-63.1010170884571)"><circle class="outline" cx="0" cy="0" r="32.5" fill="#FF756E" stroke="#E06760" stroke-width="2px"/><text text-anchor="middle" pointer-events="none" font-family="sans-serif" dy="2.03125" font-size="32.5" fill="#FFFFFF"/><text text-anchor="middle" pointer-events="none" y="5" font-size="10px" fill="#FFFFFF" font-family="sans-serif"> Glen Grant</text></g><g class="node" transform="translate(-110.94652936255181,5.434586702857473)"><circle class="outline" cx="0" cy="0" r="32.5" fill="#FF756E" stroke="#E06760" stroke-width="2px"/><text text-anchor="middle" pointer-events="none" font-family="sans-serif" dy="2.03125" font-size="32.5" fill="#FFFFFF"/><text text-anchor="middle" pointer-events="none" font-family="sans-serif" dy="2.03125" font-size="32.5" fill="#FFFFFF"/><text text-anchor="middle" pointer-events="none" y="0" font-size="10px" fill="#FFFFFF" font-family="sans-serif"> Jose</text><text text-anchor="middle" pointer-events="none" y="10" font-size="10px" fill="#FFFFFF" font-family="sans-serif"> Ringwald</text></g><g class="node" transform="translate(1.3600468362259754,168.11719815097322)"><circle class="outline" cx="0" cy="0" r="32.5" fill="#FF756E" stroke="#E06760" stroke-width="2px"/><text text-anchor="middle" pointer-events="none" font-family="sans-serif" dy="2.03125" font-size="32.5" fill="#FFFFFF"/><text text-anchor="middle" pointer-events="none" font-family="sans-serif" dy="2.03125" font-size="32.5" fill="#FFFFFF"/><text text-anchor="middle" pointer-events="none" y="0" font-size="10px" fill="#FFFFFF" font-family="sans-serif"> Kerstin</text><text text-anchor="middle" pointer-events="none" y="10" font-size="10px" fill="#FFFFFF" font-family="sans-serif"> Belveal</text></g><g class="node" transform="translate(28.93882662473966,38.757981757138246)"><circle class="outline" cx="0" cy="0" r="32.5" fill="#FF756E" stroke="#E06760" stroke-width="2px"/><text text-anchor="middle" pointer-events="none" font-family="sans-serif" dy="2.03125" font-size="32.5" fill="#FFFFFF"/><text text-anchor="middle" pointer-events="none" y="5" font-size="10px" fill="#FFFFFF" font-family="sans-serif"> Ramiro Gault</text></g><g class="node" transform="translate(125.61169403408277,290.5327182856737)"><circle class="outline" cx="0" cy="0" r="32.5" fill="#FF756E" stroke="#E06760" stroke-width="2px"/><text text-anchor="middle" pointer-events="none" font-family="sans-serif" dy="2.03125" font-size="32.5" fill="#FFFFFF"/><text text-anchor="middle" pointer-events="none" font-family="sans-serif" dy="2.03125" font-size="32.5" fill="#FFFFFF"/><text text-anchor="middle" pointer-events="none" y="0" font-size="10px" fill="#FFFFFF" font-family="sans-serif"> Lindsy</text><text text-anchor="middle" pointer-events="none" y="10" font-size="10px" fill="#FFFFFF" font-family="sans-serif"> Henion</text></g><g class="node" transform="translate(-20.164316647416204,330.23292627250856)"><circle class="outline" cx="0" cy="0" r="32.5" fill="#FF756E" stroke="#E06760" stroke-width="2px"/><text text-anchor="middle" pointer-events="none" font-family="sans-serif" dy="2.03125" font-size="32.5" fill="#FFFFFF"/><text text-anchor="middle" pointer-events="none" y="5" font-size="10px" fill="#FFFFFF" font-family="sans-serif"> Richard Fox</text></g><g class="node" transform="translate(-265.3437906537805,260.43122787909294)"><circle class="outline" cx="0" cy="0" r="32.5" fill="#FF756E" stroke="#E06760" stroke-width="2px"/><text text-anchor="middle" pointer-events="none" font-family="sans-serif" dy="2.03125" font-size="32.5" fill="#FFFFFF"/><text text-anchor="middle" pointer-events="none" y="5" font-size="10px" fill="#FFFFFF" font-family="sans-serif"> Ferne Hards</text></g><g class="node" transform="translate(-204.88904749245506,58.06887522178641)"><circle class="outline" cx="0" cy="0" r="32.5" fill="#FF756E" stroke="#E06760" stroke-width="2px"/><text text-anchor="middle" pointer-events="none" font-family="sans-serif" dy="2.03125" font-size="32.5" fill="#FFFFFF"/><text text-anchor="middle" pointer-events="none" y="5" font-size="10px" fill="#FFFFFF" font-family="sans-serif"> Tobi Gatlin</text></g><g class="node" transform="translate(294.29589646212224,-34.884342209572935)"><circle class="outline" cx="0" cy="0" r="32.5" fill="#FF756E" stroke="#E06760" stroke-width="2px"/><text text-anchor="middle" pointer-events="none" font-family="sans-serif" dy="2.03125" font-size="32.5" fill="#FFFFFF"/><text text-anchor="middle" pointer-events="none" y="5" font-size="10px" fill="#FFFFFF" font-family="sans-serif"> Patrick Lane</text></g><g class="node" transform="translate(168.47630570803977,-116.96050053070843)"><circle class="outline" cx="0" cy="0" r="32.5" fill="#FF756E" stroke="#E06760" stroke-width="2px"/><text text-anchor="middle" pointer-events="none" font-family="sans-serif" dy="2.03125" font-size="32.5" fill="#FFFFFF"/><text text-anchor="middle" pointer-events="none" y="5" font-size="10px" fill="#FFFFFF" font-family="sans-serif"> Sara Ballard</text></g><g class="node" transform="translate(228.50000158915824,368.5753448065849)"><circle class="outline" cx="0" cy="0" r="32.5" fill="#FF756E" stroke="#E06760" stroke-width="2px"/><text text-anchor="middle" pointer-events="none" font-family="sans-serif" dy="2.03125" font-size="32.5" fill="#FFFFFF"/><text text-anchor="middle" pointer-events="none" font-family="sans-serif" dy="2.03125" font-size="32.5" fill="#FFFFFF"/><text text-anchor="middle" pointer-events="none" y="0" font-size="10px" fill="#FFFFFF" font-family="sans-serif"> Rosalia</text><text text-anchor="middle" pointer-events="none" y="10" font-size="10px" fill="#FFFFFF" font-family="sans-serif"> Larroque</text></g></g></svg>