<svg xmlns="http://www.w3.org/2000/svg" width="619.1198120117188" height="626.0947265625" viewBox="-218.7825469970703 -216.61245727539062 619.1198120117188 626.0947265625"><title>Neo4j Graph Visualization</title><desc>Created using Neo4j (http://www.neo4j.com/)</desc><g class="layer relationships"><g class="relationship" transform="translate(238.41825242389453 372.98223068551005) rotate(306.1942625724807)"><path class="outline" fill="#6DCE9E" stroke="none" d="M 32.5 0.5 L 41.74879546812884 0.5 L 41.74879546812884 -0.5 L 32.5 -0.5 Z M 73.09645171812883 0.5 L 82.34524718625768 0.5 L 82.34524718625768 3.5 L 89.34524718625768 0 L 82.34524718625768 -3.5 L 82.34524718625768 -0.5 L 73.09645171812883 -0.5 Z"/><text text-anchor="middle" pointer-events="none" font-size="8px" fill="#000000" x="57.42262359312884" y="3" font-family="sans-serif">CALLS</text></g><g class="relationship" transform="translate(277.1731852407143 -74.78051578065326) rotate(466.59235923035595)"><path class="outline" fill="#6DCE9E" stroke="none" d="M 32.5 0.5 L 43.18891579983536 0.5 L 43.18891579983536 -0.5 L 32.5 -0.5 Z M 74.53657204983536 0.5 L 85.22548784967071 0.5 L 85.22548784967071 3.5 L 92.22548784967071 0 L 85.22548784967071 -3.5 L 85.22548784967071 -0.5 L 74.53657204983536 -0.5 Z"/><text text-anchor="middle" pointer-events="none" font-size="8px" fill="#000000" x="58.86274392483536" y="3" transform="rotate(180 58.86274392483536 0)" font-family="sans-serif">CALLS</text></g><g class="relationship" transform="translate(-99.66563151504475 139.66157872776822) rotate(465.817384601233)"><path class="outline" fill="#6DCE9E" stroke="none" d="M 32.5 0.5 L 40.68511864979217 0.5 L 40.68511864979217 -0.5 L 32.5 -0.5 Z M 72.03277489979217 0.5 L 80.21789354958435 0.5 L 80.21789354958435 3.5 L 87.21789354958435 0 L 80.21789354958435 -3.5 L 80.21789354958435 -0.5 L 72.03277489979217 -0.5 Z"/><text text-anchor="middle" pointer-events="none" font-size="8px" fill="#000000" x="56.35894677479217" y="3" transform="rotate(180 56.35894677479217 0)" font-family="sans-serif">CALLS</text></g><g class="relationship" transform="translate(23.426447549828527 -180.11246412795418) rotate(451.7285550101185)"><path class="outline" fill="#68BDF6" stroke="none" d="M 32.5 0.5 L 38.33459067468432 0.5 L 38.33459067468432 -0.5 L 32.5 -0.5 Z M 73.67834067468432 0.5 L 79.51293134936864 0.5 L 79.51293134936864 3.5 L 86.51293134936864 0 L 79.51293134936864 -3.5 L 79.51293134936864 -0.5 L 73.67834067468432 -0.5 Z"/><text text-anchor="middle" pointer-events="none" font-size="8px" fill="#000000" x="56.00646567468432" y="3" transform="rotate(180 56.00646567468432 0)" font-family="sans-serif">EMAILS</text></g><g class="relationship" transform="translate(135.15009462972972 -19.36024103764223) rotate(391.06970020299866)"><path class="outline" fill="#6DCE9E" stroke="none" d="M 27.89582562299426,-16.683012701892217 L 28.39582562299426,-15.816987298107778 A 63.379464989506715 63.379464989506715 0 0 1 43.04455898262742,-21.97432492187891 L 42.77568642054534,-22.937500682246366 A 64.37946498950672 64.37946498950672 0 0 0 27.89582562299426,-16.683012701892217 Z M 74.04137617704615,-23.77739341690669 L 73.82460180556647,-22.80117168396402 A 63.379464989506715 63.379464989506715 0 0 1 88.78278018512869,-17.439166907769348 L 87.42442750391882,-14.76430653880614 L 95.2505131595778,-14.715487379773531 L 90.59391709340849,-21.005647399720285 L 89.23556441219863,-18.33078703075708 A 64.37946498950672 64.37946498950672 0 0 0 74.04137617704615,-23.77739341690669"/><text text-anchor="middle" pointer-events="none" font-size="8px" fill="#000000" x="58.37017773915181" y="-21.785189483102528" font-family="sans-serif">CALLS</text></g><g class="relationship" transform="translate(135.15009462972972 -19.36024103764223) rotate(391.06970020299866)"><path class="outline" fill="#68BDF6" stroke="none" d="M 32.5 0.5 L 40.942208578339596 0.5 L 40.942208578339596 -0.5 L 32.5 -0.5 Z M 76.2859585783396 0.5 L 84.72816715667919 0.5 L 84.72816715667919 3.5 L 91.72816715667919 0 L 84.72816715667919 -3.5 L 84.72816715667919 -0.5 L 76.2859585783396 -0.5 Z"/><text text-anchor="middle" pointer-events="none" font-size="8px" fill="#000000" x="58.614083578339596" y="3" font-family="sans-serif">EMAILS</text></g><g class="relationship" transform="translate(310.37089972549074 274.6507463675545) rotate(239.96662962981242)"><path class="outline" fill="#FFD86E" stroke="none" d="M 32.5 0.5 L 41.05918578058918 0.5 L 41.05918578058918 -0.5 L 32.5 -0.5 Z M 74.61777953058919 0.5 L 83.17696531117836 0.5 L 83.17696531117836 3.5 L 90.17696531117836 0 L 83.17696531117836 -3.5 L 83.17696531117836 -0.5 L 74.61777953058919 -0.5 Z"/><text text-anchor="middle" pointer-events="none" font-size="8px" fill="#000000" x="57.83848265558918" y="3" transform="rotate(180 57.83848265558918 0)" font-family="sans-serif">MEETS</text></g><g class="relationship" transform="translate(19.83649388720949 -61.153689499641104) rotate(379.92218507895126)"><path class="outline" fill="#FFD86E" stroke="none" d="M 32.5 0.5 L 41.04753014741964 0.5 L 41.04753014741964 -0.5 L 32.5 -0.5 Z M 74.60612389741965 0.5 L 83.15365404483929 0.5 L 83.15365404483929 3.5 L 90.15365404483929 0 L 83.15365404483929 -3.5 L 83.15365404483929 -0.5 L 74.60612389741965 -0.5 Z"/><text text-anchor="middle" pointer-events="none" font-size="8px" fill="#000000" x="57.82682702241964" y="3" font-family="sans-serif">MEETS</text></g><g class="relationship" transform="translate(-65.89386136294779 23.19689990530008) rotate(466.17080365607984)"><path class="outline" fill="#68BDF6" stroke="none" d="M 32.5 0.5 L 39.45929246448711 0.5 L 39.45929246448711 -0.5 L 32.5 -0.5 Z M 74.8030424644871 0.5 L 81.76233492897423 0.5 L 81.76233492897423 3.5 L 88.76233492897423 0 L 81.76233492897423 -3.5 L 81.76233492897423 -0.5 L 74.8030424644871 -0.5 Z"/><text text-anchor="middle" pointer-events="none" font-size="8px" fill="#000000" x="57.13116746448711" y="3" transform="rotate(180 57.13116746448711 0)" font-family="sans-serif">EMAILS</text></g><g class="relationship" transform="translate(-65.89386136294779 23.19689990530008) rotate(315.4647964864484)"><path class="outline" fill="#68BDF6" stroke="none" d="M 32.5 0.5 L 38.96279832637458 0.5 L 38.96279832637458 -0.5 L 32.5 -0.5 Z M 74.30654832637458 0.5 L 80.76934665274916 0.5 L 80.76934665274916 3.5 L 87.76934665274916 0 L 80.76934665274916 -3.5 L 80.76934665274916 -0.5 L 74.30654832637458 -0.5 Z"/><text text-anchor="middle" pointer-events="none" font-size="8px" fill="#000000" x="56.63467332637458" y="3" font-family="sans-serif">EMAILS</text></g><g class="relationship" transform="translate(248.97055007819728 168.44512089907866) rotate(516.1192978232511)"><path class="outline" fill="#FFD86E" stroke="none" d="M 32.5 0.5 L 42.629151647782344 0.5 L 42.629151647782344 -0.5 L 32.5 -0.5 Z M 76.18774539778235 0.5 L 86.31689704556469 0.5 L 86.31689704556469 3.5 L 93.31689704556469 0 L 86.31689704556469 -3.5 L 86.31689704556469 -0.5 L 76.18774539778235 -0.5 Z"/><text text-anchor="middle" pointer-events="none" font-size="8px" fill="#000000" x="59.408448522782344" y="3" transform="rotate(180 59.408448522782344 0)" font-family="sans-serif">MEETS</text></g><g class="relationship" transform="translate(248.97055007819728 168.44512089907866) rotate(266.56986463287427)"><path class="outline" fill="#FFD86E" stroke="none" d="M 32.5 0.5 L 41.67851837773748 0.5 L 41.67851837773748 -0.5 L 32.5 -0.5 Z M 75.23711212773748 0.5 L 84.41563050547497 0.5 L 84.41563050547497 3.5 L 91.41563050547497 0 L 84.41563050547497 -3.5 L 84.41563050547497 -0.5 L 75.23711212773748 -0.5 Z"/><text text-anchor="middle" pointer-events="none" font-size="8px" fill="#000000" x="58.45781525273748" y="3" transform="rotate(180 58.45781525273748 0)" font-family="sans-serif">MEETS</text></g><g class="relationship" transform="translate(241.55650430622717 44.75148561875985) rotate(211.06970020299866)"><path class="outline" fill="#68BDF6" stroke="none" d="M 27.89582562299426,-16.683012701892217 L 28.39582562299426,-15.816987298107778 A 63.379464989506715 63.379464989506715 0 0 1 41.14379853076772,-21.411537642044117 L 40.84493580622254,-22.365833755353513 A 64.37946498950672 64.37946498950672 0 0 0 27.89582562299426,-16.683012701892217 Z M 76.00003356612172,-23.310207969540606 L 75.75283555894711,-22.34124298294465 A 63.379464989506715 63.379464989506715 0 0 1 88.78278018512869,-17.439166907769348 L 87.42442750391882,-14.76430653880614 L 95.2505131595778,-14.715487379773531 L 90.59391709340849,-21.005647399720285 L 89.23556441219863,-18.33078703075708 A 64.37946498950672 64.37946498950672 0 0 0 76.00003356612172,-23.310207969540606"/><text text-anchor="middle" pointer-events="none" font-size="8px" fill="#000000" x="58.37017773915181" y="-21.785189483102528" transform="rotate(180 58.37017773915181 -24.785189483102528)" font-family="sans-serif">EMAILS</text></g><g class="relationship" transform="translate(241.55650430622717 44.75148561875985) rotate(356.8458343409575)"><path class="outline" fill="#6DCE9E" stroke="none" d="M 31.26317983184346,-8.894581878976458 L 31.52199887694598,-7.92865605268739 A 106.84455329856138 106.84455329856138 0 0 1 42.1496438952951,-10.204039444001964 L 41.990293140248056,-11.191261474178532 A 107.84455329856138 107.84455329856138 0 0 0 31.26317983184346,-8.894581878976458 Z M 73.36909092130219,-11.631182708108966 L 73.23747846289714,-10.639881461871184 A 106.84455329856138 106.84455329856138 0 0 1 83.92473436789578,-8.663326520924015 L 83.22981835764342,-5.744920836531431 L 90.85016696652053,-7.528256777733931 L 84.85128904823226,-12.554534100114125 L 84.1563730379799,-9.636128415721542 A 107.84455329856138 107.84455329856138 0 0 0 73.36909092130219,-11.631182708108966"/><text text-anchor="middle" pointer-events="none" font-size="8px" fill="#000000" x="57.670613912555346" y="-9.058748088708285" font-family="sans-serif">CALLS</text></g><g class="relationship" transform="translate(241.55650430622717 44.75148561875985) rotate(356.8458343409575)"><path class="outline" fill="#FB95AF" stroke="none" d="M 29.710265561228333,14.690136836710867 L 33.074913147561105,2.1331010949529796 A 83.61872680225407 83.61872680225407 0 0 0 70.6721671807925,3.44604224407305 L 70.0997427148957,0.5011602038475385 L 90.56333977833046,6.201265047215287 L 73.7250976655754,19.15207979194244 L 73.1526731996786,16.207197751716933 A 96.61872680225407 96.61872680225407 0 0 1 29.710265561228333,14.690136836710867"/><text text-anchor="middle" pointer-events="none" font-size="8px" fill="#FFFFFF" x="51.57189542398225" y="14.427440878261137" font-family="sans-serif">PURC…</text></g><g class="relationship" transform="translate(47.99882802853672 308.6269255163002) rotate(313.9139161715686)"><path class="outline" fill="#68BDF6" stroke="none" d="M 32.5 0.5 L 40.772211212284034 0.5 L 40.772211212284034 -0.5 L 32.5 -0.5 Z M 76.11596121228403 0.5 L 84.38817242456807 0.5 L 84.38817242456807 3.5 L 91.38817242456807 0 L 84.38817242456807 -3.5 L 84.38817242456807 -0.5 L 76.11596121228403 -0.5 Z"/><text text-anchor="middle" pointer-events="none" font-size="8px" fill="#000000" x="58.444086212284034" y="3" font-family="sans-serif">EMAILS</text></g><g class="relationship" transform="translate(-182.28254206667822 2.3585971283649525) rotate(370.15072207215314)"><path class="outline" fill="#68BDF6" stroke="none" d="M 32.5 0.5 L 37.94783376657406 0.5 L 37.94783376657406 -0.5 L 32.5 -0.5 Z M 73.29158376657406 0.5 L 78.73941753314811 0.5 L 78.73941753314811 3.5 L 85.73941753314811 0 L 78.73941753314811 -3.5 L 78.73941753314811 -0.5 L 73.29158376657406 -0.5 Z"/><text text-anchor="middle" pointer-events="none" font-size="8px" fill="#000000" x="55.61970876657406" y="3" font-family="sans-serif">EMAILS</text></g></g><g class="layer nodes"><g class="node" transform="translate(238.41825242389453,372.98223068551005)"><circle class="outline" cx="0" cy="0" r="32.5" fill="#FF756E" stroke="#E06760" stroke-width="2px"/><text text-anchor="middle" pointer-events="none" font-family="sans-serif" dy="2.03125" font-size="32.5" fill="#FFFFFF"/><text text-anchor="middle" pointer-events="none" font-family="sans-serif" dy="2.03125" font-size="32.5" fill="#FFFFFF"/><text text-anchor="middle" pointer-events="none" y="0" font-size="10px" fill="#FFFFFF" font-family="sans-serif"> Madeline</text><text text-anchor="middle" pointer-events="none" y="10" font-size="10px" fill="#FFFFFF" font-family="sans-serif"> Nindorf</text></g><g class="node" transform="translate(310.37089972549074,274.6507463675545)"><circle class="outline" cx="0" cy="0" r="32.5" fill="#FF756E" stroke="#E06760" stroke-width="2px"/><text text-anchor="middle" pointer-events="none" font-family="sans-serif" dy="2.03125" font-size="32.5" fill="#FFFFFF"/><text text-anchor="middle" pointer-events="none" y="5" font-size="10px" fill="#FFFFFF" font-family="sans-serif"> Richard Fox</text></g><g class="node" transform="translate(277.1731852407143,-74.78051578065326)"><circle class="outline" cx="0" cy="0" r="32.5" fill="#FF756E" stroke="#E06760" stroke-width="2px"/><text text-anchor="middle" pointer-events="none" font-family="sans-serif" dy="2.03125" font-size="32.5" fill="#FFFFFF"/><text text-anchor="middle" pointer-events="none" font-family="sans-serif" dy="2.03125" font-size="32.5" fill="#FFFFFF"/><text text-anchor="middle" pointer-events="none" y="0" font-size="10px" fill="#FFFFFF" font-family="sans-serif"> Augusta</text><text text-anchor="middle" pointer-events="none" y="10" font-size="10px" fill="#FFFFFF" font-family="sans-serif"> Sharp</text></g><g class="node" transform="translate(241.55650430622717,44.75148561875985)"><circle class="outline" cx="0" cy="0" r="32.5" fill="#FF756E" stroke="#E06760" stroke-width="2px"/><text text-anchor="middle" pointer-events="none" font-family="sans-serif" dy="2.03125" font-size="32.5" fill="#FFFFFF"/><text text-anchor="middle" pointer-events="none" font-family="sans-serif" dy="2.03125" font-size="32.5" fill="#FFFFFF"/><text text-anchor="middle" pointer-events="none" y="0" font-size="10px" fill="#FFFFFF" font-family="sans-serif"> Rosalia</text><text text-anchor="middle" pointer-events="none" y="10" font-size="10px" fill="#FFFFFF" font-family="sans-serif"> Larroque</text></g><g class="node" transform="translate(-99.66563151504475,139.66157872776822)"><circle class="outline" cx="0" cy="0" r="32.5" fill="#FF756E" stroke="#E06760" stroke-width="2px"/><text text-anchor="middle" pointer-events="none" font-family="sans-serif" dy="2.03125" font-size="32.5" fill="#FFFFFF"/><text text-anchor="middle" pointer-events="none" y="5" font-size="10px" fill="#FFFFFF" font-family="sans-serif"> May Burton</text></g><g class="node" transform="translate(-132.29739985493828,254.8463942676697)"><circle class="outline" cx="0" cy="0" r="32.5" fill="#FF756E" stroke="#E06760" stroke-width="2px"/><text text-anchor="middle" pointer-events="none" font-family="sans-serif" dy="2.03125" font-size="32.5" fill="#FFFFFF"/><text text-anchor="middle" pointer-events="none" y="5" font-size="10px" fill="#FFFFFF" font-family="sans-serif"> Patrick Lane</text></g><g class="node" transform="translate(23.426447549828527,-180.11246412795418)"><circle class="outline" cx="0" cy="0" r="32.5" fill="#FF756E" stroke="#E06760" stroke-width="2px"/><text text-anchor="middle" pointer-events="none" font-family="sans-serif" dy="2.03125" font-size="32.5" fill="#FFFFFF"/><text text-anchor="middle" pointer-events="none" font-family="sans-serif" dy="2.03125" font-size="32.5" fill="#FFFFFF"/><text text-anchor="middle" pointer-events="none" y="0" font-size="10px" fill="#FFFFFF" font-family="sans-serif"> Jose</text><text text-anchor="middle" pointer-events="none" y="10" font-size="10px" fill="#FFFFFF" font-family="sans-serif"> Ringwald</text></g><g class="node" transform="translate(19.83649388720949,-61.153689499641104)"><circle class="outline" cx="0" cy="0" r="32.5" fill="#FF756E" stroke="#E06760" stroke-width="2px"/><text text-anchor="middle" pointer-events="none" font-family="sans-serif" dy="2.03125" font-size="32.5" fill="#FFFFFF"/><text text-anchor="middle" pointer-events="none" font-family="sans-serif" dy="2.03125" font-size="32.5" fill="#FFFFFF"/><text text-anchor="middle" pointer-events="none" y="0" font-size="10px" fill="#FFFFFF" font-family="sans-serif"> Lindsy</text><text text-anchor="middle" pointer-events="none" y="10" font-size="10px" fill="#FFFFFF" font-family="sans-serif"> Henion</text></g><g class="node" transform="translate(135.15009462972972,-19.36024103764223)"><circle class="outline" cx="0" cy="0" r="32.5" fill="#FF756E" stroke="#E06760" stroke-width="2px"/><text text-anchor="middle" pointer-events="none" font-family="sans-serif" dy="2.03125" font-size="32.5" fill="#FFFFFF"/><text text-anchor="middle" pointer-events="none" font-family="sans-serif" dy="2.03125" font-size="32.5" fill="#FFFFFF"/><text text-anchor="middle" pointer-events="none" y="0" font-size="10px" fill="#FFFFFF" font-family="sans-serif"> Kerstin</text><text text-anchor="middle" pointer-events="none" y="10" font-size="10px" fill="#FFFFFF" font-family="sans-serif"> Belveal</text></g><g class="node" transform="translate(248.97055007819728,168.44512089907866)"><circle class="outline" cx="0" cy="0" r="32.5" fill="#FF756E" stroke="#E06760" stroke-width="2px"/><text text-anchor="middle" pointer-events="none" font-family="sans-serif" dy="2.03125" font-size="32.5" fill="#FFFFFF"/><text text-anchor="middle" pointer-events="none" font-family="sans-serif" dy="2.03125" font-size="32.5" fill="#FFFFFF"/><text text-anchor="middle" pointer-events="none" y="0" font-size="10px" fill="#FFFFFF" font-family="sans-serif"> Meryl</text><text text-anchor="middle" pointer-events="none" y="10" font-size="10px" fill="#FFFFFF" font-family="sans-serif"> Pastuch</text></g><g class="node" transform="translate(-65.89386136294779,23.19689990530008)"><circle class="outline" cx="0" cy="0" r="32.5" fill="#FF756E" stroke="#E06760" stroke-width="2px"/><text text-anchor="middle" pointer-events="none" font-family="sans-serif" dy="2.03125" font-size="32.5" fill="#FFFFFF"/><text text-anchor="middle" pointer-events="none" y="5" font-size="10px" fill="#FFFFFF" font-family="sans-serif"> Sara Ballard</text></g><g class="node" transform="translate(133.92479237804264,219.38003247622322)"><circle class="outline" cx="0" cy="0" r="32.5" fill="#FF756E" stroke="#E06760" stroke-width="2px"/><text text-anchor="middle" pointer-events="none" font-family="sans-serif" dy="2.03125" font-size="32.5" fill="#FFFFFF"/><text text-anchor="middle" pointer-events="none" font-family="sans-serif" dy="2.03125" font-size="32.5" fill="#FFFFFF"/><text text-anchor="middle" pointer-events="none" y="0" font-size="10px" fill="#FFFFFF" font-family="sans-serif"> Sherrell</text><text text-anchor="middle" pointer-events="none" y="10" font-size="10px" fill="#FFFFFF" font-family="sans-serif"> Biebel</text></g><g class="node" transform="translate(363.8372087258422,38.01305395578415)"><circle class="outline" cx="0" cy="0" r="32.5" fill="#FF756E" stroke="#E06760" stroke-width="2px"/><text text-anchor="middle" pointer-events="none" font-family="sans-serif" dy="2.03125" font-size="32.5" fill="#FFFFFF"/><text text-anchor="middle" pointer-events="none" font-family="sans-serif" dy="2.03125" font-size="32.5" fill="#FFFFFF"/><text text-anchor="middle" pointer-events="none" y="0" font-size="10px" fill="#FFFFFF" font-family="sans-serif"> Jenice</text><text text-anchor="middle" pointer-events="none" y="10" font-size="10px" fill="#FFFFFF" font-family="sans-serif"> Savaria</text></g><g class="node" transform="translate(47.99882802853672,308.6269255163002)"><circle class="outline" cx="0" cy="0" r="32.5" fill="#FF756E" stroke="#E06760" stroke-width="2px"/><text text-anchor="middle" pointer-events="none" font-family="sans-serif" dy="2.03125" font-size="32.5" fill="#FFFFFF"/><text text-anchor="middle" pointer-events="none" y="5" font-size="10px" fill="#FFFFFF" font-family="sans-serif"> Julie Tierno</text></g><g class="node" transform="translate(-182.28254206667822,2.3585971283649525)"><circle class="outline" cx="0" cy="0" r="32.5" fill="#FF756E" stroke="#E06760" stroke-width="2px"/><text text-anchor="middle" pointer-events="none" font-family="sans-serif" dy="2.03125" font-size="32.5" fill="#FFFFFF"/><text text-anchor="middle" pointer-events="none" y="5" font-size="10px" fill="#FFFFFF" font-family="sans-serif"> Martha Harris</text></g></g></svg>