<svg xmlns="http://www.w3.org/2000/svg" width="953.4488525390625" height="567.3350830078125" viewBox="-309.9393615722656 -216.22325134277344 953.4488525390625 567.3350830078125"><title>Neo4j Graph Visualization</title><desc>Created using Neo4j (http://www.neo4j.com/)</desc><g class="layer relationships"><g class="relationship" transform="translate(160.06567497664724 15.368764854166386) rotate(469.8403905275004)"><path class="outline" fill="#68BDF6" stroke="none" d="M 32.5 0.5 L 48.93507005076992 0.5 L 48.93507005076992 -0.5 L 32.5 -0.5 Z M 84.27882005076992 0.5 L 100.71389010153985 0.5 L 100.71389010153985 3.5 L 107.71389010153985 0 L 100.71389010153985 -3.5 L 100.71389010153985 -0.5 L 84.27882005076992 -0.5 Z"/><text text-anchor="middle" pointer-events="none" font-size="8px" fill="#000000" x="66.60694505076992" y="3" transform="rotate(180 66.60694505076992 0)" font-family="sans-serif">EMAILS</text></g><g class="relationship" transform="translate(526.1551026783529 256.70637678092226) rotate(214.30709179416135)"><path class="outline" fill="#68BDF6" stroke="none" d="M 32.5 0.5 L 38.787195475377395 0.5 L 38.787195475377395 -0.5 L 32.5 -0.5 Z M 74.13094547537739 0.5 L 80.41814095075479 0.5 L 80.41814095075479 3.5 L 87.41814095075479 0 L 80.41814095075479 -3.5 L 80.41814095075479 -0.5 L 74.13094547537739 -0.5 Z"/><text text-anchor="middle" pointer-events="none" font-size="8px" fill="#000000" x="56.459070475377395" y="3" transform="rotate(180 56.459070475377395 0)" font-family="sans-serif">EMAILS</text></g><g class="relationship" transform="translate(13.624578134123242 294.5338568479282) rotate(272.2651229976967)"><path class="outline" fill="#6DCE9E" stroke="none" d="M 31.26317983184346,-8.894581878976458 L 31.52199887694598,-7.92865605268739 A 125.34160025887736 125.34160025887736 0 0 1 46.766284808715625,-11.014307769383862 L 46.62908768243562,-12.004851533455138 A 126.34160025887736 126.34160025887736 0 0 0 31.26317983184346,-8.894581878976458 Z M 78.01730166210206,-12.415407172555362 L 77.90605952597481,-11.421613840342943 A 125.34160025887736 125.34160025887736 0 0 1 93.22583663467445,-8.735737926220265 L 92.52543761934359,-5.818643272403978 L 100.14912399613425,-7.587655999417643 L 94.15970198844892,-12.625197464641982 L 93.45930297311806,-9.708102810825695 A 126.34160025887736 126.34160025887736 0 0 0 78.01730166210206,-12.415407172555362"/><text text-anchor="middle" pointer-events="none" font-size="8px" fill="#000000" x="62.31693363991073" y="-9.688804116359378" font-family="sans-serif">CALLS</text></g><g class="relationship" transform="translate(380.56359215708443 117.1105107038131) rotate(335.5488282126827)"><path class="outline" fill="#6DCE9E" stroke="none" d="M 31.26317983184346,-8.894581878976458 L 31.52199887694598,-7.92865605268739 A 354.8533138570674 354.8533138570674 0 0 1 105.20492657111315,-19.555012854935057 L 105.15375086712325,-20.55370252010698 A 355.8533138570674 355.8533138570674 0 0 0 31.26317983184346,-8.894581878976458 Z M 136.53454828233114,-20.776206704710376 L 136.49753934339873,-19.776891770148154 A 354.8533138570674 354.8533138570674 0 0 1 210.3379227241311,-9.1965426141183 L 209.60263472252376,-6.288046171849151 L 217.246962423027,-7.965620017412725 L 211.31830672627422,-13.074537870477167 L 210.58301872466689,-10.166041428208018 A 355.8533138570674 355.8533138570674 0 0 0 136.53454828233114,-20.776206704710376"/><text text-anchor="middle" pointer-events="none" font-size="8px" fill="#000000" x="120.84524077745591" y="-17.511057229175833" font-family="sans-serif">CALLS</text></g><g class="relationship" transform="translate(380.56359215708443 117.1105107038131) rotate(476.9211639902136)"><path class="outline" fill="#68BDF6" stroke="none" d="M 32.5 0.5 L 82.7369539090857 0.5 L 82.7369539090857 -0.5 L 32.5 -0.5 Z M 118.0807039090857 0.5 L 168.3176578181714 0.5 L 168.3176578181714 3.5 L 175.3176578181714 0 L 168.3176578181714 -3.5 L 168.3176578181714 -0.5 L 118.0807039090857 -0.5 Z"/><text text-anchor="middle" pointer-events="none" font-size="8px" fill="#000000" x="100.4088289090857" y="3" transform="rotate(180 100.4088289090857 0)" font-family="sans-serif">EMAILS</text></g><g class="relationship" transform="translate(380.56359215708443 117.1105107038131) rotate(518.7965764376679)"><path class="outline" fill="#6DCE9E" stroke="none" d="M 31.26317983184346,-8.894581878976458 L 31.52199887694598,-7.92865605268739 A 156.49322454709713 156.49322454709713 0 0 1 54.5994961490714,-12.287795655562462 L 54.488143534793046,-13.281576614976245 A 157.49322454709713 157.49322454709713 0 0 0 31.26317983184346,-8.894581878976458 Z M 85.88125511369097,-13.650350149077326 L 85.7932778096876,-12.65422766967015 A 156.49322454709713 156.49322454709713 0 0 1 108.96680610810091,-8.838396878748348 L 108.25863397357358,-5.923179523579268 L 115.88700862591665,-7.671864790712753 L 109.91103562080403,-12.72535335230712 L 109.2028634862767,-9.81013599713804 A 157.49322454709713 157.49322454709713 0 0 0 85.88125511369097,-13.650350149077326"/><text text-anchor="middle" pointer-events="none" font-size="8px" fill="#000000" x="70.18136037758273" y="-10.750202665319762" transform="rotate(180 70.18136037758273 -13.750202665319762)" font-family="sans-serif">CALLS</text></g><g class="relationship" transform="translate(380.56359215708443 117.1105107038131) rotate(201.6795168027321)"><path class="outline" fill="#6DCE9E" stroke="none" d="M 32.5 0.5 L 49.14376281345376 0.5 L 49.14376281345376 -0.5 L 32.5 -0.5 Z M 80.49141906345376 0.5 L 97.13518187690752 0.5 L 97.13518187690752 3.5 L 104.13518187690752 0 L 97.13518187690752 -3.5 L 97.13518187690752 -0.5 L 80.49141906345376 -0.5 Z"/><text text-anchor="middle" pointer-events="none" font-size="8px" fill="#000000" x="64.81759093845376" y="3" transform="rotate(180 64.81759093845376 0)" font-family="sans-serif">CALLS</text></g><g class="relationship" transform="translate(380.56359215708443 117.1105107038131) rotate(271.758661424433)"><path class="outline" fill="#68BDF6" stroke="none" d="M 32.5 0.5 L 60.1562652829745 0.5 L 60.1562652829745 -0.5 L 32.5 -0.5 Z M 95.5000152829745 0.5 L 123.156280565949 0.5 L 123.156280565949 3.5 L 130.156280565949 0 L 123.156280565949 -3.5 L 123.156280565949 -0.5 L 95.5000152829745 -0.5 Z"/><text text-anchor="middle" pointer-events="none" font-size="8px" fill="#000000" x="77.8281402829745" y="3" font-family="sans-serif">EMAILS</text></g><g class="relationship" transform="translate(298.5845550747633 -179.72325688025694) rotate(530.0587810463963)"><path class="outline" fill="#68BDF6" stroke="none" d="M 31.26317983184346,-8.894581878976458 L 31.52199887694598,-7.92865605268739 A 132.35020636205255 132.35020636205255 0 0 1 46.55160794508359,-11.034616578263325 L 46.4063482927562,-12.024010146771701 A 133.35020636205255 133.35020636205255 0 0 0 31.26317983184346,-8.894581878976458 Z M 81.77571029883181,-12.475147666863194 L 81.65573330120573,-11.482370995078128 A 132.35020636205255 132.35020636205255 0 0 1 96.75967319576748,-8.760765000642838 L 96.05737915768376,-5.844125995885469 L 103.68221321321529,-7.608185412573704 L 97.69606524654577,-12.649617006985995 L 96.99377120846205,-9.732978002228627 A 133.35020636205255 133.35020636205255 0 0 0 81.77571029883181,-12.475147666863194"/><text text-anchor="middle" pointer-events="none" font-size="8px" fill="#000000" x="64.08238143656514" y="-9.927574529041323" transform="rotate(180 64.08238143656514 -12.927574529041323)" font-family="sans-serif">EMAILS</text></g><g class="relationship" transform="translate(298.5845550747633 -179.72325688025694) rotate(417.0645069740604)"><path class="outline" fill="#6DCE9E" stroke="none" d="M 31.26317983184346,-8.894581878976458 L 31.52199887694598,-7.92865605268739 A 181.14602341842036 181.14602341842036 0 0 1 60.83465667367103,-13.246820259047553 L 60.7376554661537,-14.242104522833614 A 182.14602341842036 182.14602341842036 0 0 0 31.26317983184346,-8.894581878976458 Z M 92.13075322845215,-14.583242099482248 L 92.0554031698088,-13.586084956067822 A 181.14602341842036 181.14602341842036 0 0 1 121.47670661045088,-8.906161720866422 L 120.76340361684207,-5.992195550968647 L 128.39484483914714,-7.727449097428819 L 122.42777726859596,-12.791449947396787 L 121.71447427498715,-9.877483777499013 A 182.14602341842036 182.14602341842036 0 0 0 92.13075322845215,-14.583242099482248"/><text text-anchor="middle" pointer-events="none" font-size="8px" fill="#000000" x="76.43227377931427" y="-11.590333333837776" font-family="sans-serif">CALLS</text></g><g class="relationship" transform="translate(432.8627159352722 314.6118511391275) rotate(267.37050503535676)"><path class="outline" fill="#68BDF6" stroke="none" d="M 31.26317983184346,-8.894581878976458 L 31.52199887694598,-7.92865605268739 A 113.15073859454117 113.15073859454117 0 0 1 41.75624969038648,-10.168797619356354 L 41.58787858173194,-11.154521297559555 A 114.15073859454117 114.15073859454117 0 0 0 31.26317983184346,-8.894581878976458 Z M 76.94093373070689,-11.638327021741972 L 76.79959983364486,-10.6483650378551 A 113.15073859454117 113.15073859454117 0 0 1 87.09131914137919,-8.689120887185252 L 86.39444996115405,-5.771180972510459 L 94.01599047232457,-7.549416119105718 L 88.02047804834605,-12.579707440084976 L 87.32360886812091,-9.661767525410182 A 114.15073859454117 114.15073859454117 0 0 0 76.94093373070689,-11.638327021741972"/><text text-anchor="middle" pointer-events="none" font-size="8px" fill="#000000" x="59.25240293842801" y="-9.273533295268933" transform="rotate(180 59.25240293842801 -12.273533295268933)" font-family="sans-serif">EMAILS</text></g><g class="relationship" transform="translate(432.8627159352722 314.6118511391275) rotate(217.22120046837733)"><path class="outline" fill="#68BDF6" stroke="none" d="M 31.26317983184346,-8.894581878976458 L 31.52199887694598,-7.92865605268739 A 334.5429815456799 334.5429815456799 0 0 1 98.0018045236922,-18.723183427864797 L 97.94170375789595,-19.72137574297784 A 335.5429815456799 335.5429815456799 0 0 0 31.26317983184346,-8.894581878976458 Z M 133.32082211143802,-19.982899698010556 L 133.27548446755404,-18.983927977666553 A 334.5429815456799 334.5429815456799 0 0 1 199.90760378857635,-9.173369641279654 L 199.1740701525907,-6.264430246091491 L 206.817384650013,-7.946614389844505 L 200.8856486365572,-13.051955501530538 L 200.15211500057154,-10.143016106342374 A 335.5429815456799 335.5429815456799 0 0 0 133.32082211143802,-19.982899698010556"/><text text-anchor="middle" pointer-events="none" font-size="8px" fill="#000000" x="115.63150952866374" y="-16.818778335899992" transform="rotate(180 115.63150952866374 -19.818778335899992)" font-family="sans-serif">EMAILS</text></g><g class="relationship" transform="translate(18.83184561023801 162.8858191872053) rotate(452.2651229976967)"><path class="outline" fill="#68BDF6" stroke="none" d="M 31.26317983184346,-8.894581878976458 L 31.52199887694598,-7.92865605268739 A 125.34160025887736 125.34160025887736 0 0 1 44.79724595187696,-10.725632904762463 L 44.64433944536906,-11.713873563846846 A 126.34160025887736 126.34160025887736 0 0 0 31.26317983184346,-8.894581878976458 Z M 80.00898153658854,-12.176440603969496 L 79.88197515598121,-11.184538703938543 A 125.34160025887736 125.34160025887736 0 0 1 93.22583663467445,-8.735737926220265 L 92.52543761934359,-5.818643272403978 L 100.14912399613425,-7.587655999417643 L 94.15970198844892,-12.625197464641982 L 93.45930297311806,-9.708102810825695 A 126.34160025887736 126.34160025887736 0 0 0 80.00898153658854,-12.176440603969496"/><text text-anchor="middle" pointer-events="none" font-size="8px" fill="#000000" x="62.31693363991073" y="-9.688804116359378" transform="rotate(180 62.31693363991073 -12.688804116359378)" font-family="sans-serif">EMAILS</text></g><g class="relationship" transform="translate(18.83184561023801 162.8858191872053) rotate(394.66034115032926)"><path class="outline" fill="#68BDF6" stroke="none" d="M 32.5 0.5 L 55.60831528627216 0.5 L 55.60831528627216 -0.5 L 32.5 -0.5 Z M 90.95206528627216 0.5 L 114.06038057254432 0.5 L 114.06038057254432 3.5 L 121.06038057254432 0 L 114.06038057254432 -3.5 L 114.06038057254432 -0.5 L 90.95206528627216 -0.5 Z"/><text text-anchor="middle" pointer-events="none" font-size="8px" fill="#000000" x="73.28019028627216" y="3" font-family="sans-serif">EMAILS</text></g><g class="relationship" transform="translate(607.0094510884455 14.146156382523557) rotate(515.5488282126827)"><path class="outline" fill="#6DCE9E" stroke="none" d="M 31.26317983184346,-8.894581878976458 L 31.52199887694598,-7.92865605268739 A 354.8533138570674 354.8533138570674 0 0 1 105.20492657111315,-19.555012854935057 L 105.15375086712325,-20.55370252010698 A 355.8533138570674 355.8533138570674 0 0 0 31.26317983184346,-8.894581878976458 Z M 136.53454828233114,-20.776206704710376 L 136.49753934339873,-19.776891770148154 A 354.8533138570674 354.8533138570674 0 0 1 210.3379227241311,-9.1965426141183 L 209.60263472252376,-6.288046171849151 L 217.246962423027,-7.965620017412725 L 211.31830672627422,-13.074537870477167 L 210.58301872466689,-10.166041428208018 A 355.8533138570674 355.8533138570674 0 0 0 136.53454828233114,-20.776206704710376"/><text text-anchor="middle" pointer-events="none" font-size="8px" fill="#000000" x="120.84524077745591" y="-17.511057229175833" transform="rotate(180 120.84524077745591 -20.511057229175833)" font-family="sans-serif">CALLS</text></g><g class="relationship" transform="translate(427.0992960720332 189.11711944917997) rotate(447.37050503535676)"><path class="outline" fill="#68BDF6" stroke="none" d="M 31.26317983184346,-8.894581878976458 L 31.52199887694598,-7.92865605268739 A 113.15073859454117 113.15073859454117 0 0 1 41.75624969038648,-10.168797619356354 L 41.58787858173194,-11.154521297559555 A 114.15073859454117 114.15073859454117 0 0 0 31.26317983184346,-8.894581878976458 Z M 76.94093373070689,-11.638327021741972 L 76.79959983364486,-10.6483650378551 A 113.15073859454117 113.15073859454117 0 0 1 87.09131914137919,-8.689120887185252 L 86.39444996115405,-5.771180972510459 L 94.01599047232457,-7.549416119105718 L 88.02047804834605,-12.579707440084976 L 87.32360886812091,-9.661767525410182 A 114.15073859454117 114.15073859454117 0 0 0 76.94093373070689,-11.638327021741972"/><text text-anchor="middle" pointer-events="none" font-size="8px" fill="#000000" x="59.25240293842801" y="-9.273533295268933" font-family="sans-serif">EMAILS</text></g><g class="relationship" transform="translate(427.0992960720332 189.11711944917997) rotate(315.7973841602324)"><path class="outline" fill="#6DCE9E" stroke="none" d="M 32.5 0.5 L 106.3077460148939 0.5 L 106.3077460148939 -0.5 L 32.5 -0.5 Z M 137.6554022648939 0.5 L 211.4631482797878 0.5 L 211.4631482797878 3.5 L 218.4631482797878 0 L 211.4631482797878 -3.5 L 211.4631482797878 -0.5 L 137.6554022648939 -0.5 Z"/><text text-anchor="middle" pointer-events="none" font-size="8px" fill="#000000" x="121.9815741398939" y="3" font-family="sans-serif">CALLS</text></g><g class="relationship" transform="translate(427.0992960720332 189.11711944917997) rotate(185.79321533039644)"><path class="outline" fill="#68BDF6" stroke="none" d="M 32.5 0.5 L 71.31093417302328 0.5 L 71.31093417302328 -0.5 L 32.5 -0.5 Z M 106.65468417302328 0.5 L 145.46561834604657 0.5 L 145.46561834604657 3.5 L 152.46561834604657 0 L 145.46561834604657 -3.5 L 145.46561834604657 -0.5 L 106.65468417302328 -0.5 Z"/><text text-anchor="middle" pointer-events="none" font-size="8px" fill="#000000" x="88.98280917302328" y="3" transform="rotate(180 88.98280917302328 0)" font-family="sans-serif">EMAILS</text></g><g class="relationship" transform="translate(252.44208983100856 -60.125436376033534) rotate(371.8307487750147)"><path class="outline" fill="#FFD86E" stroke="none" d="M 32.5 0.5 L 160.85206647764716 0.5 L 160.85206647764716 -0.5 L 32.5 -0.5 Z M 194.41066022764716 0.5 L 322.7627267052943 0.5 L 322.7627267052943 3.5 L 329.7627267052943 0 L 322.7627267052943 -3.5 L 322.7627267052943 -0.5 L 194.41066022764716 -0.5 Z"/><text text-anchor="middle" pointer-events="none" font-size="8px" fill="#000000" x="177.63136335264716" y="3" font-family="sans-serif">MEETS</text></g><g class="relationship" transform="translate(252.44208983100856 -60.125436376033534) rotate(469.07283478636646)"><path class="outline" fill="#68BDF6" stroke="none" d="M 31.26317983184346,-8.894581878976458 L 31.52199887694598,-7.92865605268739 A 509.60299416948385 509.60299416948385 0 0 1 143.01294566378985,-24.884314622993315 L 142.97290662599193,-25.88351273921063 A 510.60299416948385 510.60299416948385 0 0 0 31.26317983184346,-8.894581878976458 Z M 178.34370713848304,-26.074729306477366 L 178.31447356935075,-25.075156698591513 A 509.60299416948385 509.60299416948385 0 0 1 289.98222495888655,-9.325906793136895 L 289.23714339226893,-6.419903789166212 L 296.8870788959211,-8.071716971690899 L 290.97566704771003,-13.200577465097805 L 290.2305854810924,-10.294574461127123 A 510.60299416948385 510.60299416948385 0 0 0 178.34370713848304,-26.074729306477366"/><text text-anchor="middle" pointer-events="none" font-size="8px" fill="#000000" x="160.65935359141986" y="-22.785503167373633" transform="rotate(180 160.65935359141986 -25.785503167373633)" font-family="sans-serif">EMAILS</text></g><g class="relationship" transform="translate(252.44208983100856 -60.125436376033534) rotate(198.96751262343764)"><path class="outline" fill="#6DCE9E" stroke="none" d="M 32.5 0.5 L 58.22009775032636 0.5 L 58.22009775032636 -0.5 L 32.5 -0.5 Z M 89.56775400032636 0.5 L 115.28785175065272 0.5 L 115.28785175065272 3.5 L 122.28785175065272 0 L 115.28785175065272 -3.5 L 115.28785175065272 -0.5 L 89.56775400032636 -0.5 Z"/><text text-anchor="middle" pointer-events="none" font-size="8px" fill="#000000" x="73.89392587532636" y="3" transform="rotate(180 73.89392587532636 0)" font-family="sans-serif">CALLS</text></g><g class="relationship" transform="translate(252.44208983100856 -60.125436376033534) rotate(521.0925646777878)"><path class="outline" fill="#6DCE9E" stroke="none" d="M 32.5 0.5 L 76.48468923450568 0.5 L 76.48468923450568 -0.5 L 32.5 -0.5 Z M 107.83234548450568 0.5 L 151.81703471901136 0.5 L 151.81703471901136 3.5 L 158.81703471901136 0 L 151.81703471901136 -3.5 L 151.81703471901136 -0.5 L 107.83234548450568 -0.5 Z"/><text text-anchor="middle" pointer-events="none" font-size="8px" fill="#000000" x="92.15851735950568" y="3" transform="rotate(180 92.15851735950568 0)" font-family="sans-serif">CALLS</text></g><g class="relationship" transform="translate(112.47692535448714 147.25980278626415) rotate(432.3979049977507)"><path class="outline" fill="#68BDF6" stroke="none" d="M 32.5 0.5 L 32.83546422133174 0.5 L 32.83546422133174 -0.5 L 32.5 -0.5 Z M 68.17921422133173 0.5 L 68.51467844266348 0.5 L 68.51467844266348 3.5 L 75.51467844266348 0 L 68.51467844266348 -3.5 L 68.51467844266348 -0.5 L 68.17921422133173 -0.5 Z"/><text text-anchor="middle" pointer-events="none" font-size="8px" fill="#000000" x="50.50733922133174" y="3" font-family="sans-serif">EMAILS</text></g><g class="relationship" transform="translate(112.47692535448714 147.25980278626415) rotate(370.0674712969493)"><path class="outline" fill="#68BDF6" stroke="none" d="M 32.5 0.5 L 45.15002756259426 0.5 L 45.15002756259426 -0.5 L 32.5 -0.5 Z M 80.49377756259426 0.5 L 93.14380512518852 0.5 L 93.14380512518852 3.5 L 100.14380512518852 0 L 93.14380512518852 -3.5 L 93.14380512518852 -0.5 L 80.49377756259426 -0.5 Z"/><text text-anchor="middle" pointer-events="none" font-size="8px" fill="#000000" x="62.82190256259426" y="3" font-family="sans-serif">EMAILS</text></g><g class="relationship" transform="translate(145.14107650119345 250.21719197682742) rotate(521.3779030206397)"><path class="outline" fill="#6DCE9E" stroke="none" d="M 32.5 0.5 L 50.21737471807124 0.5 L 50.21737471807124 -0.5 L 32.5 -0.5 Z M 81.56503096807124 0.5 L 99.28240568614248 0.5 L 99.28240568614248 3.5 L 106.28240568614248 0 L 99.28240568614248 -3.5 L 99.28240568614248 -0.5 L 81.56503096807124 -0.5 Z"/><text text-anchor="middle" pointer-events="none" font-size="8px" fill="#000000" x="65.89120284307124" y="3" transform="rotate(180 65.89120284307124 0)" font-family="sans-serif">CALLS</text></g><g class="relationship" transform="translate(145.14107650119345 250.21719197682742) rotate(347.7731062286423)"><path class="outline" fill="#68BDF6" stroke="none" d="M 32.5 0.5 L 123.07934375259987 0.5 L 123.07934375259987 -0.5 L 32.5 -0.5 Z M 158.42309375259987 0.5 L 249.00243750519974 0.5 L 249.00243750519974 3.5 L 256.00243750519974 0 L 249.00243750519974 -3.5 L 249.00243750519974 -0.5 L 158.42309375259987 -0.5 Z"/><text text-anchor="middle" pointer-events="none" font-size="8px" fill="#000000" x="140.75121875259987" y="3" font-family="sans-serif">EMAILS</text></g><g class="relationship" transform="translate(145.14107650119345 250.21719197682742) rotate(289.07283478636646)"><path class="outline" fill="#68BDF6" stroke="none" d="M 31.26317983184346,-8.894581878976458 L 31.52199887694598,-7.92865605268739 A 509.60299416948385 509.60299416948385 0 0 1 143.01294566378985,-24.884314622993315 L 142.97290662599193,-25.88351273921063 A 510.60299416948385 510.60299416948385 0 0 0 31.26317983184346,-8.894581878976458 Z M 178.34370713848304,-26.074729306477366 L 178.31447356935075,-25.075156698591513 A 509.60299416948385 509.60299416948385 0 0 1 289.98222495888655,-9.325906793136895 L 289.23714339226893,-6.419903789166212 L 296.8870788959211,-8.071716971690899 L 290.97566704771003,-13.200577465097805 L 290.2305854810924,-10.294574461127123 A 510.60299416948385 510.60299416948385 0 0 0 178.34370713848304,-26.074729306477366"/><text text-anchor="middle" pointer-events="none" font-size="8px" fill="#000000" x="160.65935359141986" y="-22.785503167373633" font-family="sans-serif">EMAILS</text></g><g class="relationship" transform="translate(165.33658354013764 -156.3689712956755) rotate(451.75794819151747)"><path class="outline" fill="#68BDF6" stroke="none" d="M 32.5 0.5 L 64.73742673001841 0.5 L 64.73742673001841 -0.5 L 32.5 -0.5 Z M 100.08117673001841 0.5 L 132.31860346003683 0.5 L 132.31860346003683 3.5 L 139.31860346003683 0 L 132.31860346003683 -3.5 L 132.31860346003683 -0.5 L 100.08117673001841 -0.5 Z"/><text text-anchor="middle" pointer-events="none" font-size="8px" fill="#000000" x="82.40930173001841" y="3" transform="rotate(180 82.40930173001841 0)" font-family="sans-serif">EMAILS</text></g><g class="relationship" transform="translate(165.33658354013764 -156.3689712956755) rotate(350.05878104639635)"><path class="outline" fill="#68BDF6" stroke="none" d="M 31.26317983184346,-8.894581878976458 L 31.52199887694598,-7.92865605268739 A 132.35020636205255 132.35020636205255 0 0 1 46.55160794508359,-11.034616578263325 L 46.4063482927562,-12.024010146771701 A 133.35020636205255 133.35020636205255 0 0 0 31.26317983184346,-8.894581878976458 Z M 81.77571029883181,-12.475147666863194 L 81.65573330120573,-11.482370995078128 A 132.35020636205255 132.35020636205255 0 0 1 96.75967319576748,-8.760765000642838 L 96.05737915768376,-5.844125995885469 L 103.68221321321529,-7.608185412573704 L 97.69606524654577,-12.649617006985995 L 96.99377120846205,-9.732978002228627 A 133.35020636205255 133.35020636205255 0 0 0 81.77571029883181,-12.475147666863194"/><text text-anchor="middle" pointer-events="none" font-size="8px" fill="#000000" x="64.08238143656514" y="-9.927574529041323" font-family="sans-serif">EMAILS</text></g><g class="relationship" transform="translate(286.47121905914753 302.4070412321239) rotate(321.14509545932737)"><path class="outline" fill="#68BDF6" stroke="none" d="M 32.5 0.5 L 69.12051452138721 0.5 L 69.12051452138721 -0.5 L 32.5 -0.5 Z M 104.46426452138721 0.5 L 141.08477904277441 0.5 L 141.08477904277441 3.5 L 148.08477904277441 0 L 141.08477904277441 -3.5 L 141.08477904277441 -0.5 L 104.46426452138721 -0.5 Z"/><text text-anchor="middle" pointer-events="none" font-size="8px" fill="#000000" x="86.79238952138721" y="3" font-family="sans-serif">EMAILS</text></g><g class="relationship" transform="translate(286.47121905914753 302.4070412321239) rotate(251.7974152690466)"><path class="outline" fill="#68BDF6" stroke="none" d="M 32.5 0.5 L 48.28386782885255 0.5 L 48.28386782885255 -0.5 L 32.5 -0.5 Z M 83.62761782885255 0.5 L 99.4114856577051 0.5 L 99.4114856577051 3.5 L 106.4114856577051 0 L 99.4114856577051 -3.5 L 99.4114856577051 -0.5 L 83.62761782885255 -0.5 Z"/><text text-anchor="middle" pointer-events="none" font-size="8px" fill="#000000" x="65.95574282885255" y="3" transform="rotate(180 65.95574282885255 0)" font-family="sans-serif">EMAILS</text></g><g class="relationship" transform="translate(243.07835847030032 170.44696962882534) rotate(376.94707575194576)"><path class="outline" fill="#68BDF6" stroke="none" d="M 32.5 0.5 L 126.79191147633892 0.5 L 126.79191147633892 -0.5 L 32.5 -0.5 Z M 162.13566147633892 0.5 L 256.42757295267785 0.5 L 256.42757295267785 3.5 L 263.42757295267785 0 L 256.42757295267785 -3.5 L 256.42757295267785 -0.5 L 162.13566147633892 -0.5 Z"/><text text-anchor="middle" pointer-events="none" font-size="8px" fill="#000000" x="144.46378647633892" y="3" font-family="sans-serif">EMAILS</text></g><g class="relationship" transform="translate(243.07835847030032 170.44696962882534) rotate(338.7965764376679)"><path class="outline" fill="#68BDF6" stroke="none" d="M 31.26317983184346,-8.894581878976458 L 31.52199887694598,-7.92865605268739 A 156.49322454709713 156.49322454709713 0 0 1 52.62166381611638,-12.053427440423832 L 52.49767274839266,-13.045710774519875 A 157.49322454709713 157.49322454709713 0 0 0 31.26317983184346,-8.894581878976458 Z M 87.87671728901975,-13.461306892017745 L 87.77606983884934,-12.466384738895101 A 156.49322454709713 156.49322454709713 0 0 1 108.96680610810091,-8.838396878748348 L 108.25863397357358,-5.923179523579268 L 115.88700862591665,-7.671864790712753 L 109.91103562080403,-12.72535335230712 L 109.2028634862767,-9.81013599713804 A 157.49322454709713 157.49322454709713 0 0 0 87.87671728901975,-13.461306892017745"/><text text-anchor="middle" pointer-events="none" font-size="8px" fill="#000000" x="70.18136037758273" y="-10.750202665319762" font-family="sans-serif">EMAILS</text></g><g class="relationship" transform="translate(243.07835847030032 170.44696962882534) rotate(397.22120046837733)"><path class="outline" fill="#68BDF6" stroke="none" d="M 31.26317983184346,-8.894581878976458 L 31.52199887694598,-7.92865605268739 A 334.5429815456799 334.5429815456799 0 0 1 98.0018045236922,-18.723183427864797 L 97.94170375789595,-19.72137574297784 A 335.5429815456799 335.5429815456799 0 0 0 31.26317983184346,-8.894581878976458 Z M 133.32082211143802,-19.982899698010556 L 133.27548446755404,-18.983927977666553 A 334.5429815456799 334.5429815456799 0 0 1 199.90760378857635,-9.173369641279654 L 199.1740701525907,-6.264430246091491 L 206.817384650013,-7.946614389844505 L 200.8856486365572,-13.051955501530538 L 200.15211500057154,-10.143016106342374 A 335.5429815456799 335.5429815456799 0 0 0 133.32082211143802,-19.982899698010556"/><text text-anchor="middle" pointer-events="none" font-size="8px" fill="#000000" x="115.63150952866374" y="-16.818778335899992" font-family="sans-serif">EMAILS</text></g><g class="relationship" transform="translate(243.07835847030032 170.44696962882534) rotate(275.78371843509444)"><path class="outline" fill="#6DCE9E" stroke="none" d="M 31.26317983184346,-8.894581878976458 L 31.52199887694598,-7.92865605268739 A 70.45157140038319 70.45157140038319 0 0 1 33.20040074624457,-8.356340574102958 L 32.965405184932926,-9.328337017596368 A 71.45157140038319 71.45157140038319 0 0 0 31.26317983184346,-8.894581878976458 Z M 64.27367239830858,-9.838869149082086 L 64.070493310697,-8.859727556483065 A 70.45157140038319 70.45157140038319 0 0 1 65.76194729627419,-8.486994006344958 L 65.0803837910737,-5.565441133576977 L 72.69249791693288,-7.383604639671841 L 66.67069863654149,-12.382397836702266 L 65.989135131341,-9.460844963934285 A 71.45157140038319 71.45157140038319 0 0 0 64.27367239830858,-9.838869149082086"/><text text-anchor="middle" pointer-events="none" font-size="8px" fill="#000000" x="48.59938053186943" y="-7.819803792224221" font-family="sans-serif">CALLS</text></g><g class="relationship" transform="translate(71.44788793228629 1.8689718614837791) rotate(195.28895373217335)"><path class="outline" fill="#68BDF6" stroke="none" d="M 32.5 0.5 L 49.45774895934625 0.5 L 49.45774895934625 -0.5 L 32.5 -0.5 Z M 84.80149895934625 0.5 L 101.7592479186925 0.5 L 101.7592479186925 3.5 L 108.7592479186925 0 L 101.7592479186925 -3.5 L 101.7592479186925 -0.5 L 84.80149895934625 -0.5 Z"/><text text-anchor="middle" pointer-events="none" font-size="8px" fill="#000000" x="67.12962395934625" y="3" transform="rotate(180 67.12962395934625 0)" font-family="sans-serif">EMAILS</text></g><g class="relationship" transform="translate(71.44788793228629 1.8689718614837791) rotate(468.0960212311534)"><path class="outline" fill="#68BDF6" stroke="none" d="M 32.5 0.5 L 63.52593050927854 0.5 L 63.52593050927854 -0.5 L 32.5 -0.5 Z M 98.86968050927854 0.5 L 129.89561101855708 0.5 L 129.89561101855708 3.5 L 136.89561101855708 0 L 129.89561101855708 -3.5 L 129.89561101855708 -0.5 L 98.86968050927854 -0.5 Z"/><text text-anchor="middle" pointer-events="none" font-size="8px" fill="#000000" x="81.19780550927854" y="3" transform="rotate(180 81.19780550927854 0)" font-family="sans-serif">EMAILS</text></g><g class="relationship" transform="translate(71.44788793228629 1.8689718614837791) rotate(287.12852218322405)"><path class="outline" fill="#68BDF6" stroke="none" d="M 32.5 0.5 L 37.58699032559894 0.5 L 37.58699032559894 -0.5 L 32.5 -0.5 Z M 72.93074032559895 0.5 L 78.01773065119788 0.5 L 78.01773065119788 3.5 L 85.01773065119788 0 L 78.01773065119788 -3.5 L 78.01773065119788 -0.5 L 72.93074032559895 -0.5 Z"/><text text-anchor="middle" pointer-events="none" font-size="8px" fill="#000000" x="55.25886532559894" y="3" font-family="sans-serif">EMAILS</text></g><g class="relationship" transform="translate(253.59334136096203 66.63548381619889) rotate(269.479650035555)"><path class="outline" fill="#68BDF6" stroke="none" d="M 32.5 0.5 L 42.21119897891557 0.5 L 42.21119897891557 -0.5 L 32.5 -0.5 Z M 77.55494897891558 0.5 L 87.26614795783114 0.5 L 87.26614795783114 3.5 L 94.26614795783114 0 L 87.26614795783114 -3.5 L 87.26614795783114 -0.5 L 77.55494897891558 -0.5 Z"/><text text-anchor="middle" pointer-events="none" font-size="8px" fill="#000000" x="59.88307397891557" y="3" transform="rotate(180 59.88307397891557 0)" font-family="sans-serif">EMAILS</text></g><g class="relationship" transform="translate(253.59334136096203 66.63548381619889) rotate(455.78371843509444)"><path class="outline" fill="#6DCE9E" stroke="none" d="M 31.26317983184346,-8.894581878976458 L 31.52199887694598,-7.92865605268739 A 70.45157140038319 70.45157140038319 0 0 1 33.20040074624457,-8.356340574102958 L 32.965405184932926,-9.328337017596368 A 71.45157140038319 71.45157140038319 0 0 0 31.26317983184346,-8.894581878976458 Z M 64.27367239830858,-9.838869149082086 L 64.070493310697,-8.859727556483065 A 70.45157140038319 70.45157140038319 0 0 1 65.76194729627419,-8.486994006344958 L 65.0803837910737,-5.565441133576977 L 72.69249791693288,-7.383604639671841 L 66.67069863654149,-12.382397836702266 L 65.989135131341,-9.460844963934285 A 71.45157140038319 71.45157140038319 0 0 0 64.27367239830858,-9.838869149082086"/><text text-anchor="middle" pointer-events="none" font-size="8px" fill="#000000" x="48.59938053186943" y="-7.819803792224221" transform="rotate(180 48.59938053186943 -10.81980379222422)" font-family="sans-serif">CALLS</text></g><g class="relationship" transform="translate(334.02828533362754 9.025732722138102) rotate(426.70597106545586)"><path class="outline" fill="#6DCE9E" stroke="none" d="M 32.5 0.5 L 39.66462446448703 0.5 L 39.66462446448703 -0.5 L 32.5 -0.5 Z M 71.01228071448702 0.5 L 78.17690517897405 0.5 L 78.17690517897405 3.5 L 85.17690517897405 0 L 78.17690517897405 -3.5 L 78.17690517897405 -0.5 L 71.01228071448702 -0.5 Z"/><text text-anchor="middle" pointer-events="none" font-size="8px" fill="#000000" x="55.33845258948703" y="3" font-family="sans-serif">CALLS</text></g><g class="relationship" transform="translate(334.02828533362754 9.025732722138102) rotate(422.6701339316886)"><path class="outline" fill="#6DCE9E" stroke="none" d="M 32.5 0.5 L 82.18582929985688 0.5 L 82.18582929985688 -0.5 L 32.5 -0.5 Z M 113.53348554985688 0.5 L 163.21931484971375 0.5 L 163.21931484971375 3.5 L 170.21931484971375 0 L 163.21931484971375 -3.5 L 163.21931484971375 -0.5 L 113.53348554985688 -0.5 Z"/><text text-anchor="middle" pointer-events="none" font-size="8px" fill="#000000" x="97.85965742485688" y="3" font-family="sans-serif">CALLS</text></g><g class="relationship" transform="translate(334.02828533362754 9.025732722138102) rotate(220.28408312413126)"><path class="outline" fill="#68BDF6" stroke="none" d="M 32.5 0.5 L 33.19544362047948 0.5 L 33.19544362047948 -0.5 L 32.5 -0.5 Z M 66.75403737047948 0.5 L 67.44948099095896 0.5 L 67.44948099095896 3.5 L 74.44948099095896 0 L 67.44948099095896 -3.5 L 67.44948099095896 -0.5 L 66.75403737047948 -0.5 Z"/><text text-anchor="middle" pointer-events="none" font-size="8px" fill="#000000" x="49.97474049547948" y="3" transform="rotate(180 49.97474049547948 0)" font-family="sans-serif">EMAI…</text></g><g class="relationship" transform="translate(334.02828533362754 9.025732722138102) rotate(479.39831195622116)"><path class="outline" fill="#6DCE9E" stroke="none" d="M 32.5 0.5 L 73.46620765992591 0.5 L 73.46620765992591 -0.5 L 32.5 -0.5 Z M 104.81386390992591 0.5 L 145.78007156985183 0.5 L 145.78007156985183 3.5 L 152.78007156985183 0 L 145.78007156985183 -3.5 L 145.78007156985183 -0.5 L 104.81386390992591 -0.5 Z"/><text text-anchor="middle" pointer-events="none" font-size="8px" fill="#000000" x="89.14003578492591" y="3" transform="rotate(180 89.14003578492591 0)" font-family="sans-serif">CALLS</text></g><g class="relationship" transform="translate(334.02828533362754 9.025732722138102) rotate(504.3887050602226)"><path class="outline" fill="#68BDF6" stroke="none" d="M 32.5 0.5 L 32.968837749146374 0.5 L 32.968837749146374 -0.5 L 32.5 -0.5 Z M 58.968837749146374 0.5 L 59.43767549829275 0.5 L 59.43767549829275 3.5 L 66.43767549829275 0 L 59.43767549829275 -3.5 L 59.43767549829275 -0.5 L 58.968837749146374 -0.5 Z"/><text text-anchor="middle" pointer-events="none" font-size="8px" fill="#000000" x="45.968837749146374" y="3" transform="rotate(180 45.968837749146374 0)" font-family="sans-serif">EM…</text></g><g class="relationship" transform="translate(385.5554504153209 -45.469152719009855) rotate(237.0645069740604)"><path class="outline" fill="#6DCE9E" stroke="none" d="M 31.26317983184346,-8.894581878976458 L 31.52199887694598,-7.92865605268739 A 181.14602341842036 181.14602341842036 0 0 1 60.83465667367103,-13.246820259047553 L 60.7376554661537,-14.242104522833614 A 182.14602341842036 182.14602341842036 0 0 0 31.26317983184346,-8.894581878976458 Z M 92.13075322845215,-14.583242099482248 L 92.0554031698088,-13.586084956067822 A 181.14602341842036 181.14602341842036 0 0 1 121.47670661045088,-8.906161720866422 L 120.76340361684207,-5.992195550968647 L 128.39484483914714,-7.727449097428819 L 122.42777726859596,-12.791449947396787 L 121.71447427498715,-9.877483777499013 A 182.14602341842036 182.14602341842036 0 0 0 92.13075322845215,-14.583242099482248"/><text text-anchor="middle" pointer-events="none" font-size="8px" fill="#000000" x="76.43227377931427" y="-11.590333333837776" transform="rotate(180 76.43227377931427 -14.590333333837776)" font-family="sans-serif">CALLS</text></g><g class="relationship" transform="translate(-273.43935030998244 98.69074340094436) rotate(440.7108309052213)"><path class="outline" fill="#6DCE9E" stroke="none" d="M 32.5 0.5 L 41.27090261401589 0.5 L 41.27090261401589 -0.5 L 32.5 -0.5 Z M 72.61855886401588 0.5 L 81.38946147803178 0.5 L 81.38946147803178 3.5 L 88.38946147803178 0 L 81.38946147803178 -3.5 L 81.38946147803178 -0.5 L 72.61855886401588 -0.5 Z"/><text text-anchor="middle" pointer-events="none" font-size="8px" fill="#000000" x="56.94473073901589" y="3" font-family="sans-serif">CALLS</text></g></g><g class="layer nodes"><g class="node" transform="translate(160.06567497664724,15.368764854166386)"><circle class="outline" cx="0" cy="0" r="32.5" fill="#FF756E" stroke="#E06760" stroke-width="2px"/><text text-anchor="middle" pointer-events="none" font-family="sans-serif" dy="2.03125" font-size="32.5" fill="#FFFFFF"/><text text-anchor="middle" pointer-events="none" font-family="sans-serif" dy="2.03125" font-size="32.5" fill="#FFFFFF"/><text text-anchor="middle" pointer-events="none" y="0" font-size="10px" fill="#FFFFFF" font-family="sans-serif"> Refugio</text><text text-anchor="middle" pointer-events="none" y="10" font-size="10px" fill="#FFFFFF" font-family="sans-serif"> Orrantia</text></g><g class="node" transform="translate(112.47692535448714,147.25980278626415)"><circle class="outline" cx="0" cy="0" r="32.5" fill="#FF756E" stroke="#E06760" stroke-width="2px"/><text text-anchor="middle" pointer-events="none" font-family="sans-serif" dy="2.03125" font-size="32.5" fill="#FFFFFF"/><text text-anchor="middle" pointer-events="none" y="5" font-size="10px" fill="#FFFFFF" font-family="sans-serif"> Ferne Hards</text></g><g class="node" transform="translate(526.1551026783529,256.70637678092226)"><circle class="outline" cx="0" cy="0" r="32.5" fill="#FF756E" stroke="#E06760" stroke-width="2px"/><text text-anchor="middle" pointer-events="none" font-family="sans-serif" dy="2.03125" font-size="32.5" fill="#FFFFFF"/><text text-anchor="middle" pointer-events="none" font-family="sans-serif" dy="2.03125" font-size="32.5" fill="#FFFFFF"/><text text-anchor="middle" pointer-events="none" y="0" font-size="10px" fill="#FFFFFF" font-family="sans-serif"> Melita</text><text text-anchor="middle" pointer-events="none" y="10" font-size="10px" fill="#FFFFFF" font-family="sans-serif"> Scarpaci</text></g><g class="node" transform="translate(427.0992960720332,189.11711944917997)"><circle class="outline" cx="0" cy="0" r="32.5" fill="#FF756E" stroke="#E06760" stroke-width="2px"/><text text-anchor="middle" pointer-events="none" font-family="sans-serif" dy="2.03125" font-size="32.5" fill="#FFFFFF"/><text text-anchor="middle" pointer-events="none" font-family="sans-serif" dy="2.03125" font-size="32.5" fill="#FFFFFF"/><text text-anchor="middle" pointer-events="none" y="0" font-size="10px" fill="#FFFFFF" font-family="sans-serif"> Sheilah</text><text text-anchor="middle" pointer-events="none" y="10" font-size="10px" fill="#FFFFFF" font-family="sans-serif"> Stachniw</text></g><g class="node" transform="translate(13.624578134123242,294.5338568479282)"><circle class="outline" cx="0" cy="0" r="32.5" fill="#FF756E" stroke="#E06760" stroke-width="2px"/><text text-anchor="middle" pointer-events="none" font-family="sans-serif" dy="2.03125" font-size="32.5" fill="#FFFFFF"/><text text-anchor="middle" pointer-events="none" y="5" font-size="10px" fill="#FFFFFF" font-family="sans-serif"> Ramiro Gault</text></g><g class="node" transform="translate(18.83184561023801,162.8858191872053)"><circle class="outline" cx="0" cy="0" r="32.5" fill="#FF756E" stroke="#E06760" stroke-width="2px"/><text text-anchor="middle" pointer-events="none" font-family="sans-serif" dy="2.03125" font-size="32.5" fill="#FFFFFF"/><text text-anchor="middle" pointer-events="none" font-family="sans-serif" dy="2.03125" font-size="32.5" fill="#FFFFFF"/><text text-anchor="middle" pointer-events="none" y="0" font-size="10px" fill="#FFFFFF" font-family="sans-serif"> Jose</text><text text-anchor="middle" pointer-events="none" y="10" font-size="10px" fill="#FFFFFF" font-family="sans-serif"> Ringwald</text></g><g class="node" transform="translate(380.56359215708443,117.1105107038131)"><circle class="outline" cx="0" cy="0" r="32.5" fill="#FF756E" stroke="#E06760" stroke-width="2px"/><text text-anchor="middle" pointer-events="none" font-family="sans-serif" dy="2.03125" font-size="32.5" fill="#FFFFFF"/><text text-anchor="middle" pointer-events="none" font-family="sans-serif" dy="2.03125" font-size="32.5" fill="#FFFFFF"/><text text-anchor="middle" pointer-events="none" y="0" font-size="10px" fill="#FFFFFF" font-family="sans-serif"> Augusta</text><text text-anchor="middle" pointer-events="none" y="10" font-size="10px" fill="#FFFFFF" font-family="sans-serif"> Sharp</text></g><g class="node" transform="translate(607.0094510884455,14.146156382523557)"><circle class="outline" cx="0" cy="0" r="32.5" fill="#FF756E" stroke="#E06760" stroke-width="2px"/><text text-anchor="middle" pointer-events="none" font-family="sans-serif" dy="2.03125" font-size="32.5" fill="#FFFFFF"/><text text-anchor="middle" pointer-events="none" font-family="sans-serif" dy="2.03125" font-size="32.5" fill="#FFFFFF"/><text text-anchor="middle" pointer-events="none" y="0" font-size="10px" fill="#FFFFFF" font-family="sans-serif"> Kerstin</text><text text-anchor="middle" pointer-events="none" y="10" font-size="10px" fill="#FFFFFF" font-family="sans-serif"> Belveal</text></g><g class="node" transform="translate(286.47121905914753,302.4070412321239)"><circle class="outline" cx="0" cy="0" r="32.5" fill="#FF756E" stroke="#E06760" stroke-width="2px"/><text text-anchor="middle" pointer-events="none" font-family="sans-serif" dy="2.03125" font-size="32.5" fill="#FFFFFF"/><text text-anchor="middle" pointer-events="none" y="5" font-size="10px" fill="#FFFFFF" font-family="sans-serif"> Dylan Ballard</text></g><g class="node" transform="translate(243.07835847030032,170.44696962882534)"><circle class="outline" cx="0" cy="0" r="32.5" fill="#FF756E" stroke="#E06760" stroke-width="2px"/><text text-anchor="middle" pointer-events="none" font-family="sans-serif" dy="2.03125" font-size="32.5" fill="#FFFFFF"/><text text-anchor="middle" pointer-events="none" font-family="sans-serif" dy="2.03125" font-size="32.5" fill="#FFFFFF"/><text text-anchor="middle" pointer-events="none" y="0" font-size="10px" fill="#FFFFFF" font-family="sans-serif"> Lindsy</text><text text-anchor="middle" pointer-events="none" y="10" font-size="10px" fill="#FFFFFF" font-family="sans-serif"> Henion</text></g><g class="node" transform="translate(253.59334136096203,66.63548381619889)"><circle class="outline" cx="0" cy="0" r="32.5" fill="#FF756E" stroke="#E06760" stroke-width="2px"/><text text-anchor="middle" pointer-events="none" font-family="sans-serif" dy="2.03125" font-size="32.5" fill="#FFFFFF"/><text text-anchor="middle" pointer-events="none" font-family="sans-serif" dy="2.03125" font-size="32.5" fill="#FFFFFF"/><text text-anchor="middle" pointer-events="none" y="0" font-size="10px" fill="#FFFFFF" font-family="sans-serif"> Meryl</text><text text-anchor="middle" pointer-events="none" y="10" font-size="10px" fill="#FFFFFF" font-family="sans-serif"> Pastuch</text></g><g class="node" transform="translate(385.5554504153209,-45.469152719009855)"><circle class="outline" cx="0" cy="0" r="32.5" fill="#FF756E" stroke="#E06760" stroke-width="2px"/><text text-anchor="middle" pointer-events="none" font-family="sans-serif" dy="2.03125" font-size="32.5" fill="#FFFFFF"/><text text-anchor="middle" pointer-events="none" y="5" font-size="10px" fill="#FFFFFF" font-family="sans-serif"> Julie Tierno</text></g><g class="node" transform="translate(298.5845550747633,-179.72325688025694)"><circle class="outline" cx="0" cy="0" r="32.5" fill="#FF756E" stroke="#E06760" stroke-width="2px"/><text text-anchor="middle" pointer-events="none" font-family="sans-serif" dy="2.03125" font-size="32.5" fill="#FFFFFF"/><text text-anchor="middle" pointer-events="none" y="5" font-size="10px" fill="#FFFFFF" font-family="sans-serif"> Alex Hall</text></g><g class="node" transform="translate(165.33658354013764,-156.3689712956755)"><circle class="outline" cx="0" cy="0" r="32.5" fill="#FF756E" stroke="#E06760" stroke-width="2px"/><text text-anchor="middle" pointer-events="none" font-family="sans-serif" dy="2.03125" font-size="32.5" fill="#FFFFFF"/><text text-anchor="middle" pointer-events="none" font-family="sans-serif" dy="2.03125" font-size="32.5" fill="#FFFFFF"/><text text-anchor="middle" pointer-events="none" y="0" font-size="10px" fill="#FFFFFF" font-family="sans-serif"> Sherrell</text><text text-anchor="middle" pointer-events="none" y="10" font-size="10px" fill="#FFFFFF" font-family="sans-serif"> Biebel</text></g><g class="node" transform="translate(432.8627159352722,314.6118511391275)"><circle class="outline" cx="0" cy="0" r="32.5" fill="#FF756E" stroke="#E06760" stroke-width="2px"/><text text-anchor="middle" pointer-events="none" font-family="sans-serif" dy="2.03125" font-size="32.5" fill="#FFFFFF"/><text text-anchor="middle" pointer-events="none" font-family="sans-serif" dy="2.03125" font-size="32.5" fill="#FFFFFF"/><text text-anchor="middle" pointer-events="none" y="0" font-size="10px" fill="#FFFFFF" font-family="sans-serif"> Lizbeth</text><text text-anchor="middle" pointer-events="none" y="10" font-size="10px" fill="#FFFFFF" font-family="sans-serif"> Jindra</text></g><g class="node" transform="translate(145.14107650119345,250.21719197682742)"><circle class="outline" cx="0" cy="0" r="32.5" fill="#FF756E" stroke="#E06760" stroke-width="2px"/><text text-anchor="middle" pointer-events="none" font-family="sans-serif" dy="2.03125" font-size="32.5" fill="#FFFFFF"/><text text-anchor="middle" pointer-events="none" y="5" font-size="10px" fill="#FFFFFF" font-family="sans-serif"> Tobi Gatlin</text></g><g class="node" transform="translate(252.44208983100856,-60.125436376033534)"><circle class="outline" cx="0" cy="0" r="32.5" fill="#FF756E" stroke="#E06760" stroke-width="2px"/><text text-anchor="middle" pointer-events="none" font-family="sans-serif" dy="2.03125" font-size="32.5" fill="#FFFFFF"/><text text-anchor="middle" pointer-events="none" y="5" font-size="10px" fill="#FFFFFF" font-family="sans-serif"> Richard Fox</text></g><g class="node" transform="translate(106.05875026766547,-110.43643863066002)"><circle class="outline" cx="0" cy="0" r="32.5" fill="#FF756E" stroke="#E06760" stroke-width="2px"/><text text-anchor="middle" pointer-events="none" font-family="sans-serif" dy="2.03125" font-size="32.5" fill="#FFFFFF"/><text text-anchor="middle" pointer-events="none" y="5" font-size="10px" fill="#FFFFFF" font-family="sans-serif"> Patrick Lane</text></g><g class="node" transform="translate(71.44788793228629,1.8689718614837791)"><circle class="outline" cx="0" cy="0" r="32.5" fill="#FF756E" stroke="#E06760" stroke-width="2px"/><text text-anchor="middle" pointer-events="none" font-family="sans-serif" dy="2.03125" font-size="32.5" fill="#FFFFFF"/><text text-anchor="middle" pointer-events="none" y="5" font-size="10px" fill="#FFFFFF" font-family="sans-serif"> Glen Grant</text></g><g class="node" transform="translate(-64.81195133324867,-35.37926737052832)"><circle class="outline" cx="0" cy="0" r="32.5" fill="#FF756E" stroke="#E06760" stroke-width="2px"/><text text-anchor="middle" pointer-events="none" font-family="sans-serif" dy="2.03125" font-size="32.5" fill="#FFFFFF"/><text text-anchor="middle" pointer-events="none" y="5" font-size="10px" fill="#FFFFFF" font-family="sans-serif"> May Burton</text></g><g class="node" transform="translate(334.02828533362754,9.025732722138102)"><circle class="outline" cx="0" cy="0" r="32.5" fill="#FF756E" stroke="#E06760" stroke-width="2px"/><text text-anchor="middle" pointer-events="none" font-family="sans-serif" dy="2.03125" font-size="32.5" fill="#FFFFFF"/><text text-anchor="middle" pointer-events="none" font-family="sans-serif" dy="2.03125" font-size="32.5" fill="#FFFFFF"/><text text-anchor="middle" pointer-events="none" y="0" font-size="10px" fill="#FFFFFF" font-family="sans-serif"> Rosalia</text><text text-anchor="middle" pointer-events="none" y="10" font-size="10px" fill="#FFFFFF" font-family="sans-serif"> Larroque</text></g><g class="node" transform="translate(-273.43935030998244,98.69074340094436)"><circle class="outline" cx="0" cy="0" r="32.5" fill="#FF756E" stroke="#E06760" stroke-width="2px"/><text text-anchor="middle" pointer-events="none" font-family="sans-serif" dy="2.03125" font-size="32.5" fill="#FFFFFF"/><text text-anchor="middle" pointer-events="none" y="5" font-size="10px" fill="#FFFFFF" font-family="sans-serif"> Martha Harris</text></g><g class="node" transform="translate(-253.92570370952734,217.99489040682624)"><circle class="outline" cx="0" cy="0" r="32.5" fill="#FF756E" stroke="#E06760" stroke-width="2px"/><text text-anchor="middle" pointer-events="none" font-family="sans-serif" dy="2.03125" font-size="32.5" fill="#FFFFFF"/><text text-anchor="middle" pointer-events="none" font-family="sans-serif" dy="2.03125" font-size="32.5" fill="#FFFFFF"/><text text-anchor="middle" pointer-events="none" y="0" font-size="10px" fill="#FFFFFF" font-family="sans-serif"> Madeline</text><text text-anchor="middle" pointer-events="none" y="10" font-size="10px" fill="#FFFFFF" font-family="sans-serif"> Nindorf</text></g></g></svg>