<svg xmlns="http://www.w3.org/2000/svg" width="708.05078125" height="660.707275390625" viewBox="-225.17149353027344 -200.2783203125 708.05078125 660.707275390625"><title>Neo4j Graph Visualization</title><desc>Created using Neo4j (http://www.neo4j.com/)</desc><g class="layer relationships"><g class="relationship" transform="translate(145.96595955168527 383.9656036676502) rotate(288.4444088160527)"><path class="outline" fill="#6DCE9E" stroke="none" d="M 31.26317983184346,8.894581878976458 L 31.52199887694598,7.92865605268739 A 115.44742189680913 115.44742189680913 0 0 0 44.29284169359711,10.587616948505598 L 44.144643072985886,11.576574565822398 A 116.44742189680913 116.44742189680913 0 0 1 31.26317983184346,8.894581878976458 Z M 75.52879424014479,12.002359659125105 L 75.407479369981,11.009745583929131 A 115.44742189680913 115.44742189680913 0 0 0 88.24575618476445,8.698220606756413 L 87.54819797068153,5.780445334744286 L 95.17015818847322,7.556880652564956 L 89.17583380354166,12.588587636105917 L 88.47827558945875,9.67081236409379 A 116.44742189680913 116.44742189680913 0 0 1 75.52879424014479,12.002359659125105"/><text text-anchor="middle" pointer-events="none" font-size="8px" fill="#000000" x="59.829090062772735" y="15.351762374909214" font-family="sans-serif">CALLS</text></g><g class="relationship" transform="translate(446.3793706866065 110.92546532693747) rotate(507.8481504423845)"><path class="outline" fill="#6DCE9E" stroke="none" d="M 32.5 0.5 L 41.36327449954074 0.5 L 41.36327449954074 -0.5 L 32.5 -0.5 Z M 72.71093074954075 0.5 L 81.57420524908149 0.5 L 81.57420524908149 3.5 L 88.57420524908149 0 L 81.57420524908149 -3.5 L 81.57420524908149 -0.5 L 72.71093074954075 -0.5 Z"/><text text-anchor="middle" pointer-events="none" font-size="8px" fill="#000000" x="57.03710262454074" y="3" transform="rotate(180 57.03710262454074 0)" font-family="sans-serif">CALLS</text></g><g class="relationship" transform="translate(27.22759572768899 423.92898081899745) rotate(341.39848170525204)"><path class="outline" fill="#6DCE9E" stroke="none" d="M 32.5 0.5 L 43.46775262800409 0.5 L 43.46775262800409 -0.5 L 32.5 -0.5 Z M 74.81540887800409 0.5 L 85.78316150600818 0.5 L 85.78316150600818 3.5 L 92.78316150600818 0 L 85.78316150600818 -3.5 L 85.78316150600818 -0.5 L 74.81540887800409 -0.5 Z"/><text text-anchor="middle" pointer-events="none" font-size="8px" fill="#000000" x="59.14158075300409" y="3" font-family="sans-serif">CALLS</text></g><g class="relationship" transform="translate(304.7030625036766 -104.33536382795697) rotate(465.3068955645721)"><path class="outline" fill="#68BDF6" stroke="none" d="M 32.5 0.5 L 41.36898309093789 0.5 L 41.36898309093789 -0.5 L 32.5 -0.5 Z M 76.71273309093789 0.5 L 85.58171618187578 0.5 L 85.58171618187578 3.5 L 92.58171618187578 0 L 85.58171618187578 -3.5 L 85.58171618187578 -0.5 L 76.71273309093789 -0.5 Z"/><text text-anchor="middle" pointer-events="none" font-size="8px" fill="#000000" x="59.04085809093789" y="3" transform="rotate(180 59.04085809093789 0)" font-family="sans-serif">EMAILS</text></g><g class="relationship" transform="translate(225.34161310554026 138.86551078779797) rotate(290.7127012215576)"><path class="outline" fill="#6DCE9E" stroke="none" d="M 31.26317983184346,-8.894581878976458 L 31.52199887694598,-7.92865605268739 A 123.89830290122673 123.89830290122673 0 0 1 46.40496210167612,-10.952900758731431 L 46.26626547049072,-11.94323567404939 A 124.89830290122673 124.89830290122673 0 0 0 31.26317983184346,-8.894581878976458 Z M 77.65399620978518,-12.355947922519107 L 77.54138653808096,-11.362308620841347 A 123.89830290122673 123.89830290122673 0 0 1 92.49872123357781,-8.730429216766879 L 91.7987241900438,-5.813238078181056 L 99.42216673086706,-7.583301304951817 L 93.4320506249565,-12.620017401547974 L 92.73205358142249,-9.702826262962152 A 124.89830290122673 124.89830290122673 0 0 0 77.65399620978518,-12.355947922519107"/><text text-anchor="middle" pointer-events="none" font-size="8px" fill="#000000" x="61.953687327256944" y="-9.639636007231175" font-family="sans-serif">CALLS</text></g><g class="relationship" transform="translate(225.34161310554026 138.86551078779797) rotate(467.46027614611256)"><path class="outline" fill="#6DCE9E" stroke="none" d="M 31.26317983184346,-8.894581878976458 L 31.52199887694598,-7.92865605268739 A 123.5753979997934 123.5753979997934 0 0 1 46.324147263293554,-10.939125734137619 L 46.18511054239097,-11.929412960269843 A 124.5753979997934 124.5753979997934 0 0 0 31.26317983184346,-8.894581878976458 Z M 77.57272859960096,-12.34261066127057 L 77.45980852517177,-11.349006586806851 A 123.5753979997934 123.5753979997934 0 0 1 92.33607541053028,-8.729234056611027 L 91.63616886379606,-5.8120212042743 L 99.25955649043834,-7.582320922953983 L 93.26928413950924,-12.618851193059998 L 92.56937759277501,-9.701638340723271 A 124.5753979997934 124.5753979997934 0 0 0 77.57272859960096,-12.34261066127057"/><text text-anchor="middle" pointer-events="none" font-size="8px" fill="#000000" x="61.87243449356073" y="-9.628635881803632" transform="rotate(180 61.87243449356073 -12.628635881803632)" font-family="sans-serif">CALLS</text></g><g class="relationship" transform="translate(225.34161310554026 138.86551078779797) rotate(192.95583541488708)"><path class="outline" fill="#68BDF6" stroke="none" d="M 32.5 0.5 L 41.38856573362119 0.5 L 41.38856573362119 -0.5 L 32.5 -0.5 Z M 76.73231573362119 0.5 L 85.62088146724238 0.5 L 85.62088146724238 3.5 L 92.62088146724238 0 L 85.62088146724238 -3.5 L 85.62088146724238 -0.5 L 76.73231573362119 -0.5 Z"/><text text-anchor="middle" pointer-events="none" font-size="8px" fill="#000000" x="59.06044073362119" y="3" transform="rotate(180 59.06044073362119 0)" font-family="sans-serif">EMAILS</text></g><g class="relationship" transform="translate(225.34161310554026 138.86551078779797) rotate(377.1116489821017)"><path class="outline" fill="#68BDF6" stroke="none" d="M 31.26317983184346,-8.894581878976458 L 31.52199887694598,-7.92865605268739 A 109.94868749607811 109.94868749607811 0 0 1 40.96006419813283,-10.017658056481281 L 40.787085789568366,-11.00258367304859 A 110.94868749607811 110.94868749607811 0 0 0 31.26317983184346,-8.894581878976458 Z M 76.13615454508711,-11.492273651143464 L 75.99052559061478,-10.502934372827227 A 109.94868749607811 109.94868749607811 0 0 1 85.48283588666702,-8.67617450291943 L 84.78694701479793,-5.758000642778678 L 92.40788970564029,-7.538796111915034 L 86.41068771582579,-12.5670729831071 L 85.7147988439567,-9.648899122966348 A 110.94868749607811 110.94868749607811 0 0 0 76.13615454508711,-11.492273651143464"/><text text-anchor="middle" pointer-events="none" font-size="8px" fill="#000000" x="58.44891640523732" y="-9.164470422548348" font-family="sans-serif">EMAILS</text></g><g class="relationship" transform="translate(271.68284871541647 16.309160309613894) rotate(470.7127012215576)"><path class="outline" fill="#68BDF6" stroke="none" d="M 31.26317983184346,-8.894581878976458 L 31.52199887694598,-7.92865605268739 A 123.89830290122673 123.89830290122673 0 0 1 44.436481013863876,-10.661077399928587 L 44.28189650494555,-11.649056969354234 A 124.89830290122673 124.89830290122673 0 0 0 31.26317983184346,-8.894581878976458 Z M 79.64541401105484,-12.114046201770222 L 79.51686002501638,-11.122343689585435 A 123.89830290122673 123.89830290122673 0 0 1 92.49872123357781,-8.730429216766879 L 91.7987241900438,-5.813238078181056 L 99.42216673086706,-7.583301304951817 L 93.4320506249565,-12.620017401547974 L 92.73205358142249,-9.702826262962152 A 124.89830290122673 124.89830290122673 0 0 0 79.64541401105484,-12.114046201770222"/><text text-anchor="middle" pointer-events="none" font-size="8px" fill="#000000" x="61.953687327256944" y="-9.639636007231175" transform="rotate(180 61.953687327256944 -12.639636007231175)" font-family="sans-serif">EMAILS</text></g><g class="relationship" transform="translate(58.537083353773326 278.2199047365141) rotate(353.5045082878403)"><path class="outline" fill="#68BDF6" stroke="none" d="M 32.5 0.5 L 43.01007290251434 0.5 L 43.01007290251434 -0.5 L 32.5 -0.5 Z M 78.35382290251434 0.5 L 88.86389580502868 0.5 L 88.86389580502868 3.5 L 95.86389580502868 0 L 88.86389580502868 -3.5 L 88.86389580502868 -0.5 L 78.35382290251434 -0.5 Z"/><text text-anchor="middle" pointer-events="none" font-size="8px" fill="#000000" x="60.68194790251434" y="3" font-family="sans-serif">EMAILS</text></g><g class="relationship" transform="translate(-68.71065567967803 -163.7783163539485) rotate(473.164663847038)"><path class="outline" fill="#68BDF6" stroke="none" d="M 32.5 0.5 L 54.750567829948594 0.5 L 54.750567829948594 -0.5 L 32.5 -0.5 Z M 90.0943178299486 0.5 L 112.34488565989719 0.5 L 112.34488565989719 3.5 L 119.34488565989719 0 L 112.34488565989719 -3.5 L 112.34488565989719 -0.5 L 90.0943178299486 -0.5 Z"/><text text-anchor="middle" pointer-events="none" font-size="8px" fill="#000000" x="72.4224428299486" y="3" transform="rotate(180 72.4224428299486 0)" font-family="sans-serif">EMAILS</text></g><g class="relationship" transform="translate(-68.71065567967803 -163.7783163539485) rotate(497.7889370106305)"><path class="outline" fill="#68BDF6" stroke="none" d="M 32.5 0.5 L 35.79282180546382 0.5 L 35.79282180546382 -0.5 L 32.5 -0.5 Z M 55.12875930546382 0.5 L 58.42158111092763 0.5 L 58.42158111092763 3.5 L 65.42158111092763 0 L 58.42158111092763 -3.5 L 58.42158111092763 -0.5 L 55.12875930546382 -0.5 Z"/><text text-anchor="middle" pointer-events="none" font-size="8px" fill="#000000" x="45.46079055546382" y="3" transform="rotate(180 45.46079055546382 0)" font-family="sans-serif">E…</text></g><g class="relationship" transform="translate(305.97513158679584 291.64960852351794) rotate(193.12252812142447)"><path class="outline" fill="#6DCE9E" stroke="none" d="M 32.5 0.5 L 42.382686538613754 0.5 L 42.382686538613754 -0.5 L 32.5 -0.5 Z M 73.73034278861375 0.5 L 83.61302932722751 0.5 L 83.61302932722751 3.5 L 90.61302932722751 0 L 83.61302932722751 -3.5 L 83.61302932722751 -0.5 L 73.73034278861375 -0.5 Z"/><text text-anchor="middle" pointer-events="none" font-size="8px" fill="#000000" x="58.056514663613754" y="3" transform="rotate(180 58.056514663613754 0)" font-family="sans-serif">CALLS</text></g><g class="relationship" transform="translate(186.07698049599315 263.69873456341014) rotate(468.4444088160527)"><path class="outline" fill="#6DCE9E" stroke="none" d="M 31.26317983184346,8.894581878976458 L 31.52199887694598,7.92865605268739 A 115.44742189680913 115.44742189680913 0 0 0 44.29284169359711,10.587616948505598 L 44.144643072985886,11.576574565822398 A 116.44742189680913 116.44742189680913 0 0 1 31.26317983184346,8.894581878976458 Z M 75.52879424014479,12.002359659125105 L 75.407479369981,11.009745583929131 A 115.44742189680913 115.44742189680913 0 0 0 88.24575618476445,8.698220606756413 L 87.54819797068153,5.780445334744286 L 95.17015818847322,7.556880652564956 L 89.17583380354166,12.588587636105917 L 88.47827558945875,9.67081236409379 A 116.44742189680913 116.44742189680913 0 0 1 75.52879424014479,12.002359659125105"/><text text-anchor="middle" pointer-events="none" font-size="8px" fill="#000000" x="59.829090062772735" y="15.351762374909214" transform="rotate(180 59.829090062772735 12.351762374909214)" font-family="sans-serif">CALLS</text></g><g class="relationship" transform="translate(186.07698049599315 263.69873456341014) rotate(287.46027614611256)"><path class="outline" fill="#68BDF6" stroke="none" d="M 31.26317983184346,-8.894581878976458 L 31.52199887694598,-7.92865605268739 A 123.5753979997934 123.5753979997934 0 0 1 44.35579340556535,-10.646588331911971 L 44.20082832117305,-11.634508279387106 A 124.5753979997934 124.5753979997934 0 0 0 31.26317983184346,-8.894581878976458 Z M 79.56408630057015,-12.100042709886083 L 79.43518106588505,-11.10838579317003 A 123.5753979997934 123.5753979997934 0 0 1 92.33607541053028,-8.729234056611027 L 91.63616886379606,-5.8120212042743 L 99.25955649043834,-7.582320922953983 L 93.26928413950924,-12.618851193059998 L 92.56937759277501,-9.701638340723271 A 124.5753979997934 124.5753979997934 0 0 0 79.56408630057015,-12.100042709886083"/><text text-anchor="middle" pointer-events="none" font-size="8px" fill="#000000" x="61.87243449356073" y="-9.628635881803632" font-family="sans-serif">EMAILS</text></g><g class="relationship" transform="translate(-128.44263367894717 -24.175450676477286) rotate(477.59249813664627)"><path class="outline" fill="#68BDF6" stroke="none" d="M 31.26317983184346,-8.894581878976458 L 31.52199887694598,-7.92865605268739 A 121.92585968154566 121.92585968154566 0 0 1 43.94375362196051,-10.572300944527768 L 43.78681415168698,-11.559909167797642 A 122.92585968154566 122.92585968154566 0 0 0 31.26317983184346,-8.894581878976458 Z M 79.1486991728892,-12.028247657400996 L 79.01797024602635,-11.036829507637094 A 121.92585968154566 121.92585968154566 0 0 1 91.50538144501458,-8.723085613679032 L 90.80594045523029,-5.805761102794175 L 98.42904546870996,-7.577277389329827 L 92.43796943139364,-12.612851628192175 L 91.73852844160935,-9.695527117307318 A 122.92585968154566 122.92585968154566 0 0 0 79.1486991728892,-12.028247657400996"/><text text-anchor="middle" pointer-events="none" font-size="8px" fill="#000000" x="61.45744787441671" y="-9.57244316268526" transform="rotate(180 61.45744787441671 -12.57244316268526)" font-family="sans-serif">EMAILS</text></g><g class="relationship" transform="translate(-5.354250377410477 -69.76265272700132) rotate(236.02428439630137)"><path class="outline" fill="#6DCE9E" stroke="none" d="M 32.5 0.5 L 37.51166186150464 0.5 L 37.51166186150464 -0.5 L 32.5 -0.5 Z M 68.85931811150465 0.5 L 73.87097997300928 0.5 L 73.87097997300928 3.5 L 80.87097997300928 0 L 73.87097997300928 -3.5 L 73.87097997300928 -0.5 L 68.85931811150465 -0.5 Z"/><text text-anchor="middle" pointer-events="none" font-size="8px" fill="#000000" x="53.18548998650464" y="3" transform="rotate(180 53.18548998650464 0)" font-family="sans-serif">CALLS</text></g><g class="relationship" transform="translate(-5.354250377410477 -69.76265272700132) rotate(449.39121840573955)"><path class="outline" fill="#6DCE9E" stroke="none" d="M 32.5 0.5 L 44.18626690881147 0.5 L 44.18626690881147 -0.5 L 32.5 -0.5 Z M 75.53392315881146 0.5 L 87.22019006762294 0.5 L 87.22019006762294 3.5 L 94.22019006762294 0 L 87.22019006762294 -3.5 L 87.22019006762294 -0.5 L 75.53392315881146 -0.5 Z"/><text text-anchor="middle" pointer-events="none" font-size="8px" fill="#000000" x="59.86009503381147" y="3" font-family="sans-serif">CALLS</text></g><g class="relationship" transform="translate(-5.354250377410477 -69.76265272700132) rotate(314.67245476841333)"><path class="outline" fill="#6DCE9E" stroke="none" d="M 32.5 0.5 L 44.669758057704975 0.5 L 44.669758057704975 -0.5 L 32.5 -0.5 Z M 76.01741430770497 0.5 L 88.18717236540995 0.5 L 88.18717236540995 3.5 L 95.18717236540995 0 L 88.18717236540995 -3.5 L 88.18717236540995 -0.5 L 76.01741430770497 -0.5 Z"/><text text-anchor="middle" pointer-events="none" font-size="8px" fill="#000000" x="60.343586182704975" y="3" font-family="sans-serif">CALLS</text></g><g class="relationship" transform="translate(-4.007842868131788 56.95038431967923) rotate(386.63164897727063)"><path class="outline" fill="#68BDF6" stroke="none" d="M 32.5 0.5 L 38.909197881102656 0.5 L 38.909197881102656 -0.5 L 32.5 -0.5 Z M 74.25294788110266 0.5 L 80.66214576220531 0.5 L 80.66214576220531 3.5 L 87.66214576220531 0 L 80.66214576220531 -3.5 L 80.66214576220531 -0.5 L 74.25294788110266 -0.5 Z"/><text text-anchor="middle" pointer-events="none" font-size="8px" fill="#000000" x="56.581072881102656" y="3" font-family="sans-serif">EMAILS</text></g><g class="relationship" transform="translate(-141.2387113035877 -97.98836883398886) rotate(371.73452268263105)"><path class="outline" fill="#68BDF6" stroke="none" d="M 32.5 0.5 L 48.22062778479305 0.5 L 48.22062778479305 -0.5 L 32.5 -0.5 Z M 83.56437778479305 0.5 L 99.2850055695861 0.5 L 99.2850055695861 3.5 L 106.2850055695861 0 L 99.2850055695861 -3.5 L 99.2850055695861 -0.5 L 83.56437778479305 -0.5 Z"/><text text-anchor="middle" pointer-events="none" font-size="8px" fill="#000000" x="65.89250278479305" y="3" font-family="sans-serif">EMAILS</text></g><g class="relationship" transform="translate(343.8730222758841 175.35691504053858) rotate(197.1116489821017)"><path class="outline" fill="#68BDF6" stroke="none" d="M 31.26317983184346,-8.894581878976458 L 31.52199887694598,-7.92865605268739 A 109.94868749607811 109.94868749607811 0 0 1 40.96006419813283,-10.017658056481281 L 40.787085789568366,-11.00258367304859 A 110.94868749607811 110.94868749607811 0 0 0 31.26317983184346,-8.894581878976458 Z M 76.13615454508711,-11.492273651143464 L 75.99052559061478,-10.502934372827227 A 109.94868749607811 109.94868749607811 0 0 1 85.48283588666702,-8.67617450291943 L 84.78694701479793,-5.758000642778678 L 92.40788970564029,-7.538796111915034 L 86.41068771582579,-12.5670729831071 L 85.7147988439567,-9.648899122966348 A 110.94868749607811 110.94868749607811 0 0 0 76.13615454508711,-11.492273651143464"/><text text-anchor="middle" pointer-events="none" font-size="8px" fill="#000000" x="58.44891640523732" y="-9.164470422548348" transform="rotate(180 58.44891640523732 -12.164470422548348)" font-family="sans-serif">EMAILS</text></g><g class="relationship" transform="translate(343.8730222758841 175.35691504053858) rotate(468.0499437352346)"><path class="outline" fill="#68BDF6" stroke="none" d="M 32.5 0.5 L 39.984156338307656 0.5 L 39.984156338307656 -0.5 L 32.5 -0.5 Z M 75.32790633830766 0.5 L 82.81206267661531 0.5 L 82.81206267661531 3.5 L 89.81206267661531 0 L 82.81206267661531 -3.5 L 82.81206267661531 -0.5 L 75.32790633830766 -0.5 Z"/><text text-anchor="middle" pointer-events="none" font-size="8px" fill="#000000" x="57.656031338307656" y="3" transform="rotate(180 57.656031338307656 0)" font-family="sans-serif">EMAILS</text></g><g class="relationship" transform="translate(-188.67150107935976 91.0684956910818) rotate(297.59249813664627)"><path class="outline" fill="#68BDF6" stroke="none" d="M 31.26317983184346,-8.894581878976458 L 31.52199887694598,-7.92865605268739 A 121.92585968154566 121.92585968154566 0 0 1 43.94375362196051,-10.572300944527768 L 43.78681415168698,-11.559909167797642 A 122.92585968154566 122.92585968154566 0 0 0 31.26317983184346,-8.894581878976458 Z M 79.1486991728892,-12.028247657400996 L 79.01797024602635,-11.036829507637094 A 121.92585968154566 121.92585968154566 0 0 1 91.50538144501458,-8.723085613679032 L 90.80594045523029,-5.805761102794175 L 98.42904546870996,-7.577277389329827 L 92.43796943139364,-12.612851628192175 L 91.73852844160935,-9.695527117307318 A 122.92585968154566 122.92585968154566 0 0 0 79.1486991728892,-12.028247657400996"/><text text-anchor="middle" pointer-events="none" font-size="8px" fill="#000000" x="61.45744787441671" y="-9.57244316268526" font-family="sans-serif">EMAILS</text></g></g><g class="layer nodes"><g class="node" transform="translate(145.96595955168527,383.9656036676502)"><circle class="outline" cx="0" cy="0" r="32.5" fill="#FF756E" stroke="#E06760" stroke-width="2px"/><text text-anchor="middle" pointer-events="none" font-family="sans-serif" dy="2.03125" font-size="32.5" fill="#FFFFFF"/><text text-anchor="middle" pointer-events="none" font-family="sans-serif" dy="2.03125" font-size="32.5" fill="#FFFFFF"/><text text-anchor="middle" pointer-events="none" y="0" font-size="10px" fill="#FFFFFF" font-family="sans-serif"> Refugio</text><text text-anchor="middle" pointer-events="none" y="10" font-size="10px" fill="#FFFFFF" font-family="sans-serif"> Orrantia</text></g><g class="node" transform="translate(186.07698049599315,263.69873456341014)"><circle class="outline" cx="0" cy="0" r="32.5" fill="#FF756E" stroke="#E06760" stroke-width="2px"/><text text-anchor="middle" pointer-events="none" font-family="sans-serif" dy="2.03125" font-size="32.5" fill="#FFFFFF"/><text text-anchor="middle" pointer-events="none" y="5" font-size="10px" fill="#FFFFFF" font-family="sans-serif"> Tobi Gatlin</text></g><g class="node" transform="translate(446.3793706866065,110.92546532693747)"><circle class="outline" cx="0" cy="0" r="32.5" fill="#FF756E" stroke="#E06760" stroke-width="2px"/><text text-anchor="middle" pointer-events="none" font-family="sans-serif" dy="2.03125" font-size="32.5" fill="#FFFFFF"/><text text-anchor="middle" pointer-events="none" font-family="sans-serif" dy="2.03125" font-size="32.5" fill="#FFFFFF"/><text text-anchor="middle" pointer-events="none" y="0" font-size="10px" fill="#FFFFFF" font-family="sans-serif"> Madeline</text><text text-anchor="middle" pointer-events="none" y="10" font-size="10px" fill="#FFFFFF" font-family="sans-serif"> Nindorf</text></g><g class="node" transform="translate(343.8730222758841,175.35691504053858)"><circle class="outline" cx="0" cy="0" r="32.5" fill="#FF756E" stroke="#E06760" stroke-width="2px"/><text text-anchor="middle" pointer-events="none" font-family="sans-serif" dy="2.03125" font-size="32.5" fill="#FFFFFF"/><text text-anchor="middle" pointer-events="none" y="5" font-size="10px" fill="#FFFFFF" font-family="sans-serif"> Julie Tierno</text></g><g class="node" transform="translate(27.22759572768899,423.92898081899745)"><circle class="outline" cx="0" cy="0" r="32.5" fill="#FF756E" stroke="#E06760" stroke-width="2px"/><text text-anchor="middle" pointer-events="none" font-family="sans-serif" dy="2.03125" font-size="32.5" fill="#FFFFFF"/><text text-anchor="middle" pointer-events="none" y="5" font-size="10px" fill="#FFFFFF" font-family="sans-serif"> Ramiro Gault</text></g><g class="node" transform="translate(304.7030625036766,-104.33536382795697)"><circle class="outline" cx="0" cy="0" r="32.5" fill="#FF756E" stroke="#E06760" stroke-width="2px"/><text text-anchor="middle" pointer-events="none" font-family="sans-serif" dy="2.03125" font-size="32.5" fill="#FFFFFF"/><text text-anchor="middle" pointer-events="none" font-family="sans-serif" dy="2.03125" font-size="32.5" fill="#FFFFFF"/><text text-anchor="middle" pointer-events="none" y="0" font-size="10px" fill="#FFFFFF" font-family="sans-serif"> Augusta</text><text text-anchor="middle" pointer-events="none" y="10" font-size="10px" fill="#FFFFFF" font-family="sans-serif"> Sharp</text></g><g class="node" transform="translate(271.68284871541647,16.309160309613894)"><circle class="outline" cx="0" cy="0" r="32.5" fill="#FF756E" stroke="#E06760" stroke-width="2px"/><text text-anchor="middle" pointer-events="none" font-family="sans-serif" dy="2.03125" font-size="32.5" fill="#FFFFFF"/><text text-anchor="middle" pointer-events="none" font-family="sans-serif" dy="2.03125" font-size="32.5" fill="#FFFFFF"/><text text-anchor="middle" pointer-events="none" y="0" font-size="10px" fill="#FFFFFF" font-family="sans-serif"> Kerstin</text><text text-anchor="middle" pointer-events="none" y="10" font-size="10px" fill="#FFFFFF" font-family="sans-serif"> Belveal</text></g><g class="node" transform="translate(225.34161310554026,138.86551078779797)"><circle class="outline" cx="0" cy="0" r="32.5" fill="#FF756E" stroke="#E06760" stroke-width="2px"/><text text-anchor="middle" pointer-events="none" font-family="sans-serif" dy="2.03125" font-size="32.5" fill="#FFFFFF"/><text text-anchor="middle" pointer-events="none" font-family="sans-serif" dy="2.03125" font-size="32.5" fill="#FFFFFF"/><text text-anchor="middle" pointer-events="none" y="0" font-size="10px" fill="#FFFFFF" font-family="sans-serif"> Jose</text><text text-anchor="middle" pointer-events="none" y="10" font-size="10px" fill="#FFFFFF" font-family="sans-serif"> Ringwald</text></g><g class="node" transform="translate(103.40591246026976,110.81341840083515)"><circle class="outline" cx="0" cy="0" r="32.5" fill="#FF756E" stroke="#E06760" stroke-width="2px"/><text text-anchor="middle" pointer-events="none" font-family="sans-serif" dy="2.03125" font-size="32.5" fill="#FFFFFF"/><text text-anchor="middle" pointer-events="none" y="5" font-size="10px" fill="#FFFFFF" font-family="sans-serif"> Glen Grant</text></g><g class="node" transform="translate(58.537083353773326,278.2199047365141)"><circle class="outline" cx="0" cy="0" r="32.5" fill="#FF756E" stroke="#E06760" stroke-width="2px"/><text text-anchor="middle" pointer-events="none" font-family="sans-serif" dy="2.03125" font-size="32.5" fill="#FFFFFF"/><text text-anchor="middle" pointer-events="none" font-family="sans-serif" dy="2.03125" font-size="32.5" fill="#FFFFFF"/><text text-anchor="middle" pointer-events="none" y="0" font-size="10px" fill="#FFFFFF" font-family="sans-serif"> Sheilah</text><text text-anchor="middle" pointer-events="none" y="10" font-size="10px" fill="#FFFFFF" font-family="sans-serif"> Stachniw</text></g><g class="node" transform="translate(-68.71065567967803,-163.7783163539485)"><circle class="outline" cx="0" cy="0" r="32.5" fill="#FF756E" stroke="#E06760" stroke-width="2px"/><text text-anchor="middle" pointer-events="none" font-family="sans-serif" dy="2.03125" font-size="32.5" fill="#FFFFFF"/><text text-anchor="middle" pointer-events="none" y="5" font-size="10px" fill="#FFFFFF" font-family="sans-serif"> Richard Fox</text></g><g class="node" transform="translate(-128.44263367894717,-24.175450676477286)"><circle class="outline" cx="0" cy="0" r="32.5" fill="#FF756E" stroke="#E06760" stroke-width="2px"/><text text-anchor="middle" pointer-events="none" font-family="sans-serif" dy="2.03125" font-size="32.5" fill="#FFFFFF"/><text text-anchor="middle" pointer-events="none" y="5" font-size="10px" fill="#FFFFFF" font-family="sans-serif"> Patrick Lane</text></g><g class="node" transform="translate(-141.2387113035877,-97.98836883398886)"><circle class="outline" cx="0" cy="0" r="32.5" fill="#FF756E" stroke="#E06760" stroke-width="2px"/><text text-anchor="middle" pointer-events="none" font-family="sans-serif" dy="2.03125" font-size="32.5" fill="#FFFFFF"/><text text-anchor="middle" pointer-events="none" font-family="sans-serif" dy="2.03125" font-size="32.5" fill="#FFFFFF"/><text text-anchor="middle" pointer-events="none" y="0" font-size="10px" fill="#FFFFFF" font-family="sans-serif"> Meryl</text><text text-anchor="middle" pointer-events="none" y="10" font-size="10px" fill="#FFFFFF" font-family="sans-serif"> Pastuch</text></g><g class="node" transform="translate(305.97513158679584,291.64960852351794)"><circle class="outline" cx="0" cy="0" r="32.5" fill="#FF756E" stroke="#E06760" stroke-width="2px"/><text text-anchor="middle" pointer-events="none" font-family="sans-serif" dy="2.03125" font-size="32.5" fill="#FFFFFF"/><text text-anchor="middle" pointer-events="none" y="5" font-size="10px" fill="#FFFFFF" font-family="sans-serif"> Ferne Hards</text></g><g class="node" transform="translate(-188.67150107935976,91.0684956910818)"><circle class="outline" cx="0" cy="0" r="32.5" fill="#FF756E" stroke="#E06760" stroke-width="2px"/><text text-anchor="middle" pointer-events="none" font-family="sans-serif" dy="2.03125" font-size="32.5" fill="#FFFFFF"/><text text-anchor="middle" pointer-events="none" y="5" font-size="10px" fill="#FFFFFF" font-family="sans-serif"> Martha Harris</text></g><g class="node" transform="translate(-5.354250377410477,-69.76265272700132)"><circle class="outline" cx="0" cy="0" r="32.5" fill="#FF756E" stroke="#E06760" stroke-width="2px"/><text text-anchor="middle" pointer-events="none" font-family="sans-serif" dy="2.03125" font-size="32.5" fill="#FFFFFF"/><text text-anchor="middle" pointer-events="none" font-family="sans-serif" dy="2.03125" font-size="32.5" fill="#FFFFFF"/><text text-anchor="middle" pointer-events="none" y="0" font-size="10px" fill="#FFFFFF" font-family="sans-serif"> Lindsy</text><text text-anchor="middle" pointer-events="none" y="10" font-size="10px" fill="#FFFFFF" font-family="sans-serif"> Henion</text></g><g class="node" transform="translate(-4.007842868131788,56.95038431967923)"><circle class="outline" cx="0" cy="0" r="32.5" fill="#FF756E" stroke="#E06760" stroke-width="2px"/><text text-anchor="middle" pointer-events="none" font-family="sans-serif" dy="2.03125" font-size="32.5" fill="#FFFFFF"/><text text-anchor="middle" pointer-events="none" y="5" font-size="10px" fill="#FFFFFF" font-family="sans-serif"> Sara Ballard</text></g><g class="node" transform="translate(84.41658659341331,-160.56579593378513)"><circle class="outline" cx="0" cy="0" r="32.5" fill="#FF756E" stroke="#E06760" stroke-width="2px"/><text text-anchor="middle" pointer-events="none" font-family="sans-serif" dy="2.03125" font-size="32.5" fill="#FFFFFF"/><text text-anchor="middle" pointer-events="none" font-family="sans-serif" dy="2.03125" font-size="32.5" fill="#FFFFFF"/><text text-anchor="middle" pointer-events="none" y="0" font-size="10px" fill="#FFFFFF" font-family="sans-serif"> Rosalia</text><text text-anchor="middle" pointer-events="none" y="10" font-size="10px" fill="#FFFFFF" font-family="sans-serif"> Larroque</text></g></g></svg>