<svg xmlns="http://www.w3.org/2000/svg" width="654.3154296875" height="506.35308837890625" viewBox="-9.791898727416992 -157.4793243408203 654.3154296875 506.35308837890625"><title>Neo4j Graph Visualization</title><desc>Created using Neo4j (http://www.neo4j.com/)</desc><g class="layer relationships"><g class="relationship" transform="translate(464.57501405269227 277.36071609251735) rotate(357.60001603393164)"><path class="outline" fill="#6DCE9E" stroke="none" d="M 31.26317983184346,-8.894581878976458 L 31.52199887694598,-7.92865605268739 A 148.7914279593519 148.7914279593519 0 0 1 52.65741714225899,-11.980685642172404 L 52.54064538143341,-12.973844418941582 A 149.7914279593519 149.7914279593519 0 0 0 31.26317983184346,-8.894581878976458 Z M 83.93326090395115,-13.35216406085442 L 83.84045715067565,-12.356479641282675 A 148.7914279593519 148.7914279593519 0 0 1 105.06738692513173,-8.814968467489969 L 104.36098871607878,-5.899320757246706 L 111.98829795054151,-7.652647264740294 L 106.009251203869,-12.702498747814321 L 105.30285299481605,-9.786851037571058 A 149.7914279593519 149.7914279593519 0 0 0 83.93326090395115,-13.35216406085442"/><text text-anchor="middle" pointer-events="none" font-size="8px" fill="#000000" x="68.2330394212836" y="-10.48776123856598" font-family="sans-serif">CALLS</text></g><g class="relationship" transform="translate(464.57501405269227 277.36071609251735) rotate(208.74264341528442)"><path class="outline" fill="#6DCE9E" stroke="none" d="M 27.89582562299426,16.683012701892217 L 28.39582562299426,15.816987298107778 A 247.1886953187941 247.1886953187941 0 0 0 133.58944459536727,48.24816632342612 L 133.51500458643687,49.24539181701843 A 248.1886953187941 248.1886953187941 0 0 1 27.89582562299426,16.683012701892217 Z M 164.9030028931298,49.597849185086005 L 164.85097461845697,48.59920357295195 A 247.1886953187941 247.1886953187941 0 0 0 270.7463196491701,18.538352848077047 L 269.3050383695353,15.90724884538651 L 277.1257758687205,15.613880529377518 L 272.66802802201653,22.0464915183311 L 271.2267467423817,19.41538751564056 A 248.1886953187941 248.1886953187941 0 0 1 164.9030028931298,49.597849185086005"/><text text-anchor="middle" pointer-events="none" font-size="8px" fill="#000000" x="149.20904014218584" y="52.41837869466161" transform="rotate(180 149.20904014218584 49.41837869466161)" font-family="sans-serif">CALLS</text></g><g class="relationship" transform="translate(464.57501405269227 277.36071609251735) rotate(254.12820528008461)"><path class="outline" fill="#6DCE9E" stroke="none" d="M 15.816987298107785,28.395825622994256 L 16.683012701892224,27.895825622994256 A 88.73407818347158 88.73407818347158 0 0 0 75.29074331115588,70.36831327442798 L 75.08520519488327,71.34696238558024 A 89.73407818347158 89.73407818347158 0 0 1 15.816987298107785,28.395825622994256 Z M 106.43124000290217,72.33045564775082 L 106.28745670815044,71.340846450062 A 88.73407818347158 88.73407818347158 0 0 0 167.4424708038627,32.62595854602149 L 164.9435382496462,30.966038039046236 L 171.7321074125077,27.07176933734552 L 170.77438087615135,34.83918588865516 L 168.27544832193485,33.179265381679905 A 89.73407818347158 89.73407818347158 0 0 1 106.43124000290217,72.33045564775082"/><text text-anchor="middle" pointer-events="none" font-size="8px" fill="#000000" x="90.73060391724827" y="75.71897550091953" transform="rotate(180 90.73060391724827 72.71897550091953)" font-family="sans-serif">CALLS</text></g><g class="relationship" transform="translate(464.57501405269227 277.36071609251735) rotate(254.12820528008461)"><path class="outline" fill="#68BDF6" stroke="none" d="M 27.89582562299426,16.683012701892217 L 28.39582562299426,15.816987298107778 A 130.26630593435755 130.26630593435755 0 0 0 73.67377946326475,31.74730563125506 L 73.52135939589205,32.73562143253626 A 131.26630593435755 131.26630593435755 0 0 1 27.89582562299426,16.683012701892217 Z M 108.88670564720042,33.367865594329245 L 108.76970892860069,32.374733293053694 A 130.26630593435755 130.26630593435755 0 0 0 154.58813659026256,18.072990994643526 L 153.18195966149807,15.422959590110647 L 161.00590602230002,15.233583394948557 L 156.46303916194853,21.606366200687365 L 155.05686223318403,18.956334796154486 A 131.26630593435755 131.26630593435755 0 0 1 108.88670564720042,33.367865594329245"/><text text-anchor="middle" pointer-events="none" font-size="8px" fill="#000000" x="91.19157676783078" y="36.748471248677575" transform="rotate(180 91.19157676783078 33.748471248677575)" font-family="sans-serif">EMAILS</text></g><g class="relationship" transform="translate(464.57501405269227 277.36071609251735) rotate(279.96629585152317)"><path class="outline" fill="#68BDF6" stroke="none" d="M 31.26317983184346,8.894581878976458 L 31.52199887694598,7.92865605268739 A 591.6550239669743 591.6550239669743 0 0 0 164.16069036130722,27.73380384701079 L 164.12605379773765,28.733203821227335 A 592.6550239669743 592.6550239669743 0 0 1 31.26317983184346,8.894581878976458 Z M 199.49398912362682,28.902977140890812 L 199.46894858349253,27.903290704377014 A 591.6550239669743 591.6550239669743 0 0 0 332.2916608323074,9.3724119149885 L 331.5430586859136,6.4673138398084955 L 339.1949900321264,8.109856585932938 L 333.28979702749916,13.245876015228509 L 332.54119488110535,10.340777940048504 A 592.6550239669743 592.6550239669743 0 0 1 199.49398912362682,28.902977140890812"/><text text-anchor="middle" pointer-events="none" font-size="8px" fill="#000000" x="181.81115479112546" y="31.58199002724359" font-family="sans-serif">EMAILS</text></g><g class="relationship" transform="translate(464.57501405269227 277.36071609251735) rotate(208.74264341528442)"><path class="outline" fill="#68BDF6" stroke="none" d="M 32.5 0.5 L 131.64282628226744 0.5 L 131.64282628226744 -0.5 L 32.5 -0.5 Z M 166.98657628226744 0.5 L 266.12940256453487 0.5 L 266.12940256453487 3.5 L 273.12940256453487 0 L 266.12940256453487 -3.5 L 266.12940256453487 -0.5 L 166.98657628226744 -0.5 Z"/><text text-anchor="middle" pointer-events="none" font-size="8px" fill="#000000" x="149.31470128226744" y="3" transform="rotate(180 149.31470128226744 0)" font-family="sans-serif">EMAILS</text></g><g class="relationship" transform="translate(464.57501405269227 277.36071609251735) rotate(357.60001603393164)"><path class="outline" fill="#FB95AF" stroke="none" d="M 29.710265561228333,14.690136836710867 L 33.074913147561105,2.1331010949529796 A 128.09813439564854 128.09813439564854 0 0 0 91.8139024413287,3.9169449536856824 L 91.21471918411474,0.977390663614738 L 111.72931000240821,6.491151953151077 L 95.00954647980306,19.594567834064048 L 94.41036322258911,16.655013543993103 A 141.09813439564854 141.09813439564854 0 0 1 29.710265561228333,14.690136836710867"/><text text-anchor="middle" pointer-events="none" font-size="8px" fill="#FFFFFF" x="62.143424038396255" y="15.935913788436977" font-family="sans-serif">PURCHASE…</text></g><g class="relationship" transform="translate(26.708100929513535 67.18994853495619) rotate(321.9244978969091)"><path class="outline" fill="#FB95AF" stroke="none" d="M 32.5 6.5 L 193.53150539034155 6.5 L 193.53150539034155 9.5 L 212.53150539034155 0 L 193.53150539034155 -9.5 L 193.53150539034155 -6.5 L 32.5 -6.5 Z"/><text text-anchor="middle" pointer-events="none" font-size="8px" fill="#FFFFFF" x="113.01575269517078" y="3" font-family="sans-serif">PURCHASES_FROM</text></g><g class="relationship" transform="translate(26.708100929513535 67.18994853495619) rotate(380.4052260696325)"><path class="outline" fill="#68BDF6" stroke="none" d="M 31.26317983184346,-8.894581878976458 L 31.52199887694598,-7.92865605268739 A 223.02218592724097 223.02218592724097 0 0 1 69.48914862731708,-14.651273041968807 L 69.40056892227177,-15.647342133876634 A 224.02218592724097 224.02218592724097 0 0 0 31.26317983184346,-8.894581878976458 Z M 104.78484641472788,-15.988280558200074 L 104.71547623929149,-14.990689570490218 A 223.02218592724097 223.02218592724097 0 0 1 142.8051139160748,-9.000903180054408 L 142.08463771387886,-6.088702286903431 L 149.7203287004597,-7.80515885712243 L 143.765748852336,-12.883837704255711 L 143.04527265014008,-9.971636811104734 A 224.02218592724097 224.02218592724097 0 0 0 104.78484641472788,-15.988280558200074"/><text text-anchor="middle" pointer-events="none" font-size="8px" fill="#000000" x="87.09078285834194" y="-13.017577672998812" font-family="sans-serif">EMAILS</text></g><g class="relationship" transform="translate(196.60266684494138 130.39081154086045) rotate(350.6674094817921)"><path class="outline" fill="#6DCE9E" stroke="none" d="M 27.89582562299426,-16.683012701892217 L 28.39582562299426,-15.816987298107778 A 159.89354135851707 159.89354135851707 0 0 1 90.26984166409055,-36.21399567094893 L 90.15681174127685,-37.20758725532791 A 160.89354135851707 160.89354135851707 0 0 0 27.89582562299426,-16.683012701892217 Z M 121.54836938654293,-37.69579431389026 L 121.46629167868227,-36.69916838111892 A 159.89354135851707 159.89354135851707 0 0 1 183.94466634732524,-18.23611039008543 L 182.52618372314802,-15.59264542059797 L 190.3491650468255,-15.366895095253167 L 185.83597651289486,-21.760730349402035 L 184.41749388871764,-19.117265379914578 A 160.89354135851707 160.89354135851707 0 0 0 121.54836938654293,-37.69579431389026"/><text text-anchor="middle" pointer-events="none" font-size="8px" fill="#000000" x="105.84842918296856" y="-34.71926624754515" font-family="sans-serif">CALLS</text></g><g class="relationship" transform="translate(196.60266684494138 130.39081154086045) rotate(276.12395470120725)"><path class="outline" fill="#FB95AF" stroke="none" d="M 32.5 6.5 L 164.04163660562557 6.5 L 164.04163660562557 9.5 L 183.04163660562557 0 L 164.04163660562557 -9.5 L 164.04163660562557 -6.5 L 32.5 -6.5 Z"/><text text-anchor="middle" pointer-events="none" font-size="8px" fill="#FFFFFF" x="98.27081830281278" y="3" font-family="sans-serif">PURCHASES_FROM</text></g><g class="relationship" transform="translate(196.60266684494138 130.39081154086045) rotate(388.7426434152844)"><path class="outline" fill="#68BDF6" stroke="none" d="M 27.89582562299426,16.683012701892217 L 28.39582562299426,15.816987298107778 A 247.1886953187941 247.1886953187941 0 0 0 131.6015837622526,48.09171328828231 L 131.51910187733532,49.0883058523026 A 248.1886953187941 248.1886953187941 0 0 1 27.89582562299426,16.683012701892217 Z M 166.90192973998393,49.48562135682769 L 166.8418474044914,48.4874279322041 A 247.1886953187941 247.1886953187941 0 0 0 270.7463196491701,18.538352848077047 L 269.3050383695353,15.90724884538651 L 277.1257758687205,15.613880529377518 L 272.66802802201653,22.0464915183311 L 271.2267467423817,19.41538751564056 A 248.1886953187941 248.1886953187941 0 0 1 166.90192973998393,49.48562135682769"/><text text-anchor="middle" pointer-events="none" font-size="8px" fill="#000000" x="149.20904014218584" y="52.41837869466161" font-family="sans-serif">EMAILS</text></g><g class="relationship" transform="translate(196.60266684494138 130.39081154086045) rotate(200.40522606963248)"><path class="outline" fill="#68BDF6" stroke="none" d="M 31.26317983184346,-8.894581878976458 L 31.52199887694598,-7.92865605268739 A 223.02218592724097 223.02218592724097 0 0 1 69.48914862731708,-14.651273041968807 L 69.40056892227177,-15.647342133876634 A 224.02218592724097 224.02218592724097 0 0 0 31.26317983184346,-8.894581878976458 Z M 104.78484641472788,-15.988280558200074 L 104.71547623929149,-14.990689570490218 A 223.02218592724097 223.02218592724097 0 0 1 142.8051139160748,-9.000903180054408 L 142.08463771387886,-6.088702286903431 L 149.7203287004597,-7.80515885712243 L 143.765748852336,-12.883837704255711 L 143.04527265014008,-9.971636811104734 A 224.02218592724097 224.02218592724097 0 0 0 104.78484641472788,-15.988280558200074"/><text text-anchor="middle" pointer-events="none" font-size="8px" fill="#000000" x="87.09078285834194" y="-13.017577672998812" transform="rotate(180 87.09078285834194 -16.01757767299881)" font-family="sans-serif">EMAILS</text></g><g class="relationship" transform="translate(196.60266684494138 130.39081154086045) rotate(235.31873493961655)"><path class="outline" fill="#68BDF6" stroke="none" d="M 31.26317983184346,-8.894581878976458 L 31.52199887694598,-7.92865605268739 A 352.4946616485818 352.4946616485818 0 0 1 102.60726478960756,-19.363389953443402 L 102.55010912737785,-20.361755232424514 A 353.4946616485818 353.4946616485818 0 0 0 31.26317983184346,-8.894581878976458 Z M 137.92824146994226,-20.613796891536367 L 137.88531603850686,-19.614718612653235 A 352.4946616485818 352.4946616485818 0 0 1 209.12628540865373,-9.193948369686533 L 208.3911938098522,-6.285402282485675 L 216.03540821192266,-7.963492320349795 L 210.1064075403891,-13.072009819287677 L 209.3713159415876,-10.16346373208682 A 353.4946616485818 353.4946616485818 0 0 0 137.92824146994226,-20.613796891536367"/><text text-anchor="middle" pointer-events="none" font-size="8px" fill="#000000" x="120.23958218700798" y="-17.430662686864764" transform="rotate(180 120.23958218700798 -20.430662686864764)" font-family="sans-serif">EMAILS</text></g><g class="relationship" transform="translate(55.747117140500094 -73.17262223167981) rotate(356.24688835659333)"><path class="outline" fill="#FB95AF" stroke="none" d="M 32.5 6.5 L 112.7016365533411 6.5 L 112.7016365533411 9.5 L 131.7016365533411 0 L 112.7016365533411 -9.5 L 112.7016365533411 -6.5 L 32.5 -6.5 Z"/><text text-anchor="middle" pointer-events="none" font-size="8px" fill="#FFFFFF" x="72.60081827667055" y="3" font-family="sans-serif">PURCHASES_FR…</text></g><g class="relationship" transform="translate(55.747117140500094 -73.17262223167981) rotate(358.23919546103275)"><path class="outline" fill="#68BDF6" stroke="none" d="M 31.26317983184346,8.894581878976458 L 31.52199887694598,7.92865605268739 A 790.3072609966471 790.3072609966471 0 0 0 215.4270331414454,34.588115333750125 L 215.40091477282735,35.587774190971345 A 791.3072609966471 791.3072609966471 0 0 1 31.26317983184346,8.894581878976458 Z M 250.76381606713625,35.721259589849296 L 250.7452452195202,34.721432042909896 A 790.3072609966471 790.3072609966471 0 0 0 434.8463004309621,9.451096330482669 L 434.09174176472413,6.5475396805780814 L 441.74702572511245,8.174385550911467 L 435.85237865261274,13.322505197022119 L 435.09781998637476,10.418948547117532 A 791.3072609966471 791.3072609966471 0 0 1 250.76381606713625,35.721259589849296"/><text text-anchor="middle" pointer-events="none" font-size="8px" fill="#000000" x="233.0835070033135" y="38.35208906670982" font-family="sans-serif">EMAILS</text></g><g class="relationship" transform="translate(55.747117140500094 -73.17262223167981) rotate(415.31873493961655)"><path class="outline" fill="#68BDF6" stroke="none" d="M 31.26317983184346,-8.894581878976458 L 31.52199887694598,-7.92865605268739 A 352.4946616485818 352.4946616485818 0 0 1 102.60726478960756,-19.363389953443402 L 102.55010912737785,-20.361755232424514 A 353.4946616485818 353.4946616485818 0 0 0 31.26317983184346,-8.894581878976458 Z M 137.92824146994226,-20.613796891536367 L 137.88531603850686,-19.614718612653235 A 352.4946616485818 352.4946616485818 0 0 1 209.12628540865373,-9.193948369686533 L 208.3911938098522,-6.285402282485675 L 216.03540821192266,-7.963492320349795 L 210.1064075403891,-13.072009819287677 L 209.3713159415876,-10.16346373208682 A 353.4946616485818 353.4946616485818 0 0 0 137.92824146994226,-20.613796891536367"/><text text-anchor="middle" pointer-events="none" font-size="8px" fill="#000000" x="120.23958218700798" y="-17.430662686864764" font-family="sans-serif">EMAILS</text></g><g class="relationship" transform="translate(412.6907810522019 94.87880447411536) rotate(530.6674094817921)"><path class="outline" fill="#6DCE9E" stroke="none" d="M 32.5 0.5 L 90.31952298313648 0.5 L 90.31952298313648 -0.5 L 32.5 -0.5 Z M 121.66717923313648 0.5 L 179.48670221627296 0.5 L 179.48670221627296 3.5 L 186.48670221627296 0 L 179.48670221627296 -3.5 L 179.48670221627296 -0.5 L 121.66717923313648 -0.5 Z"/><text text-anchor="middle" pointer-events="none" font-size="8px" fill="#000000" x="105.99335110813648" y="3" transform="rotate(180 105.99335110813648 0)" font-family="sans-serif">CALLS</text></g><g class="relationship" transform="translate(412.6907810522019 94.87880447411536) rotate(434.1282052800846)"><path class="outline" fill="#6DCE9E" stroke="none" d="M 32.5 0.5 L 75.68346166070314 0.5 L 75.68346166070314 -0.5 L 32.5 -0.5 Z M 107.03111791070314 0.5 L 150.2145795714063 0.5 L 150.2145795714063 3.5 L 157.2145795714063 0 L 150.2145795714063 -3.5 L 150.2145795714063 -0.5 L 107.03111791070314 -0.5 Z"/><text text-anchor="middle" pointer-events="none" font-size="8px" fill="#000000" x="91.35728978570314" y="3" font-family="sans-serif">CALLS</text></g><g class="relationship" transform="translate(412.6907810522019 94.87880447411536) rotate(434.1282052800846)"><path class="outline" fill="#FFD86E" stroke="none" d="M 27.89582562299426,16.683012701892217 L 28.39582562299426,15.816987298107778 A 130.26630593435755 130.26630593435755 0 0 0 74.55301123958537,31.87983206491235 L 74.40734066718002,32.8691652162497 A 131.26630593435755 131.26630593435755 0 0 1 27.89582562299426,16.683012701892217 Z M 107.9965171896028,33.46965589446411 L 107.88630201674142,32.475748144383076 A 130.26630593435755 130.26630593435755 0 0 0 154.58813659026256,18.072990994643526 L 153.18195966149807,15.422959590110647 L 161.00590602230002,15.233583394948557 L 156.46303916194853,21.606366200687365 L 155.05686223318403,18.956334796154486 A 131.26630593435755 131.26630593435755 0 0 1 107.9965171896028,33.46965589446411"/><text text-anchor="middle" pointer-events="none" font-size="8px" fill="#000000" x="91.19157676783078" y="36.748471248677575" font-family="sans-serif">MEETS</text></g><g class="relationship" transform="translate(412.6907810522019 94.87880447411536) rotate(222.79879479508872)"><path class="outline" fill="#FB95AF" stroke="none" d="M 32.5 6.5 L 211.66281703691908 6.5 L 211.66281703691908 9.5 L 230.66281703691908 0 L 211.66281703691908 -9.5 L 211.66281703691908 -6.5 L 32.5 -6.5 Z"/><text text-anchor="middle" pointer-events="none" font-size="8px" fill="#FFFFFF" x="122.08140851845954" y="3" transform="rotate(180 122.08140851845954 0)" font-family="sans-serif">PURCHASES_FROM</text></g><g class="relationship" transform="translate(412.6907810522019 94.87880447411536) rotate(530.6674094817921)"><path class="outline" fill="#68BDF6" stroke="none" d="M 27.89582562299426,-16.683012701892217 L 28.39582562299426,-15.816987298107778 A 159.89354135851707 159.89354135851707 0 0 1 88.29224120266579,-35.97653989598784 L 88.16684304756065,-36.968646393646324 A 160.89354135851707 160.89354135851707 0 0 0 27.89582562299426,-16.683012701892217 Z M 123.54480598869685,-37.51885073267904 L 123.45031984861886,-36.523324555558034 A 159.89354135851707 159.89354135851707 0 0 1 183.94466634732524,-18.23611039008543 L 182.52618372314802,-15.59264542059797 L 190.3491650468255,-15.366895095253167 L 185.83597651289486,-21.760730349402035 L 184.41749388871764,-19.117265379914578 A 160.89354135851707 160.89354135851707 0 0 0 123.54480598869685,-37.51885073267904"/><text text-anchor="middle" pointer-events="none" font-size="8px" fill="#000000" x="105.84842918296856" y="-34.71926624754515" transform="rotate(180 105.84842918296856 -37.71926624754515)" font-family="sans-serif">EMAILS</text></g><g class="relationship" transform="translate(412.6907810522019 94.87880447411536) rotate(434.1282052800846)"><path class="outline" fill="#68BDF6" stroke="none" d="M 15.816987298107785,28.395825622994256 L 16.683012701892224,27.895825622994256 A 88.73407818347158 88.73407818347158 0 0 0 73.35104725967635,69.93820568387284 L 73.1236494916083,70.91200764273188 A 89.73407818347158 89.73407818347158 0 0 1 15.816987298107785,28.395825622994256 Z M 108.41620442558232,72.01932441166076 L 108.25030061137062,71.03318247236905 A 88.73407818347158 88.73407818347158 0 0 0 167.4424708038627,32.62595854602149 L 164.9435382496462,30.966038039046236 L 171.7321074125077,27.07176933734552 L 170.77438087615135,34.83918588865516 L 168.27544832193485,33.179265381679905 A 89.73407818347158 89.73407818347158 0 0 1 108.41620442558232,72.01932441166076"/><text text-anchor="middle" pointer-events="none" font-size="8px" fill="#000000" x="90.73060391724827" y="75.71897550091953" font-family="sans-serif">EMAILS</text></g><g class="relationship" transform="translate(412.6907810522019 94.87880447411536) rotate(302.43555928844785)"><path class="outline" fill="#68BDF6" stroke="none" d="M 22.627416997969522,23.334523779156065 L 23.33452377915607,22.62741699796952 A 118.3295016864576 118.3295016864576 0 0 0 86.86090852243224,55.557888894314786 L 86.6906618128076,56.54329036471249 A 119.3295016864576 119.3295016864576 0 0 1 22.627416997969522,23.334523779156065 Z M 122.04360180752805,57.33404836797615 L 121.91758531739836,56.342020221089484 A 118.3295016864576 118.3295016864576 0 0 0 186.8528466108443,26.284918254688574 L 184.82849777213264,24.0708695246 L 192.35635178750292,21.930445752709506 L 189.55197839579316,29.236983228140005 L 187.5276295570815,27.02293449805143 A 119.3295016864576 119.3295016864576 0 0 1 122.04360180752805,57.33404836797615"/><text text-anchor="middle" pointer-events="none" font-size="8px" fill="#000000" x="104.3488588380385" y="60.75561119247472" font-family="sans-serif">EMAILS</text></g><g class="relationship" transform="translate(528.7259005699291 -87.71270669014896) rotate(482.43555928844785)"><path class="outline" fill="#6DCE9E" stroke="none" d="M 31.26317983184346,-8.894581878976458 L 31.52199887694598,-7.92865605268739 A 291.6482360454934 291.6482360454934 0 0 1 89.00226141546231,-17.310096640141694 L 88.9405300103123,-18.308189438241243 A 292.6482360454934 292.6482360454934 0 0 0 31.26317983184346,-8.894581878976458 Z M 120.32573987470614,-18.56305619690221 L 120.28022576801405,-17.564092500819072 A 291.6482360454934 291.6482360454934 0 0 1 177.90526365146647,-9.117376101923567 L 177.17596919959468,-6.207371015593129 L 184.8168245948828,-7.900689895277783 L 178.87765625396221,-12.997382883697483 L 178.14836180209042,-10.087377797367045 A 292.6482360454934 292.6482360454934 0 0 0 120.32573987470614,-18.56305619690221"/><text text-anchor="middle" pointer-events="none" font-size="8px" fill="#000000" x="104.63377587201177" y="-15.356696452081394" transform="rotate(180 104.63377587201177 -18.356696452081394)" font-family="sans-serif">CALLS</text></g><g class="relationship" transform="translate(528.7259005699291 -87.71270669014896) rotate(482.43555928844785)"><path class="outline" fill="#FFD86E" stroke="none" d="M 31.26317983184346,8.894581878976458 L 31.52199887694598,7.92865605268739 A 291.6482360454934 291.6482360454934 0 0 0 87.9009208938239,17.239887512531027 L 87.83541322540354,18.237739578409617 A 292.6482360454934 292.6482360454934 0 0 1 31.26317983184346,8.894581878976458 Z M 121.43185503215844,18.510562868832892 L 121.38256125068544,17.5117785462146 A 291.6482360454934 291.6482360454934 0 0 0 177.90526365146647,9.117376101923567 L 177.17596919959468,6.207371015593129 L 184.8168245948828,7.900689895277783 L 178.87765625396221,12.997382883697483 L 178.14836180209042,10.087377797367045 A 292.6482360454934 292.6482360454934 0 0 1 121.43185503215844,18.510562868832892"/><text text-anchor="middle" pointer-events="none" font-size="8px" fill="#000000" x="104.6337758720118" y="21.356696452081394" transform="rotate(180 104.6337758720118 18.356696452081394)" font-family="sans-serif">MEETS</text></g><g class="relationship" transform="translate(528.7259005699291 -87.71270669014896) rotate(539.2972257153768)"><path class="outline" fill="#FB95AF" stroke="none" d="M 32.5 6.5 L 257.6525540627152 6.5 L 257.6525540627152 9.5 L 276.6525540627152 0 L 257.6525540627152 -9.5 L 257.6525540627152 -6.5 L 32.5 -6.5 Z"/><text text-anchor="middle" pointer-events="none" font-size="8px" fill="#FFFFFF" x="145.0762770313576" y="3" transform="rotate(180 145.0762770313576 0)" font-family="sans-serif">PURCHASES_FROM</text></g><g class="relationship" transform="translate(528.7259005699291 -87.71270669014896) rotate(482.43555928844785)"><path class="outline" fill="#68BDF6" stroke="none" d="M 22.627416997969522,23.334523779156065 L 23.33452377915607,22.62741699796952 A 118.3295016864576 118.3295016864576 0 0 0 86.86090852243224,55.557888894314786 L 86.6906618128076,56.54329036471249 A 119.3295016864576 119.3295016864576 0 0 1 22.627416997969522,23.334523779156065 Z M 122.04360180752805,57.33404836797615 L 121.91758531739836,56.342020221089484 A 118.3295016864576 118.3295016864576 0 0 0 186.8528466108443,26.284918254688574 L 184.82849777213264,24.0708695246 L 192.35635178750292,21.930445752709506 L 189.55197839579316,29.236983228140005 L 187.5276295570815,27.02293449805143 A 119.3295016864576 119.3295016864576 0 0 1 122.04360180752805,57.33404836797615"/><text text-anchor="middle" pointer-events="none" font-size="8px" fill="#000000" x="104.3488588380385" y="60.75561119247472" transform="rotate(180 104.3488588380385 57.75561119247472)" font-family="sans-serif">EMAILS</text></g><g class="relationship" transform="translate(528.7259005699291 -87.71270669014896) rotate(538.2391954610328)"><path class="outline" fill="#68BDF6" stroke="none" d="M 31.26317983184346,8.894581878976458 L 31.52199887694598,7.92865605268739 A 790.3072609966471 790.3072609966471 0 0 0 215.4270331414454,34.588115333750125 L 215.40091477282735,35.587774190971345 A 791.3072609966471 791.3072609966471 0 0 1 31.26317983184346,8.894581878976458 Z M 250.76381606713625,35.721259589849296 L 250.7452452195202,34.721432042909896 A 790.3072609966471 790.3072609966471 0 0 0 434.8463004309621,9.451096330482669 L 434.09174176472413,6.5475396805780814 L 441.74702572511245,8.174385550911467 L 435.85237865261274,13.322505197022119 L 435.09781998637476,10.418948547117532 A 791.3072609966471 791.3072609966471 0 0 1 250.76381606713625,35.721259589849296"/><text text-anchor="middle" pointer-events="none" font-size="8px" fill="#000000" x="233.0835070033135" y="38.35208906670982" transform="rotate(180 233.0835070033135 35.35208906670982)" font-family="sans-serif">EMAILS</text></g><g class="relationship" transform="translate(528.7259005699291 -87.71270669014896) rotate(459.96629585152317)"><path class="outline" fill="#68BDF6" stroke="none" d="M 31.26317983184346,8.894581878976458 L 31.52199887694598,7.92865605268739 A 591.6550239669743 591.6550239669743 0 0 0 164.16069036130722,27.73380384701079 L 164.12605379773765,28.733203821227335 A 592.6550239669743 592.6550239669743 0 0 1 31.26317983184346,8.894581878976458 Z M 199.49398912362682,28.902977140890812 L 199.46894858349253,27.903290704377014 A 591.6550239669743 591.6550239669743 0 0 0 332.2916608323074,9.3724119149885 L 331.5430586859136,6.4673138398084955 L 339.1949900321264,8.109856585932938 L 333.28979702749916,13.245876015228509 L 332.54119488110535,10.340777940048504 A 592.6550239669743 592.6550239669743 0 0 1 199.49398912362682,28.902977140890812"/><text text-anchor="middle" pointer-events="none" font-size="8px" fill="#000000" x="181.81115479112546" y="31.58199002724359" transform="rotate(180 181.81115479112546 28.58199002724359)" font-family="sans-serif">EMAILS</text></g></g><g class="layer nodes"><g class="node" transform="translate(464.57501405269227,277.36071609251735)"><circle class="outline" cx="0" cy="0" r="32.5" fill="#FF756E" stroke="#E06760" stroke-width="2px"/><text text-anchor="middle" pointer-events="none" font-family="sans-serif" dy="2.03125" font-size="32.5" fill="#FFFFFF"/><text text-anchor="middle" pointer-events="none" font-family="sans-serif" dy="2.03125" font-size="32.5" fill="#FFFFFF"/><text text-anchor="middle" pointer-events="none" y="0" font-size="10px" fill="#FFFFFF" font-family="sans-serif"> Rosalia</text><text text-anchor="middle" pointer-events="none" y="10" font-size="10px" fill="#FFFFFF" font-family="sans-serif"> Larroque</text></g><g class="node" transform="translate(608.0235579996433,271.34848096513093)"><circle class="outline" cx="0" cy="0" r="32.5" fill="#FF756E" stroke="#E06760" stroke-width="2px"/><text text-anchor="middle" pointer-events="none" font-family="sans-serif" dy="2.03125" font-size="32.5" fill="#FFFFFF"/><text text-anchor="middle" pointer-events="none" font-family="sans-serif" dy="2.03125" font-size="32.5" fill="#FFFFFF"/><text text-anchor="middle" pointer-events="none" y="0" font-size="10px" fill="#FFFFFF" font-family="sans-serif"> Jenice</text><text text-anchor="middle" pointer-events="none" y="10" font-size="10px" fill="#FFFFFF" font-family="sans-serif"> Savaria</text></g><g class="node" transform="translate(26.708100929513535,67.18994853495619)"><circle class="outline" cx="0" cy="0" r="32.5" fill="#FF756E" stroke="#E06760" stroke-width="2px"/><text text-anchor="middle" pointer-events="none" font-family="sans-serif" dy="2.03125" font-size="32.5" fill="#FFFFFF"/><text text-anchor="middle" pointer-events="none" font-family="sans-serif" dy="2.03125" font-size="32.5" fill="#FFFFFF"/><text text-anchor="middle" pointer-events="none" y="0" font-size="10px" fill="#FFFFFF" font-family="sans-serif"> Lizbeth</text><text text-anchor="middle" pointer-events="none" y="10" font-size="10px" fill="#FFFFFF" font-family="sans-serif"> Jindra</text></g><g class="node" transform="translate(219.59660190951456,-83.92082150988584)"><circle class="outline" cx="0" cy="0" r="32.5" fill="#68BDF6" stroke="#5CA8DB" stroke-width="2px"/><text text-anchor="middle" pointer-events="none" font-family="sans-serif" dy="2.03125" font-size="32.5" fill="#FFFFFF"/><text text-anchor="middle" pointer-events="none" y="5" font-size="10px" fill="#FFFFFF" font-family="sans-serif"> Gail Feindt</text></g><g class="node" transform="translate(196.60266684494138,130.39081154086045)"><circle class="outline" cx="0" cy="0" r="32.5" fill="#68BDF6" stroke="#5CA8DB" stroke-width="2px"/><text text-anchor="middle" pointer-events="none" font-family="sans-serif" dy="2.03125" font-size="32.5" fill="#FFFFFF"/><text text-anchor="middle" pointer-events="none" font-family="sans-serif" dy="2.03125" font-size="32.5" fill="#FFFFFF"/><text text-anchor="middle" pointer-events="none" y="0" font-size="10px" fill="#FFFFFF" font-family="sans-serif"> Sheilah</text><text text-anchor="middle" pointer-events="none" y="10" font-size="10px" fill="#FFFFFF" font-family="sans-serif"> Stachniw</text></g><g class="node" transform="translate(55.747117140500094,-73.17262223167981)"><circle class="outline" cx="0" cy="0" r="32.5" fill="#FF756E" stroke="#E06760" stroke-width="2px"/><text text-anchor="middle" pointer-events="none" font-family="sans-serif" dy="2.03125" font-size="32.5" fill="#FFFFFF"/><text text-anchor="middle" pointer-events="none" y="5" font-size="10px" fill="#FFFFFF" font-family="sans-serif"> Tobi Gatlin</text></g><g class="node" transform="translate(412.6907810522019,94.87880447411536)"><circle class="outline" cx="0" cy="0" r="32.5" fill="#FF756E" stroke="#E06760" stroke-width="2px"/><text text-anchor="middle" pointer-events="none" font-family="sans-serif" dy="2.03125" font-size="32.5" fill="#FFFFFF"/><text text-anchor="middle" pointer-events="none" font-family="sans-serif" dy="2.03125" font-size="32.5" fill="#FFFFFF"/><text text-anchor="middle" pointer-events="none" y="0" font-size="10px" fill="#FFFFFF" font-family="sans-serif"> Meryl</text><text text-anchor="middle" pointer-events="none" y="10" font-size="10px" fill="#FFFFFF" font-family="sans-serif"> Pastuch</text></g><g class="node" transform="translate(528.7259005699291,-87.71270669014896)"><circle class="outline" cx="0" cy="0" r="32.5" fill="#FF756E" stroke="#E06760" stroke-width="2px"/><text text-anchor="middle" pointer-events="none" font-family="sans-serif" dy="2.03125" font-size="32.5" fill="#FFFFFF"/><text text-anchor="middle" pointer-events="none" y="5" font-size="10px" fill="#FFFFFF" font-family="sans-serif"> Richard Fox</text></g></g></svg>